<?xml version="1.0" encoding="UTF-8" standalone="no"?>
<!-- Created with Inkscape (http://www.inkscape.org/) -->

<svg
   xmlns:dc="http://purl.org/dc/elements/1.1/"
   xmlns:cc="http://creativecommons.org/ns#"
   xmlns:rdf="http://www.w3.org/1999/02/22-rdf-syntax-ns#"
   xmlns:svg="http://www.w3.org/2000/svg"
   xmlns="http://www.w3.org/2000/svg"
   xmlns:sodipodi="http://sodipodi.sourceforge.net/DTD/sodipodi-0.dtd"
   xmlns:inkscape="http://www.inkscape.org/namespaces/inkscape"
   width="1000"
   height="1000"
   id="svg5163"
   version="1.1"
   inkscape:version="0.48.4 r9939"
   sodipodi:docname="probAndStatistics.png">
  <defs
     id="defs5165" />
  <sodipodi:namedview
     id="base"
     pagecolor="#ffffff"
     bordercolor="#666666"
     borderopacity="1.0"
     inkscape:pageopacity="0.0"
     inkscape:pageshadow="2"
     inkscape:zoom="0.53815615"
     inkscape:cx="449.7275"
     inkscape:cy="508.45969"
     inkscape:document-units="px"
     inkscape:current-layer="layer1"
     showgrid="false"
     inkscape:window-width="1467"
     inkscape:window-height="807"
     inkscape:window-x="28"
     inkscape:window-y="97"
     inkscape:window-maximized="0"
     fit-margin-top="0"
     fit-margin-left="0"
     fit-margin-right="0"
     fit-margin-bottom="0" />
  <metadata
     id="metadata5168">
    <rdf:RDF>
      <cc:Work
         rdf:about="">
        <dc:format>image/svg+xml</dc:format>
        <dc:type
           rdf:resource="http://purl.org/dc/dcmitype/StillImage" />
        <dc:title></dc:title>
      </cc:Work>
    </rdf:RDF>
  </metadata>
  <g
     inkscape:label="Layer 1"
     inkscape:groupmode="layer"
     id="layer1"
     transform="translate(605.61413,-0.76158374)">
    <path
       sodipodi:type="arc"
       style="fill:none;stroke:#ff0000;stroke-width:4.60500002;stroke-miterlimit:4;stroke-opacity:1;stroke-dasharray:none"
       id="path4025"
       sodipodi:cx="844.28571"
       sodipodi:cy="363.07648"
       sodipodi:rx="190"
       sodipodi:ry="160.71428"
       d="m 1034.2857,363.07648 a 190,160.71428 0 1 1 -379.99999,0 190,160.71428 0 1 1 379.99999,0 z"
       transform="matrix(0.10101172,0,0,0.10831391,-364.14756,249.63436)" />
    <path
       style="fill:#000000;fill-opacity:1;stroke:#000000;stroke-width:3.56927967;stroke-linecap:butt;stroke-linejoin:miter;stroke-miterlimit:4;stroke-opacity:1;stroke-dasharray:none"
       d="m -243.87356,332.17436 c -65.54583,0.41767 -82.33841,-40.89492 -73.11941,-78.30006 -6.13625,-1.80143 -15.56944,-29.07771 -9.41118,-42.02615 14.30628,-6.74287 35.41499,7.03236 43.42744,11.57313 21.40884,-13.8747 58.22137,-13.95033 77.97926,-1.70919 7.35915,-3.43388 24.20247,-16.44734 42.56021,-10.96789 10.53005,14.61057 0.37255,38.08133 -10.62302,42.85451 15.09282,42.86851 -9.44814,78.43042 -70.8133,78.57565 z"
       id="path4027"
       inkscape:connector-curvature="0"
       sodipodi:nodetypes="cccccccc" />
    <path
       style="fill:#cc0000;fill-opacity:1;stroke:#cc0000;stroke-width:0.11823642px;stroke-linecap:butt;stroke-linejoin:miter;stroke-opacity:1"
       d="m -311.87249,250.32774 c -8.97556,-11.03583 -13.79074,-28.8802 -8.44321,-30.4286 5.34752,-1.54841 14.73899,0.4517 28.058,8.19902 l -11.84699,9.58511 z"
       id="path4123"
       inkscape:connector-curvature="0"
       sodipodi:nodetypes="csccc" />
    <path
       style="fill:#cc0000;fill-opacity:1;stroke:#cc0000;stroke-width:0.11823642px;stroke-linecap:butt;stroke-linejoin:miter;stroke-opacity:1"
       d="m -178.28081,249.34898 c 8.97555,-11.03583 13.79074,-28.88019 8.44321,-30.4286 -5.34752,-1.54843 -14.73899,0.45169 -28.05797,8.199 l 11.84696,9.58512 z"
       id="path4123-2"
       inkscape:connector-curvature="0"
       sodipodi:nodetypes="csccc" />
    <path
       style="fill:#000000;fill-opacity:1;stroke:#000000;stroke-width:0.66089129;stroke-miterlimit:4;stroke-opacity:1;stroke-dasharray:none"
       d="m -341.2725,294.89234 c -0.0742,-0.0788 -0.13525,-0.31981 -0.13525,-0.53567 0,-0.3808 0.082,-0.39608 2.7492,-0.51166 1.51208,-0.0655 6.74457,-0.17256 11.62781,-0.23785 l 8.87859,-0.11882 0,0.54157 0,0.54154 -7.43641,0.12077 c -4.09,0.0664 -9.26165,0.17082 -11.49258,0.232 -2.2309,0.0611 -4.11704,0.0467 -4.19141,-0.0321 z"
       id="path4488"
       inkscape:connector-curvature="0" />
    <path
       style="fill:#000000;fill-opacity:1;stroke:#000000;stroke-width:0.66089129;stroke-miterlimit:4;stroke-opacity:1;stroke-dasharray:none"
       d="m -333.78147,311.70956 c -0.16654,-0.36551 -0.16159,-0.49546 0.0233,-0.61384 0.48359,-0.30944 6.71104,-2.89692 10.16803,-4.22473 3.22035,-1.23689 10.32997,-3.68007 10.70901,-3.68007 0.082,0 0.22352,0.22256 0.31422,0.49455 l 0.16484,0.4946 -3.89056,1.2802 c -5.04092,1.65875 -10.64519,3.8228 -16.44302,6.34929 l -0.83455,0.36367 -0.21128,-0.46367 z"
       id="path4490-1"
       inkscape:connector-curvature="0" />
    <path
       style="fill:#000000;fill-opacity:1;stroke:#000000;stroke-width:0.66089129;stroke-miterlimit:4;stroke-opacity:1;stroke-dasharray:none"
       d="m -146.4748,295.31724 c 0.0742,-0.0786 0.13525,-0.31981 0.13525,-0.53569 0,-0.38077 -0.082,-0.39605 -2.74919,-0.51161 -1.51207,-0.0655 -6.74455,-0.17259 -11.6278,-0.2379 l -8.87858,-0.11869 0,0.54154 0,0.54157 7.43639,0.12077 c 4.08999,0.0664 9.26167,0.17084 11.49257,0.23199 2.23091,0.0614 4.11705,0.0467 4.19142,-0.0321 z"
       id="path4488-4"
       inkscape:connector-curvature="0" />
    <path
       style="fill:#000000;fill-opacity:1;stroke:#000000;stroke-width:0.66089129;stroke-miterlimit:4;stroke-opacity:1;stroke-dasharray:none"
       d="m -153.96584,312.13446 c 0.16655,-0.36552 0.1616,-0.49548 -0.0234,-0.61379 -0.48357,-0.30951 -6.71105,-2.89699 -10.16803,-4.2248 -3.22032,-1.23689 -10.32995,-3.68005 -10.70901,-3.68005 -0.082,0 -0.22352,0.22256 -0.3142,0.4946 l -0.16487,0.49454 3.89058,1.28023 c 5.04091,1.65875 10.64521,3.82277 16.44302,6.34928 l 0.83456,0.36369 0.21127,-0.4637 z"
       id="path4490-1-9"
       inkscape:connector-curvature="0" />
    <path
       sodipodi:type="arc"
       style="fill:#cc0000;fill-opacity:1;stroke:#cc0000;stroke-width:3.4000001;stroke-miterlimit:4;stroke-opacity:1;stroke-dasharray:none"
       id="path3804-0"
       sodipodi:cx="277"
       sodipodi:cy="183.86217"
       sodipodi:rx="11"
       sodipodi:ry="11.5"
       d="m 288,183.86217 a 11,11.5 0 1 1 -22,0 11,11.5 0 1 1 22,0 z"
       transform="matrix(0.50055236,0,0,0.41818303,-379.62285,231.70812)" />
    <path
       sodipodi:type="arc"
       style="fill:#ffffff;fill-opacity:1;stroke:#000000;stroke-width:3.4000001;stroke-miterlimit:4;stroke-opacity:1;stroke-dasharray:none"
       id="path3784-9-4-6-8"
       sodipodi:cx="300.5"
       sodipodi:cy="121.86217"
       sodipodi:rx="41.5"
       sodipodi:ry="42.5"
       d="m 342,121.86217 a 41.5,42.5 0 1 1 -83,0 41.5,42.5 0 1 1 83,0 z"
       transform="matrix(0.43474262,0,0,0.38557444,-345.30585,238.57794)" />
    <path
       sodipodi:type="arc"
       style="fill:#ffffff;fill-opacity:1;stroke:#000000;stroke-width:3.4000001;stroke-miterlimit:4;stroke-opacity:1;stroke-dasharray:none"
       id="path3784-9-4-6-8-5"
       sodipodi:cx="300.5"
       sodipodi:cy="121.86217"
       sodipodi:rx="41.5"
       sodipodi:ry="42.5"
       d="m 342,121.86217 a 41.5,42.5 0 1 1 -83,0 41.5,42.5 0 1 1 83,0 z"
       transform="matrix(-0.43474262,0,0,0.38557444,-137.69116,238.88744)" />
    <path
       sodipodi:type="arc"
       style="fill:#000000;fill-opacity:1;stroke:#000000;stroke-width:3.4000001;stroke-miterlimit:4;stroke-opacity:1;stroke-dasharray:none"
       id="path3804-76"
       sodipodi:cx="277"
       sodipodi:cy="183.86217"
       sodipodi:rx="11"
       sodipodi:ry="11.5"
       d="m 288,183.86217 a 11,11.5 0 1 1 -22,0 11,11.5 0 1 1 22,0 z"
       transform="matrix(0.356928,0,0,0.356928,-358.8435,222.72495)" />
    <path
       sodipodi:type="arc"
       style="fill:#000000;fill-opacity:1;stroke:#000000;stroke-width:3.4000001;stroke-miterlimit:4;stroke-opacity:1;stroke-dasharray:none"
       id="path3804-76-1"
       sodipodi:cx="277"
       sodipodi:cy="183.86217"
       sodipodi:rx="11"
       sodipodi:ry="11.5"
       d="m 288,183.86217 a 11,11.5 0 1 1 -22,0 11,11.5 0 1 1 22,0 z"
       transform="matrix(0.356928,0,0,0.356928,-321.58209,222.10591)" />
    <path
       sodipodi:type="arc"
       style="fill:none;stroke:#ff0000;stroke-width:4.60500002;stroke-miterlimit:4;stroke-opacity:1;stroke-dasharray:none"
       id="path4025-79"
       sodipodi:cx="844.28571"
       sodipodi:cy="363.07648"
       sodipodi:rx="190"
       sodipodi:ry="160.71428"
       d="m 1034.2857,363.07648 a 190,160.71428 0 1 1 -379.99999,0 190,160.71428 0 1 1 379.99999,0 z"
       transform="matrix(0.10101172,0,0,0.10831391,-140.31626,248.62475)" />
    <path
       style="fill:#cc0000;fill-opacity:1;stroke:#000000;stroke-width:3.56928039;stroke-linecap:butt;stroke-linejoin:miter;stroke-miterlimit:4;stroke-opacity:1;stroke-dasharray:none"
       d="m -20.042273,331.16474 c -65.545818,0.41766 -82.338407,-40.89489 -73.119399,-78.30005 -6.136229,-1.80142 -15.569438,-29.07773 -9.411188,-42.02616 14.30628,-6.74284 35.415015,7.03235 43.427471,11.57313 21.408816,-13.8747 58.22133774,-13.95031 77.979236,-1.7092 7.359144,-3.43387 24.202432,-16.44733 42.560186,-10.96788 10.530078,14.61058 0.372543,38.08135 -10.622976,42.85452 15.092781,42.86851 -9.448173,78.43042 -70.81333,78.57564 z"
       id="path4027-5"
       inkscape:connector-curvature="0"
       sodipodi:nodetypes="cccccccc" />
    <path
       style="fill:#000000;fill-opacity:1;stroke:#000000;stroke-width:0.11823642px;stroke-linecap:butt;stroke-linejoin:miter;stroke-opacity:1"
       d="m -88.041191,249.31816 c -8.975553,-11.03584 -13.790759,-28.88021 -8.443235,-30.42864 5.347524,-1.54842 14.739021,0.45168 28.05802,8.19902 l -11.846999,9.58511 z"
       id="path4123-4"
       inkscape:connector-curvature="0"
       sodipodi:nodetypes="csccc" />
    <path
       style="fill:#000000;fill-opacity:1;stroke:#000000;stroke-width:0.11823642px;stroke-linecap:butt;stroke-linejoin:miter;stroke-opacity:1"
       d="m 45.55047,248.33939 c 8.975616,-11.03585 13.79079,-28.8802 8.443219,-30.42864 -5.347493,-1.54842 -14.738989,0.4517 -28.057973,8.19903 l 11.846952,9.58509 z"
       id="path4123-2-3"
       inkscape:connector-curvature="0"
       sodipodi:nodetypes="csccc" />
    <path
       style="fill:#000000;fill-opacity:1;stroke:#000000;stroke-width:0.66089129;stroke-miterlimit:4;stroke-opacity:1;stroke-dasharray:none"
       d="m -116.1932,293.88273 c -0.0744,-0.0788 -0.13525,-0.3198 -0.13525,-0.53567 0,-0.3808 0.082,-0.39609 2.7492,-0.51167 1.51208,-0.0655 6.74457,-0.17256 11.6278,-0.23784 l 8.878573,-0.11882 0,0.54157 0,0.54153 -7.436383,0.12077 c -4.09,0.0664 -9.26165,0.17083 -11.49257,0.232 -2.23092,0.061 -4.11705,0.0468 -4.19142,-0.0321 z"
       id="path4488-1"
       inkscape:connector-curvature="0" />
    <path
       style="fill:#000000;fill-opacity:1;stroke:#000000;stroke-width:0.66089129;stroke-miterlimit:4;stroke-opacity:1;stroke-dasharray:none"
       d="m -109.95017,310.69992 c -0.16655,-0.36548 -0.1616,-0.49544 0.0234,-0.6138 0.48357,-0.30946 6.71104,-2.89694 10.168029,-4.22474 3.220339,-1.23692 10.329961,-3.68007 10.70901,-3.68007 0.08206,0 0.223501,0.22253 0.3142,0.49456 l 0.164876,0.4946 -3.890593,1.28018 c -5.040906,1.65875 -10.645192,3.82281 -16.443012,6.3493 l -0.83455,0.36366 -0.21127,-0.46369 z"
       id="path4490-1-3"
       inkscape:connector-curvature="0" />
    <path
       style="fill:#000000;fill-opacity:1;stroke:#000000;stroke-width:0.66089129;stroke-miterlimit:4;stroke-opacity:1;stroke-dasharray:none"
       d="m 76.108483,294.30763 c 0.07441,-0.0788 0.135252,-0.31982 0.135252,-0.5357 0,-0.38075 -0.08206,-0.39604 -2.749203,-0.51161 -1.512093,-0.0655 -6.744582,-0.17256 -11.627772,-0.23789 l -8.878584,-0.11869 0,0.54153 0,0.54155 7.436364,0.12077 c 4.090039,0.0664 9.261642,0.17086 11.492582,0.232 2.230878,0.0611 4.117027,0.0467 4.191408,-0.0321 z"
       id="path4488-4-3"
       inkscape:connector-curvature="0" />
    <path
       style="fill:#000000;fill-opacity:1;stroke:#000000;stroke-width:0.66089129;stroke-miterlimit:4;stroke-opacity:1;stroke-dasharray:none"
       d="m 69.865488,311.12484 c 0.166468,-0.36552 0.161554,-0.49548 -0.02278,-0.61379 -0.483631,-0.30951 -6.711026,-2.89699 -10.168018,-4.22478 -3.220354,-1.2369 -10.329992,-3.68007 -10.709072,-3.68007 -0.08221,0 -0.223501,0.22259 -0.314153,0.49459 l -0.164907,0.49456 3.890593,1.28021 c 5.04089,1.65879 10.645159,3.82278 16.443039,6.3493 l 0.834491,0.36368 0.211302,-0.4637 z"
       id="path4490-1-9-1"
       inkscape:connector-curvature="0" />
    <path
       sodipodi:type="arc"
       style="fill:#000000;fill-opacity:1;stroke:#000000;stroke-width:3.4000001;stroke-miterlimit:4;stroke-opacity:1;stroke-dasharray:none"
       id="path3804-0-1"
       sodipodi:cx="277"
       sodipodi:cy="183.86217"
       sodipodi:rx="11"
       sodipodi:ry="11.5"
       d="m 288,183.86217 a 11,11.5 0 1 1 -22,0 11,11.5 0 1 1 22,0 z"
       transform="matrix(0.50055236,0,0,0.41818303,-155.79155,230.6985)" />
    <path
       sodipodi:type="arc"
       style="fill:#ffffff;fill-opacity:1;stroke:#000000;stroke-width:3.4000001;stroke-miterlimit:4;stroke-opacity:1;stroke-dasharray:none"
       id="path3784-9-4-6-8-3"
       sodipodi:cx="300.5"
       sodipodi:cy="121.86217"
       sodipodi:rx="41.5"
       sodipodi:ry="42.5"
       d="m 342,121.86217 a 41.5,42.5 0 1 1 -83,0 41.5,42.5 0 1 1 83,0 z"
       transform="matrix(0.43474262,0,0,0.38557444,-121.47455,237.56832)" />
    <path
       sodipodi:type="arc"
       style="fill:#ffffff;fill-opacity:1;stroke:#000000;stroke-width:3.4000001;stroke-miterlimit:4;stroke-opacity:1;stroke-dasharray:none"
       id="path3784-9-4-6-8-5-8"
       sodipodi:cx="300.5"
       sodipodi:cy="121.86217"
       sodipodi:rx="41.5"
       sodipodi:ry="42.5"
       d="m 342,121.86217 a 41.5,42.5 0 1 1 -83,0 41.5,42.5 0 1 1 83,0 z"
       transform="matrix(-0.43474262,0,0,0.38557444,86.140126,237.87784)" />
    <path
       sodipodi:type="arc"
       style="fill:#000000;fill-opacity:1;stroke:#000000;stroke-width:3.4000001;stroke-miterlimit:4;stroke-opacity:1;stroke-dasharray:none"
       id="path3804-76-7"
       sodipodi:cx="277"
       sodipodi:cy="183.86217"
       sodipodi:rx="11"
       sodipodi:ry="11.5"
       d="m 288,183.86217 a 11,11.5 0 1 1 -22,0 11,11.5 0 1 1 22,0 z"
       transform="matrix(0.356928,0,0,0.356928,-135.01223,221.71534)" />
    <path
       sodipodi:type="arc"
       style="fill:#000000;fill-opacity:1;stroke:#000000;stroke-width:3.4000001;stroke-miterlimit:4;stroke-opacity:1;stroke-dasharray:none"
       id="path3804-76-1-4"
       sodipodi:cx="277"
       sodipodi:cy="183.86217"
       sodipodi:rx="11"
       sodipodi:ry="11.5"
       d="m 288,183.86217 a 11,11.5 0 1 1 -22,0 11,11.5 0 1 1 22,0 z"
       transform="matrix(0.356928,0,0,0.356928,-97.750802,221.0963)" />
    <flowRoot
       xml:space="preserve"
       id="flowRoot5151-8-1-8"
       style="font-size:40px;font-style:normal;font-weight:normal;line-height:125%;letter-spacing:0px;word-spacing:0px;fill:#000000;fill-opacity:1;stroke:none;font-family:Sans"
       transform="matrix(0.15116149,1.0580771,-7.1642628,0.00409253,2256.0027,-338.97566)"><flowRegion
         id="flowRegion5153-6-3-6"><rect
           id="rect5155-02-8-5"
           width="470"
           height="238.57143"
           x="928.57141"
           y="266.64789" /></flowRegion><flowPara
         id="flowPara5157-4-7-0"
         style="font-size:144px">|</flowPara></flowRoot>    <flowRoot
       xml:space="preserve"
       id="flowRoot5151-8-1-8-1"
       style="font-size:40px;font-style:normal;font-weight:normal;line-height:125%;letter-spacing:0px;word-spacing:0px;fill:#000000;fill-opacity:1;stroke:none;font-family:Sans"
       transform="matrix(1.3211307,0.05723412,0.00510999,-2.7125975,-176.96943,1157.1381)"><flowRegion
         id="flowRegion5153-6-3-6-3"><rect
           id="rect5155-02-8-5-5"
           width="470"
           height="238.57143"
           x="928.57141"
           y="266.64789" /></flowRegion><flowPara
         id="flowPara5157-4-7-0-9"
         style="font-size:144px">|</flowPara></flowRoot>    <flowRoot
       xml:space="preserve"
       id="flowRoot3046"
       style="font-size:40px;font-style:normal;font-weight:normal;line-height:125%;letter-spacing:0px;word-spacing:0px;fill:#000000;fill-opacity:1;stroke:none;font-family:Sans"
       transform="matrix(1.56,0,0,1.56,-1441.6091,192.16634)"><flowRegion
         id="flowRegion3048"><rect
           id="rect3050"
           width="981.12787"
           height="460.83279"
           x="615.06311"
           y="-10.859022" /></flowRegion><flowPara
         id="flowPara3052"><flowSpan
           style="font-size:190px"
           id="flowSpan3056"><flowSpan
             style="font-size:100px"
             id="flowSpan3074">P(    |    ) = </flowSpan></flowSpan></flowPara></flowRoot>    <flowRoot
       xml:space="preserve"
       id="flowRoot3058"
       style="font-size:40px;font-style:normal;font-weight:normal;line-height:125%;letter-spacing:0px;word-spacing:0px;fill:#000000;fill-opacity:1;stroke:none;font-family:Sans"
       transform="matrix(1.56,0,0,1.56,-1402.1272,-301.52307)"><flowRegion
         id="flowRegion3060"><rect
           id="rect3062"
           width="1746.705"
           height="572.32458"
           x="520.2951"
           y="494.5705" /></flowRegion><flowPara
         id="flowPara3068"
         style="font-size:100px">P(    |    )P(    )</flowPara><flowPara
         id="flowPara3066"
         style="font-size:100px">      P(    )</flowPara></flowRoot>    <flowRoot
       xml:space="preserve"
       id="flowRoot3076"
       style="fill:black;stroke:none;stroke-opacity:1;stroke-width:1px;stroke-linejoin:miter;stroke-linecap:butt;fill-opacity:1;font-family:Sans;font-style:normal;font-weight:normal;font-size:40px;line-height:125%;letter-spacing:0px;word-spacing:0px"><flowRegion
         id="flowRegion3078"><rect
           id="rect3080"
           width="691.24921"
           height="172.8123"
           x="384.64673"
           y="-25.724596" /></flowRegion><flowPara
         id="flowPara3082"></flowPara></flowRoot>    <path
       sodipodi:type="arc"
       style="fill:none;stroke:#ff0000;stroke-width:4.60500002;stroke-miterlimit:4;stroke-opacity:1;stroke-dasharray:none"
       id="path4025-79-1"
       sodipodi:cx="844.28571"
       sodipodi:cy="363.07648"
       sodipodi:rx="190"
       sodipodi:ry="160.71428"
       d="m 1034.2857,363.07648 a 190,160.71428 0 1 1 -379.99999,0 190,160.71428 0 1 1 379.99999,0 z"
       transform="matrix(0.10101172,0,0,0.10831391,-481.7366,541.60616)" />
    <path
       style="fill:#cc0000;fill-opacity:1;stroke:#000000;stroke-width:3.56928039;stroke-linecap:butt;stroke-linejoin:miter;stroke-miterlimit:4;stroke-opacity:1;stroke-dasharray:none"
       d="m -361.46262,624.14615 c -65.54582,0.41765 -82.3384,-40.8949 -73.1194,-78.30006 -6.13622,-1.80142 -15.56943,-29.07773 -9.41118,-42.02616 14.30628,-6.74284 35.41502,7.03235 43.42747,11.57313 21.40881,-13.8747 58.22134,-13.95031 77.97923,-1.7092 7.35915,-3.43387 24.20244,-16.44733 42.5602,-10.96788 10.53008,14.61058 0.37254,38.08136 -10.62298,42.85453 15.09278,42.8685 -9.44818,78.43041 -70.81334,78.57564 z"
       id="path4027-5-7"
       inkscape:connector-curvature="0"
       sodipodi:nodetypes="cccccccc" />
    <path
       style="fill:#000000;fill-opacity:1;stroke:#000000;stroke-width:0.11823642px;stroke-linecap:butt;stroke-linejoin:miter;stroke-opacity:1"
       d="m -429.46154,542.29956 c -8.97555,-11.03584 -13.79075,-28.88021 -8.44322,-30.42864 5.34752,-1.54842 14.73902,0.45168 28.05801,8.19902 l -11.847,9.58511 z"
       id="path4123-4-4"
       inkscape:connector-curvature="0"
       sodipodi:nodetypes="csccc" />
    <path
       style="fill:#000000;fill-opacity:1;stroke:#000000;stroke-width:0.11823642px;stroke-linecap:butt;stroke-linejoin:miter;stroke-opacity:1"
       d="m -295.86987,541.32079 c 8.97562,-11.03585 13.79079,-28.8802 8.44321,-30.42864 -5.34748,-1.54842 -14.73898,0.4517 -28.05796,8.19903 l 11.84695,9.58509 z"
       id="path4123-2-3-0"
       inkscape:connector-curvature="0"
       sodipodi:nodetypes="csccc" />
    <path
       style="fill:#000000;fill-opacity:1;stroke:#000000;stroke-width:0.66089129;stroke-miterlimit:4;stroke-opacity:1;stroke-dasharray:none"
       d="m -457.61354,586.86414 c -0.0744,-0.0788 -0.13526,-0.3198 -0.13526,-0.53568 0,-0.3808 0.082,-0.39609 2.74921,-0.51167 1.51208,-0.0655 6.74456,-0.17256 11.62781,-0.23783 l 8.87857,-0.11882 0,0.54156 0,0.54153 -7.43639,0.12077 c -4.09001,0.0664 -9.26166,0.17083 -11.49257,0.232 -2.23092,0.061 -4.11705,0.0468 -4.19141,-0.0321 z"
       id="path4488-1-9"
       inkscape:connector-curvature="0" />
    <path
       style="fill:#000000;fill-opacity:1;stroke:#000000;stroke-width:0.66089129;stroke-miterlimit:4;stroke-opacity:1;stroke-dasharray:none"
       d="m -451.37051,603.68133 c -0.16655,-0.36549 -0.16161,-0.49545 0.0234,-0.61381 0.48357,-0.30945 6.71104,-2.89694 10.16802,-4.22474 3.22035,-1.23691 10.32997,-3.68007 10.70901,-3.68007 0.082,0 0.22351,0.22254 0.31421,0.49456 l 0.16487,0.4946 -3.89059,1.28019 c -5.0409,1.65874 -10.64519,3.8228 -16.44301,6.34929 l -0.83455,0.36366 -0.21127,-0.46368 z"
       id="path4490-1-3-4"
       inkscape:connector-curvature="0" />
    <path
       style="fill:#000000;fill-opacity:1;stroke:#000000;stroke-width:0.66089129;stroke-miterlimit:4;stroke-opacity:1;stroke-dasharray:none"
       d="m -265.31186,587.28903 c 0.0744,-0.0788 0.13525,-0.31982 0.13525,-0.53569 0,-0.38076 -0.082,-0.39605 -2.7492,-0.51162 -1.5121,-0.0655 -6.74458,-0.17256 -11.62777,-0.23789 l -8.87859,-0.11869 0,0.54153 0,0.54156 7.43637,0.12077 c 4.09004,0.0664 9.26164,0.17086 11.49258,0.23199 2.23088,0.0611 4.11702,0.0467 4.19141,-0.0321 z"
       id="path4488-4-3-8"
       inkscape:connector-curvature="0" />
    <path
       style="fill:#000000;fill-opacity:1;stroke:#000000;stroke-width:0.66089129;stroke-miterlimit:4;stroke-opacity:1;stroke-dasharray:none"
       d="m -271.55485,604.10624 c 0.16646,-0.36552 0.16155,-0.49548 -0.0228,-0.61379 -0.48363,-0.30951 -6.71103,-2.89699 -10.16802,-4.22478 -3.22036,-1.2369 -10.32999,-3.68007 -10.70907,-3.68007 -0.0822,0 -0.2235,0.22259 -0.31416,0.49459 l -0.16491,0.49456 3.89061,1.28021 c 5.04088,1.65879 10.64515,3.82278 16.44303,6.34931 l 0.83449,0.36367 0.2113,-0.4637 z"
       id="path4490-1-9-1-8"
       inkscape:connector-curvature="0" />
    <path
       sodipodi:type="arc"
       style="fill:#000000;fill-opacity:1;stroke:#000000;stroke-width:3.4000001;stroke-miterlimit:4;stroke-opacity:1;stroke-dasharray:none"
       id="path3804-0-1-2"
       sodipodi:cx="277"
       sodipodi:cy="183.86217"
       sodipodi:rx="11"
       sodipodi:ry="11.5"
       d="m 288,183.86217 a 11,11.5 0 1 1 -22,0 11,11.5 0 1 1 22,0 z"
       transform="matrix(0.50055236,0,0,0.41818303,-497.21189,523.6799)" />
    <path
       sodipodi:type="arc"
       style="fill:#ffffff;fill-opacity:1;stroke:#000000;stroke-width:3.4000001;stroke-miterlimit:4;stroke-opacity:1;stroke-dasharray:none"
       id="path3784-9-4-6-8-3-4"
       sodipodi:cx="300.5"
       sodipodi:cy="121.86217"
       sodipodi:rx="41.5"
       sodipodi:ry="42.5"
       d="m 342,121.86217 a 41.5,42.5 0 1 1 -83,0 41.5,42.5 0 1 1 83,0 z"
       transform="matrix(0.43474262,0,0,0.38557444,-462.89488,530.54972)" />
    <path
       sodipodi:type="arc"
       style="fill:#ffffff;fill-opacity:1;stroke:#000000;stroke-width:3.4000001;stroke-miterlimit:4;stroke-opacity:1;stroke-dasharray:none"
       id="path3784-9-4-6-8-5-8-5"
       sodipodi:cx="300.5"
       sodipodi:cy="121.86217"
       sodipodi:rx="41.5"
       sodipodi:ry="42.5"
       d="m 342,121.86217 a 41.5,42.5 0 1 1 -83,0 41.5,42.5 0 1 1 83,0 z"
       transform="matrix(-0.43474262,0,0,0.38557444,-255.28022,530.85924)" />
    <path
       sodipodi:type="arc"
       style="fill:#000000;fill-opacity:1;stroke:#000000;stroke-width:3.4000001;stroke-miterlimit:4;stroke-opacity:1;stroke-dasharray:none"
       id="path3804-76-7-5"
       sodipodi:cx="277"
       sodipodi:cy="183.86217"
       sodipodi:rx="11"
       sodipodi:ry="11.5"
       d="m 288,183.86217 a 11,11.5 0 1 1 -22,0 11,11.5 0 1 1 22,0 z"
       transform="matrix(0.356928,0,0,0.356928,-476.43256,514.69674)" />
    <path
       sodipodi:type="arc"
       style="fill:#000000;fill-opacity:1;stroke:#000000;stroke-width:3.4000001;stroke-miterlimit:4;stroke-opacity:1;stroke-dasharray:none"
       id="path3804-76-1-4-1"
       sodipodi:cx="277"
       sodipodi:cy="183.86217"
       sodipodi:rx="11"
       sodipodi:ry="11.5"
       d="m 288,183.86217 a 11,11.5 0 1 1 -22,0 11,11.5 0 1 1 22,0 z"
       transform="matrix(0.356928,0,0,0.356928,-439.17115,514.07769)" />
    <path
       sodipodi:type="arc"
       style="fill:none;stroke:#ff0000;stroke-width:4.60500002;stroke-miterlimit:4;stroke-opacity:1;stroke-dasharray:none"
       id="path4025-79-1-7"
       sodipodi:cx="844.28571"
       sodipodi:cy="363.07648"
       sodipodi:rx="190"
       sodipodi:ry="160.71428"
       d="m 1034.2857,363.07648 a 190,160.71428 0 1 1 -379.99999,0 190,160.71428 0 1 1 379.99999,0 z"
       transform="matrix(0.10101172,0,0,0.10831391,-209.25064,735.8249)" />
    <path
       style="fill:#cc0000;fill-opacity:1;stroke:#000000;stroke-width:3.56928039;stroke-linecap:butt;stroke-linejoin:miter;stroke-miterlimit:4;stroke-opacity:1;stroke-dasharray:none"
       d="m -88.976658,818.36487 c -65.545812,0.41764 -82.338392,-40.8949 -73.119392,-78.30005 -6.13623,-1.80142 -15.56944,-29.07775 -9.41118,-42.02617 14.30628,-6.74285 35.415,7.03234 43.42746,11.57312 21.40881,-13.87469 58.221333,-13.95031 77.979233,-1.70918 7.359144,-3.43388 24.202432,-16.44734 42.5602006,-10.96788 10.5300777,14.61058 0.3725436,38.08134 -10.6229756,42.85452 15.0927813,42.8685 -9.448187,78.43042 -70.813346,78.57564 z"
       id="path4027-5-7-1"
       inkscape:connector-curvature="0"
       sodipodi:nodetypes="cccccccc" />
    <path
       style="fill:#000000;fill-opacity:1;stroke:#000000;stroke-width:0.11823642px;stroke-linecap:butt;stroke-linejoin:miter;stroke-opacity:1"
       d="m -156.97557,736.51829 c -8.97555,-11.03586 -13.79075,-28.88023 -8.44323,-30.42865 5.34753,-1.54843 14.73901,0.45169 28.05802,8.19901 l -11.847,9.58511 z"
       id="path4123-4-4-1"
       inkscape:connector-curvature="0"
       sodipodi:nodetypes="csccc" />
    <path
       style="fill:#000000;fill-opacity:1;stroke:#000000;stroke-width:0.11823642px;stroke-linecap:butt;stroke-linejoin:miter;stroke-opacity:1"
       d="m -23.383915,735.53951 c 8.975632,-11.03585 13.7908058,-28.88021 8.443235,-30.42865 -5.347508,-1.5484 -14.739005,0.4517 -28.057989,8.19904 l 11.846952,9.58509 z"
       id="path4123-2-3-0-5"
       inkscape:connector-curvature="0"
       sodipodi:nodetypes="csccc" />
    <path
       style="fill:#000000;fill-opacity:1;stroke:#000000;stroke-width:0.66089129;stroke-miterlimit:4;stroke-opacity:1;stroke-dasharray:none"
       d="m -185.12758,781.08285 c -0.0744,-0.0788 -0.13525,-0.3198 -0.13525,-0.53567 0,-0.38079 0.082,-0.39608 2.7492,-0.51166 1.51208,-0.0655 6.74457,-0.17258 11.62781,-0.23784 l 8.87856,-0.11882 0,0.54157 0,0.54151 -7.43638,0.12077 c -4.09,0.0664 -9.26165,0.17085 -11.49258,0.23201 -2.2309,0.061 -4.11704,0.0468 -4.19141,-0.0321 z"
       id="path4488-1-9-2"
       inkscape:connector-curvature="0" />
    <path
       style="fill:#000000;fill-opacity:1;stroke:#000000;stroke-width:0.66089129;stroke-miterlimit:4;stroke-opacity:1;stroke-dasharray:none"
       d="m -178.88455,797.90004 c -0.16654,-0.36547 -0.1616,-0.49544 0.0234,-0.6138 0.48356,-0.30945 6.71104,-2.89693 10.16803,-4.22474 3.22035,-1.23691 10.32997,-3.68008 10.70901,-3.68008 0.082,0 0.22351,0.22254 0.3142,0.49458 l 0.16488,0.49459 -3.89059,1.28018 c -5.04091,1.65875 -10.64519,3.82282 -16.44301,6.3493 l -0.83455,0.36367 -0.21128,-0.4637 z"
       id="path4490-1-3-4-7"
       inkscape:connector-curvature="0" />
    <path
       style="fill:#000000;fill-opacity:1;stroke:#000000;stroke-width:0.66089129;stroke-miterlimit:4;stroke-opacity:1;stroke-dasharray:none"
       d="m 7.174113,781.50775 c 0.07441,-0.0788 0.135252,-0.31982 0.135252,-0.53569 0,-0.38077 -0.08206,-0.39606 -2.7492027,-0.51161 -1.512093,-0.0655 -6.744582,-0.17258 -11.6277719,-0.23789 l -8.8785844,-0.11869 0,0.54152 0,0.54155 7.4363644,0.12077 c 4.0900392,0.0664 9.2616419,0.17087 11.4925819,0.23201 2.230878,0.0611 4.1170267,0.0467 4.1914077,-0.0321 z"
       id="path4488-4-3-8-6"
       inkscape:connector-curvature="0" />
    <path
       style="fill:#000000;fill-opacity:1;stroke:#000000;stroke-width:0.66089129;stroke-miterlimit:4;stroke-opacity:1;stroke-dasharray:none"
       d="m 0.9311193,798.32497 c 0.166467,-0.36552 0.161553,-0.49548 -0.02278,-0.6138 -0.483632,-0.3095 -6.7110269,-2.89698 -10.1680181,-4.22477 -3.2203552,-1.23692 -10.3299922,-3.68007 -10.7090722,-3.68007 -0.08221,0 -0.223517,0.22257 -0.314169,0.49457 l -0.164907,0.49457 3.890609,1.28022 c 5.04089,1.65877 10.6451588,3.82278 16.4430393,6.34929 l 0.834491,0.36369 0.211302,-0.4637 z"
       id="path4490-1-9-1-8-1"
       inkscape:connector-curvature="0" />
    <path
       sodipodi:type="arc"
       style="fill:#000000;fill-opacity:1;stroke:#000000;stroke-width:3.4000001;stroke-miterlimit:4;stroke-opacity:1;stroke-dasharray:none"
       id="path3804-0-1-2-4"
       sodipodi:cx="277"
       sodipodi:cy="183.86217"
       sodipodi:rx="11"
       sodipodi:ry="11.5"
       d="m 288,183.86217 a 11,11.5 0 1 1 -22,0 11,11.5 0 1 1 22,0 z"
       transform="matrix(0.50055236,0,0,0.41818303,-224.72593,717.89864)" />
    <path
       sodipodi:type="arc"
       style="fill:#ffffff;fill-opacity:1;stroke:#000000;stroke-width:3.4000001;stroke-miterlimit:4;stroke-opacity:1;stroke-dasharray:none"
       id="path3784-9-4-6-8-3-4-2"
       sodipodi:cx="300.5"
       sodipodi:cy="121.86217"
       sodipodi:rx="41.5"
       sodipodi:ry="42.5"
       d="m 342,121.86217 a 41.5,42.5 0 1 1 -83,0 41.5,42.5 0 1 1 83,0 z"
       transform="matrix(0.43474262,0,0,0.38557444,-190.40893,724.76846)" />
    <path
       sodipodi:type="arc"
       style="fill:#ffffff;fill-opacity:1;stroke:#000000;stroke-width:3.4000001;stroke-miterlimit:4;stroke-opacity:1;stroke-dasharray:none"
       id="path3784-9-4-6-8-5-8-5-3"
       sodipodi:cx="300.5"
       sodipodi:cy="121.86217"
       sodipodi:rx="41.5"
       sodipodi:ry="42.5"
       d="m 342,121.86217 a 41.5,42.5 0 1 1 -83,0 41.5,42.5 0 1 1 83,0 z"
       transform="matrix(-0.43474262,0,0,0.38557444,17.205756,725.07798)" />
    <path
       sodipodi:type="arc"
       style="fill:#000000;fill-opacity:1;stroke:#000000;stroke-width:3.4000001;stroke-miterlimit:4;stroke-opacity:1;stroke-dasharray:none"
       id="path3804-76-7-5-2"
       sodipodi:cx="277"
       sodipodi:cy="183.86217"
       sodipodi:rx="11"
       sodipodi:ry="11.5"
       d="m 288,183.86217 a 11,11.5 0 1 1 -22,0 11,11.5 0 1 1 22,0 z"
       transform="matrix(0.356928,0,0,0.356928,-203.94661,708.91547)" />
    <path
       sodipodi:type="arc"
       style="fill:#000000;fill-opacity:1;stroke:#000000;stroke-width:3.4000001;stroke-miterlimit:4;stroke-opacity:1;stroke-dasharray:none"
       id="path3804-76-1-4-1-2"
       sodipodi:cx="277"
       sodipodi:cy="183.86217"
       sodipodi:rx="11"
       sodipodi:ry="11.5"
       d="m 288,183.86217 a 11,11.5 0 1 1 -22,0 11,11.5 0 1 1 22,0 z"
       transform="matrix(0.356928,0,0,0.356928,-166.68518,708.29643)" />
    <path
       sodipodi:type="arc"
       style="fill:none;stroke:#ff0000;stroke-width:4.60500002;stroke-miterlimit:4;stroke-opacity:1;stroke-dasharray:none"
       id="path4025-1"
       sodipodi:cx="844.28571"
       sodipodi:cy="363.07648"
       sodipodi:rx="190"
       sodipodi:ry="160.71428"
       d="m 1034.2857,363.07648 a 190,160.71428 0 1 1 -379.99999,0 190,160.71428 0 1 1 379.99999,0 z"
       transform="matrix(0.10101172,0,0,0.10831391,127.00865,535.80857)" />
    <path
       style="fill:#000000;fill-opacity:1;stroke:#000000;stroke-width:3.56927967;stroke-linecap:butt;stroke-linejoin:miter;stroke-miterlimit:4;stroke-opacity:1;stroke-dasharray:none"
       d="m 247.28266,618.34858 c -65.54584,0.41766 -82.33842,-40.89491 -73.11942,-78.30007 -6.13625,-1.80142 -15.56944,-29.07771 -9.41118,-42.02614 14.30628,-6.74287 35.415,7.03235 43.42743,11.57312 21.40886,-13.87471 58.22137,-13.95031 77.97928,-1.70919 7.35915,-3.43388 24.20247,-16.44734 42.56019,-10.96789 10.53007,14.61057 0.37257,38.08134 -10.623,42.85451 15.09281,42.86853 -9.44814,78.43042 -70.8133,78.57566 z"
       id="path4027-6"
       inkscape:connector-curvature="0"
       sodipodi:nodetypes="cccccccc" />
    <path
       style="fill:#cc0000;fill-opacity:1;stroke:#cc0000;stroke-width:0.11823642px;stroke-linecap:butt;stroke-linejoin:miter;stroke-opacity:1"
       d="m 179.28372,536.50197 c -8.97557,-11.03583 -13.79074,-28.88021 -8.44322,-30.42862 5.34753,-1.54841 14.73901,0.4517 28.05801,8.19902 l -11.84698,9.58511 z"
       id="path4123-8"
       inkscape:connector-curvature="0"
       sodipodi:nodetypes="csccc" />
    <path
       style="fill:#cc0000;fill-opacity:1;stroke:#cc0000;stroke-width:0.11823642px;stroke-linecap:butt;stroke-linejoin:miter;stroke-opacity:1"
       d="m 312.87541,535.52321 c 8.97555,-11.03583 13.79074,-28.8802 8.44321,-30.42862 -5.34752,-1.54842 -14.73901,0.45169 -28.05799,8.19901 l 11.84697,9.58512 z"
       id="path4123-2-5"
       inkscape:connector-curvature="0"
       sodipodi:nodetypes="csccc" />
    <path
       style="fill:#000000;fill-opacity:1;stroke:#000000;stroke-width:0.66089129;stroke-miterlimit:4;stroke-opacity:1;stroke-dasharray:none"
       d="m 149.88371,581.06656 c -0.0742,-0.0788 -0.13525,-0.31981 -0.13525,-0.53567 0,-0.38081 0.082,-0.39609 2.7492,-0.51167 1.51208,-0.0655 6.74457,-0.17256 11.62781,-0.23785 l 8.87858,-0.11882 0,0.54157 0,0.54154 -7.4364,0.12077 c -4.09001,0.0664 -9.26165,0.17082 -11.49257,0.232 -2.23092,0.0611 -4.11705,0.0467 -4.19141,-0.0321 z"
       id="path4488-7"
       inkscape:connector-curvature="0" />
    <path
       style="fill:#000000;fill-opacity:1;stroke:#000000;stroke-width:0.66089129;stroke-miterlimit:4;stroke-opacity:1;stroke-dasharray:none"
       d="m 157.37474,597.88377 c -0.16654,-0.36551 -0.16159,-0.49546 0.0233,-0.61384 0.48359,-0.30944 6.71104,-2.89692 10.16803,-4.22472 3.22034,-1.23689 10.32997,-3.68007 10.70901,-3.68007 0.082,0 0.22352,0.22255 0.31422,0.49455 l 0.16484,0.49459 -3.89056,1.28021 c -5.04092,1.65874 -10.64519,3.82279 -16.44303,6.34929 l -0.83454,0.36367 -0.21128,-0.46368 z"
       id="path4490-1-6"
       inkscape:connector-curvature="0" />
    <path
       style="fill:#000000;fill-opacity:1;stroke:#000000;stroke-width:0.66089129;stroke-miterlimit:4;stroke-opacity:1;stroke-dasharray:none"
       d="m 344.68142,581.49146 c 0.0742,-0.0787 0.13525,-0.31982 0.13525,-0.53569 0,-0.38076 -0.082,-0.39605 -2.74919,-0.51162 -1.51208,-0.0655 -6.74457,-0.17257 -11.6278,-0.2379 l -8.87858,-0.11869 0,0.54154 0,0.54157 7.43639,0.12077 c 4.08999,0.0664 9.26165,0.17086 11.49257,0.23201 2.23091,0.0614 4.11704,0.0467 4.19142,-0.0321 z"
       id="path4488-4-1"
       inkscape:connector-curvature="0" />
    <path
       style="fill:#000000;fill-opacity:1;stroke:#000000;stroke-width:0.66089129;stroke-miterlimit:4;stroke-opacity:1;stroke-dasharray:none"
       d="m 337.19038,598.30869 c 0.16654,-0.36554 0.1616,-0.4955 -0.0234,-0.61381 -0.48358,-0.30951 -6.71105,-2.89697 -10.16803,-4.22479 -3.22034,-1.23689 -10.32996,-3.68006 -10.70901,-3.68006 -0.082,0 -0.22352,0.22258 -0.31421,0.4946 l -0.16486,0.49456 3.89058,1.28023 c 5.04091,1.65874 10.64521,3.82276 16.44302,6.34927 l 0.83455,0.36368 0.21128,-0.46368 z"
       id="path4490-1-9-8"
       inkscape:connector-curvature="0" />
    <path
       sodipodi:type="arc"
       style="fill:#cc0000;fill-opacity:1;stroke:#cc0000;stroke-width:3.4000001;stroke-miterlimit:4;stroke-opacity:1;stroke-dasharray:none"
       id="path3804-0-9"
       sodipodi:cx="277"
       sodipodi:cy="183.86217"
       sodipodi:rx="11"
       sodipodi:ry="11.5"
       d="m 288,183.86217 a 11,11.5 0 1 1 -22,0 11,11.5 0 1 1 22,0 z"
       transform="matrix(0.50055236,0,0,0.41818303,111.53336,517.88234)" />
    <path
       sodipodi:type="arc"
       style="fill:#ffffff;fill-opacity:1;stroke:#000000;stroke-width:3.4000001;stroke-miterlimit:4;stroke-opacity:1;stroke-dasharray:none"
       id="path3784-9-4-6-8-2"
       sodipodi:cx="300.5"
       sodipodi:cy="121.86217"
       sodipodi:rx="41.5"
       sodipodi:ry="42.5"
       d="m 342,121.86217 a 41.5,42.5 0 1 1 -83,0 41.5,42.5 0 1 1 83,0 z"
       transform="matrix(0.43474262,0,0,0.38557444,145.85037,524.75215)" />
    <path
       sodipodi:type="arc"
       style="fill:#ffffff;fill-opacity:1;stroke:#000000;stroke-width:3.4000001;stroke-miterlimit:4;stroke-opacity:1;stroke-dasharray:none"
       id="path3784-9-4-6-8-5-7"
       sodipodi:cx="300.5"
       sodipodi:cy="121.86217"
       sodipodi:rx="41.5"
       sodipodi:ry="42.5"
       d="m 342,121.86217 a 41.5,42.5 0 1 1 -83,0 41.5,42.5 0 1 1 83,0 z"
       transform="matrix(-0.43474262,0,0,0.38557444,353.46506,525.06165)" />
    <path
       sodipodi:type="arc"
       style="fill:#000000;fill-opacity:1;stroke:#000000;stroke-width:3.4000001;stroke-miterlimit:4;stroke-opacity:1;stroke-dasharray:none"
       id="path3804-76-9"
       sodipodi:cx="277"
       sodipodi:cy="183.86217"
       sodipodi:rx="11"
       sodipodi:ry="11.5"
       d="m 288,183.86217 a 11,11.5 0 1 1 -22,0 11,11.5 0 1 1 22,0 z"
       transform="matrix(0.356928,0,0,0.356928,132.3127,508.89917)" />
    <path
       sodipodi:type="arc"
       style="fill:#000000;fill-opacity:1;stroke:#000000;stroke-width:3.4000001;stroke-miterlimit:4;stroke-opacity:1;stroke-dasharray:none"
       id="path3804-76-1-5"
       sodipodi:cx="277"
       sodipodi:cy="183.86217"
       sodipodi:rx="11"
       sodipodi:ry="11.5"
       d="m 288,183.86217 a 11,11.5 0 1 1 -22,0 11,11.5 0 1 1 22,0 z"
       transform="matrix(0.356928,0,0,0.356928,169.57412,508.28012)" />
    <path
       sodipodi:type="arc"
       style="fill:none;stroke:#ff0000;stroke-width:4.60500002;stroke-miterlimit:4;stroke-opacity:1;stroke-dasharray:none"
       id="path4025-1-4"
       sodipodi:cx="844.28571"
       sodipodi:cy="363.07648"
       sodipodi:rx="190"
       sodipodi:ry="160.71428"
       d="m 1034.2857,363.07648 a 190,160.71428 0 1 1 -379.99999,0 190,160.71428 0 1 1 379.99999,0 z"
       transform="matrix(0.10101172,0,0,0.10831391,-255.63114,544.50494)" />
    <path
       style="fill:#000000;fill-opacity:1;stroke:#000000;stroke-width:3.56927967;stroke-linecap:butt;stroke-linejoin:miter;stroke-miterlimit:4;stroke-opacity:1;stroke-dasharray:none"
       d="m -135.35721,627.04493 c -65.54584,0.41766 -82.33842,-40.89492 -73.11942,-78.30007 -6.13625,-1.80142 -15.56944,-29.07771 -9.41118,-42.02615 14.30628,-6.74287 35.41499,7.03236 43.42744,11.57313 21.40884,-13.87471 58.22135,-13.95033 77.979254,-1.70919 7.359144,-3.43388 24.202464,-16.44734 42.560201,-10.96789 10.530062,14.61057 0.372559,38.08133 -10.623007,42.85451 15.092813,42.86852 -9.44814,78.43042 -70.813288,78.57566 z"
       id="path4027-6-3"
       inkscape:connector-curvature="0"
       sodipodi:nodetypes="cccccccc" />
    <path
       style="fill:#cc0000;fill-opacity:1;stroke:#cc0000;stroke-width:0.11823642px;stroke-linecap:butt;stroke-linejoin:miter;stroke-opacity:1"
       d="m -203.35615,545.1983 c -8.97556,-11.03583 -13.79074,-28.8802 -8.44321,-30.4286 5.34752,-1.54841 14.73901,0.4517 28.058,8.19902 l -11.84698,9.58511 z"
       id="path4123-8-1"
       inkscape:connector-curvature="0"
       sodipodi:nodetypes="csccc" />
    <path
       style="fill:#cc0000;fill-opacity:1;stroke:#cc0000;stroke-width:0.11823642px;stroke-linecap:butt;stroke-linejoin:miter;stroke-opacity:1"
       d="m -69.764478,544.21955 c 8.975554,-11.03583 13.790743,-28.88021 8.443219,-30.42861 -5.347524,-1.54843 -14.739004,0.45169 -28.057988,8.199 l 11.846968,9.58512 z"
       id="path4123-2-5-2"
       inkscape:connector-curvature="0"
       sodipodi:nodetypes="csccc" />
    <path
       style="fill:#000000;fill-opacity:1;stroke:#000000;stroke-width:0.66089129;stroke-miterlimit:4;stroke-opacity:1;stroke-dasharray:none"
       d="m -232.75616,589.7629 c -0.0742,-0.0788 -0.13525,-0.31981 -0.13525,-0.53566 0,-0.38081 0.082,-0.39609 2.7492,-0.51167 1.51208,-0.0655 6.74457,-0.17256 11.62781,-0.23785 l 8.87859,-0.11882 0,0.54157 0,0.54154 -7.43641,0.12077 c -4.09,0.0664 -9.26165,0.17082 -11.49257,0.232 -2.23092,0.0611 -4.11705,0.0467 -4.19141,-0.0321 z"
       id="path4488-7-3"
       inkscape:connector-curvature="0" />
    <path
       style="fill:#000000;fill-opacity:1;stroke:#000000;stroke-width:0.66089129;stroke-miterlimit:4;stroke-opacity:1;stroke-dasharray:none"
       d="m -225.26513,606.58012 c -0.16654,-0.36551 -0.16159,-0.49546 0.0233,-0.61384 0.48359,-0.30944 6.71104,-2.89692 10.16803,-4.22472 3.22035,-1.2369 10.32997,-3.68008 10.70901,-3.68008 0.082,0 0.22352,0.22256 0.31422,0.49456 l 0.16484,0.49459 -3.89056,1.28021 c -5.04092,1.65874 -10.64519,3.82279 -16.44302,6.34929 l -0.83455,0.36366 -0.21128,-0.46367 z"
       id="path4490-1-6-3"
       inkscape:connector-curvature="0" />
    <path
       style="fill:#000000;fill-opacity:1;stroke:#000000;stroke-width:0.66089129;stroke-miterlimit:4;stroke-opacity:1;stroke-dasharray:none"
       d="m -37.958465,590.18781 c 0.07426,-0.0786 0.135252,-0.31982 0.135252,-0.53569 0,-0.38077 -0.08206,-0.39606 -2.749188,-0.51162 -1.512076,-0.0655 -6.744566,-0.17259 -11.627803,-0.2379 l -8.878584,-0.11869 0,0.54154 0,0.54157 7.436395,0.12077 c 4.089993,0.0664 9.261658,0.17084 11.492567,0.232 2.230909,0.0614 4.117043,0.0467 4.191424,-0.0321 z"
       id="path4488-4-1-4"
       inkscape:connector-curvature="0" />
    <path
       style="fill:#000000;fill-opacity:1;stroke:#000000;stroke-width:0.66089129;stroke-miterlimit:4;stroke-opacity:1;stroke-dasharray:none"
       d="m -45.449507,607.00502 c 0.166546,-0.36552 0.161601,-0.49548 -0.0234,-0.61379 -0.483568,-0.30951 -6.711042,-2.89699 -10.168033,-4.22479 -3.220323,-1.2369 -10.329945,-3.68006 -10.70901,-3.68006 -0.08206,0 -0.223517,0.22256 -0.314199,0.4946 l -0.164861,0.49455 3.890577,1.28022 c 5.040906,1.65875 10.645206,3.82277 16.443024,6.34928 l 0.834554,0.36369 0.21127,-0.4637 z"
       id="path4490-1-9-8-1"
       inkscape:connector-curvature="0" />
    <path
       sodipodi:type="arc"
       style="fill:#cc0000;fill-opacity:1;stroke:#cc0000;stroke-width:3.4000001;stroke-miterlimit:4;stroke-opacity:1;stroke-dasharray:none"
       id="path3804-0-9-1"
       sodipodi:cx="277"
       sodipodi:cy="183.86217"
       sodipodi:rx="11"
       sodipodi:ry="11.5"
       d="m 288,183.86217 a 11,11.5 0 1 1 -22,0 11,11.5 0 1 1 22,0 z"
       transform="matrix(0.50055236,0,0,0.41818303,-271.1065,526.57869)" />
    <path
       sodipodi:type="arc"
       style="fill:#ffffff;fill-opacity:1;stroke:#000000;stroke-width:3.4000001;stroke-miterlimit:4;stroke-opacity:1;stroke-dasharray:none"
       id="path3784-9-4-6-8-2-3"
       sodipodi:cx="300.5"
       sodipodi:cy="121.86217"
       sodipodi:rx="41.5"
       sodipodi:ry="42.5"
       d="m 342,121.86217 a 41.5,42.5 0 1 1 -83,0 41.5,42.5 0 1 1 83,0 z"
       transform="matrix(0.43474262,0,0,0.38557444,-236.78946,533.44851)" />
    <path
       sodipodi:type="arc"
       style="fill:#ffffff;fill-opacity:1;stroke:#000000;stroke-width:3.4000001;stroke-miterlimit:4;stroke-opacity:1;stroke-dasharray:none"
       id="path3784-9-4-6-8-5-7-8"
       sodipodi:cx="300.5"
       sodipodi:cy="121.86217"
       sodipodi:rx="41.5"
       sodipodi:ry="42.5"
       d="m 342,121.86217 a 41.5,42.5 0 1 1 -83,0 41.5,42.5 0 1 1 83,0 z"
       transform="matrix(-0.43474262,0,0,0.38557444,-29.174838,533.75802)" />
    <path
       sodipodi:type="arc"
       style="fill:#000000;fill-opacity:1;stroke:#000000;stroke-width:3.4000001;stroke-miterlimit:4;stroke-opacity:1;stroke-dasharray:none"
       id="path3804-76-9-7"
       sodipodi:cx="277"
       sodipodi:cy="183.86217"
       sodipodi:rx="11"
       sodipodi:ry="11.5"
       d="m 288,183.86217 a 11,11.5 0 1 1 -22,0 11,11.5 0 1 1 22,0 z"
       transform="matrix(0.356928,0,0,0.356928,-250.32714,517.59553)" />
    <path
       sodipodi:type="arc"
       style="fill:#000000;fill-opacity:1;stroke:#000000;stroke-width:3.4000001;stroke-miterlimit:4;stroke-opacity:1;stroke-dasharray:none"
       id="path3804-76-1-5-4"
       sodipodi:cx="277"
       sodipodi:cy="183.86217"
       sodipodi:rx="11"
       sodipodi:ry="11.5"
       d="m 288,183.86217 a 11,11.5 0 1 1 -22,0 11,11.5 0 1 1 22,0 z"
       transform="matrix(0.356928,0,0,0.356928,-213.06576,516.97649)" />
    <flowRoot
       xml:space="preserve"
       id="flowRoot3300"
       style="fill:black;stroke:none;stroke-opacity:1;stroke-width:1px;stroke-linejoin:miter;stroke-linecap:butt;fill-opacity:1;font-family:Sans;font-style:normal;font-weight:normal;font-size:40px;line-height:125%;letter-spacing:0px;word-spacing:0px"><flowRegion
         id="flowRegion3302"><rect
           id="rect3304"
           width="393.93771"
           height="276.87131"
           x="655.94342"
           y="147.08769" /></flowRegion><flowPara
         id="flowPara3306"></flowPara></flowRoot>    <flowRoot
       xml:space="preserve"
       id="flowRoot3308"
       style="fill:black;stroke:none;stroke-opacity:1;stroke-width:1px;stroke-linejoin:miter;stroke-linecap:butt;fill-opacity:1;font-family:Sans;font-style:normal;font-weight:normal;font-size:40px;line-height:125%;letter-spacing:0px;word-spacing:0px"><flowRegion
         id="flowRegion3310"><rect
           id="rect3312"
           width="252.71475"
           height="230.4164"
           x="758.14429"
           y="336.62378" /></flowRegion><flowPara
         id="flowPara3314"></flowPara></flowRoot>  </g>
</svg>
