<?xml version="1.0" encoding="UTF-8" standalone="no"?>
<!-- Created with Inkscape (http://www.inkscape.org/) -->

<svg
   xmlns:dc="http://purl.org/dc/elements/1.1/"
   xmlns:cc="http://creativecommons.org/ns#"
   xmlns:rdf="http://www.w3.org/1999/02/22-rdf-syntax-ns#"
   xmlns:svg="http://www.w3.org/2000/svg"
   xmlns="http://www.w3.org/2000/svg"
   xmlns:sodipodi="http://sodipodi.sourceforge.net/DTD/sodipodi-0.dtd"
   xmlns:inkscape="http://www.inkscape.org/namespaces/inkscape"
   width="658.1507"
   height="561.10468"
   id="svg2"
   version="1.1"
   inkscape:version="0.48.4 r9939"
   sodipodi:docname="redBlackCat12.svg">
  <defs
     id="defs4" />
  <sodipodi:namedview
     id="base"
     pagecolor="#ffffff"
     bordercolor="#666666"
     borderopacity="1.0"
     inkscape:pageopacity="0.0"
     inkscape:pageshadow="2"
     inkscape:zoom="0.81542968"
     inkscape:cx="81.048932"
     inkscape:cy="268.15148"
     inkscape:document-units="px"
     inkscape:current-layer="layer1"
     showgrid="false"
     inkscape:window-width="1920"
     inkscape:window-height="1020"
     inkscape:window-x="-4"
     inkscape:window-y="-4"
     inkscape:window-maximized="1"
     showguides="true"
     inkscape:guide-bbox="true"
     fit-margin-top="0"
     fit-margin-left="0"
     fit-margin-right="0"
     fit-margin-bottom="0" />
  <metadata
     id="metadata7">
    <rdf:RDF>
      <cc:Work
         rdf:about="">
        <dc:format>image/svg+xml</dc:format>
        <dc:type
           rdf:resource="http://purl.org/dc/dcmitype/StillImage" />
        <dc:title />
      </cc:Work>
    </rdf:RDF>
  </metadata>
  <g
     inkscape:label="Layer 1"
     inkscape:groupmode="layer"
     id="layer1"
     transform="translate(-35.31516,-153.77779)">
    <path
       sodipodi:type="arc"
       style="fill:none;stroke:#ff0000;stroke-width:4.60500002;stroke-miterlimit:4;stroke-opacity:1;stroke-dasharray:none"
       id="path4025"
       sodipodi:cx="844.28571"
       sodipodi:cy="363.07648"
       sodipodi:rx="190"
       sodipodi:ry="160.71428"
       d="m 1034.2857,363.07648 c 0,88.76004 -85.06589,160.71428 -189.99999,160.71428 -104.93411,0 -190,-71.95424 -190,-160.71428 0,-88.76005 85.06589,-160.71428 190,-160.71428 104.9341,0 189.99999,71.95423 189.99999,160.71428 z"
       transform="matrix(0.2830031,0,0,0.30346149,51.800189,351.6225)" />
    <path
       style="fill:#000000;fill-opacity:1;stroke:#ffffff;stroke-width:10;stroke-linecap:butt;stroke-linejoin:miter;stroke-miterlimit:4;stroke-opacity:1;stroke-dasharray:none"
       d="M 388.77011,582.87367 C 205.13134,584.04374 158.08378,468.29893 183.91255,363.50147 166.7207,358.45445 140.29183,282.03482 157.54534,245.75741 c 40.0817,-18.89139 99.22168,19.70244 121.67004,32.42423 59.98083,-38.87256 163.11794,-39.08438 218.47335,-4.7886 20.61802,-9.62066 67.80773,-46.08027 119.2403,-30.72857 29.50195,40.93426 1.0438,106.69197 -29.76233,120.06489 42.28531,120.1041 -26.4707,219.73737 -198.39659,220.14431 z"
       id="path4027"
       inkscape:connector-curvature="0"
       sodipodi:nodetypes="cccccccc" />
    <path
       style="fill:#cc0000;fill-opacity:1;stroke:#cc0000;stroke-width:0.33126122px;stroke-linecap:butt;stroke-linejoin:miter;stroke-opacity:1"
       d="m 198.25849,353.56517 c -25.14671,-30.91893 -38.63734,-80.91324 -23.65525,-85.25143 14.98209,-4.33818 41.29406,1.26548 78.6097,22.97106 l -33.1915,26.85446 z"
       id="path4123"
       inkscape:connector-curvature="0"
       sodipodi:nodetypes="csccc" />
    <path
       style="fill:#cc0000;fill-opacity:1;stroke:#cc0000;stroke-width:0.33126122px;stroke-linecap:butt;stroke-linejoin:miter;stroke-opacity:1"
       d="m 572.54036,350.82297 c 25.14671,-30.91893 38.63734,-80.91324 23.65525,-85.25143 -14.98209,-4.33818 -41.29406,1.26548 -78.6097,22.97106 l 33.1915,26.85446 z"
       id="path4123-2"
       inkscape:connector-curvature="0"
       sodipodi:nodetypes="csccc" />
    <path
       style="fill:#000000;fill-opacity:1;stroke:#ff0000;stroke-width:5.23714256;stroke-miterlimit:4;stroke-opacity:1;stroke-dasharray:none"
       d=""
       id="path4486"
       inkscape:connector-curvature="0" />
    <path
       style="fill:#ffffff;fill-opacity:1;stroke:#ffffff;stroke-width:1.85160959000000000;stroke-miterlimit:4;stroke-opacity:1;stroke-dasharray:none"
       d="m 115.88891,478.4211 c -0.20834,-0.22064 -0.3788,-0.896 -0.3788,-1.50081 0,-1.06683 0.22995,-1.10962 7.70241,-1.43345 4.23633,-0.18358 18.89616,-0.48348 32.57742,-0.66644 l 24.875,-0.33265 0,1.51726 0,1.51726 -20.83439,0.33845 c -11.45892,0.18615 -25.9483,0.47865 -32.19861,0.64999 -6.25032,0.17135 -11.53468,0.13103 -11.74303,-0.0896 z"
       id="path4488"
       inkscape:connector-curvature="0" />
    <path
       style="fill:#ffffff;fill-opacity:1;stroke:#ffffff;stroke-width:1.85160959000000000;stroke-miterlimit:4;stroke-opacity:1;stroke-dasharray:none"
       d="m 151.40566,561.65384 c -0.46659,-1.02404 -0.45276,-1.38813 0.0653,-1.71967 1.35485,-0.86708 18.80223,-8.11637 28.48763,-11.83646 9.02235,-3.46541 28.9413,-10.31041 30.00329,-10.31041 0.23012,0 0.62624,0.62354 0.88028,1.38564 l 0.46188,1.38564 -10.90013,3.58677 c -14.12305,4.6473 -29.8245,10.71023 -46.06821,17.7887 l -2.33813,1.01888 -0.5919,-1.29909 z"
       id="path4490"
       inkscape:connector-curvature="0" />
    <path
       style="fill:#ffffff;fill-opacity:1;stroke:#ffffff;stroke-width:1.85160959000000000;stroke-miterlimit:4;stroke-opacity:1;stroke-dasharray:none"
       d="m 129.88341,525.53765 c -0.46659,-1.02404 -0.45276,-1.38813 0.0653,-1.71967 1.35485,-0.86708 18.80223,-8.11637 28.48763,-11.83646 9.02235,-3.46541 28.9413,-10.31041 30.00329,-10.31041 0.23012,0 0.62624,0.62354 0.88028,1.38564 l 0.46188,1.38564 -10.90013,3.58677 c -14.12305,4.6473 -29.8245,10.71023 -46.06821,17.7887 l -2.33813,1.01888 -0.5919,-1.29909 z"
       id="path4490-1"
       inkscape:connector-curvature="0" />
    <path
       style="fill:#ffffff;fill-opacity:1;stroke:#ffffff;stroke-width:1.85160959000000000;stroke-miterlimit:4;stroke-opacity:1;stroke-dasharray:none"
       d="m 661.6508,479.61155 c 0.20834,-0.22064 0.3788,-0.896 0.3788,-1.50081 0,-1.06683 -0.22995,-1.10962 -7.70241,-1.43345 -4.23633,-0.18358 -18.89616,-0.48348 -32.57742,-0.66644 l -24.875,-0.33265 0,1.51726 0,1.51726 20.83439,0.33845 c 11.45892,0.18615 25.9483,0.47865 32.19861,0.64999 6.25032,0.17135 11.53468,0.13103 11.74303,-0.0896 z"
       id="path4488-4"
       inkscape:connector-curvature="0" />
    <path
       style="fill:#ffffff;fill-opacity:1;stroke:#ffffff;stroke-width:1.85160959000000000;stroke-miterlimit:4;stroke-opacity:1;stroke-dasharray:none"
       d="m 626.13405,562.84429 c 0.46659,-1.02404 0.45276,-1.38813 -0.0653,-1.71967 -1.35485,-0.86708 -18.80223,-8.11637 -28.48763,-11.83646 -9.02235,-3.46541 -28.9413,-10.31041 -30.00329,-10.31041 -0.23012,0 -0.62624,0.62354 -0.88028,1.38564 l -0.46188,1.38564 10.90013,3.58677 c 14.12305,4.6473 29.8245,10.71023 46.06821,17.7887 l 2.33813,1.01888 0.5919,-1.29909 z"
       id="path4490-0"
       inkscape:connector-curvature="0" />
    <path
       style="fill:#ffffff;fill-opacity:1;stroke:#ffffff;stroke-width:1.85160959000000000;stroke-miterlimit:4;stroke-opacity:1;stroke-dasharray:none"
       d="m 647.6563,526.7281 c 0.46659,-1.02404 0.45276,-1.38813 -0.0653,-1.71967 -1.35485,-0.86708 -18.80223,-8.11637 -28.48763,-11.83646 -9.02235,-3.46541 -28.9413,-10.31041 -30.00329,-10.31041 -0.23012,0 -0.62624,0.62354 -0.88028,1.38564 l -0.46188,1.38564 10.90013,3.58677 c 14.12305,4.6473 29.8245,10.71023 46.06821,17.7887 l 2.33813,1.01888 0.5919,-1.29909 z"
       id="path4490-1-9"
       inkscape:connector-curvature="0" />
    <path
       sodipodi:type="arc"
       style="fill:#cc0000;fill-opacity:1;stroke:#ffffff;stroke-width:8.12345728;stroke-miterlimit:4;stroke-opacity:1;stroke-dasharray:none"
       id="path3784"
       sodipodi:cx="300.5"
       sodipodi:cy="121.86217"
       sodipodi:rx="41.5"
       sodipodi:ry="42.5"
       d="m 342,121.86217 c 0,23.4721 -18.58018,42.5 -41.5,42.5 -22.91982,0 -41.5,-19.0279 -41.5,-42.5 0,-23.472105 18.58018,-42.500003 41.5,-42.500003 22.91982,0 41.5,19.027898 41.5,42.500003 z"
       transform="matrix(1.2860426,0,0,1.1783189,-253.02167,512.45891)" />
    <path
       sodipodi:type="arc"
       style="fill:#000000;fill-opacity:1;stroke:#ffffff;stroke-width:8.4085837;stroke-miterlimit:4;stroke-opacity:1;stroke-dasharray:none"
       id="path3784-1"
       sodipodi:cx="300.5"
       sodipodi:cy="121.86217"
       sodipodi:rx="41.5"
       sodipodi:ry="42.5"
       d="m 342,121.86217 c 0,23.4721 -18.58018,42.5 -41.5,42.5 -22.91982,0 -41.5,-19.0279 -41.5,-42.5 0,-23.472105 18.58018,-42.500003 41.5,-42.500003 22.91982,0 41.5,19.027898 41.5,42.500003 z"
       transform="matrix(1.2286514,0,0,1.1511333,250.58426,497.75323)" />
    <path
       sodipodi:type="arc"
       style="fill:#cc0000;fill-opacity:1;stroke:#cc0000;stroke-width:3.4000001;stroke-miterlimit:4;stroke-opacity:1;stroke-dasharray:none"
       id="path3804-0"
       sodipodi:cx="277"
       sodipodi:cy="183.86217"
       sodipodi:rx="11"
       sodipodi:ry="11.5"
       d="m 288,183.86217 a 11,11.5 0 1 1 -22,0 11,11.5 0 1 1 22,0 z"
       transform="matrix(1.4023903,0,0,1.1716173,8.4432652,301.39877)" />
    <path
       sodipodi:type="arc"
       style="fill:#000000;fill-opacity:1;stroke:#ffffff;stroke-width:10;stroke-miterlimit:4;stroke-opacity:1;stroke-dasharray:none"
       id="path3784-9"
       sodipodi:cx="300.5"
       sodipodi:cy="121.86217"
       sodipodi:rx="41.5"
       sodipodi:ry="42.5"
       d="m 342,121.86217 c 0,23.4721 -18.58018,42.5 -41.5,42.5 -22.91982,0 -41.5,-19.0279 -41.5,-42.5 0,-23.472105 18.58018,-42.500003 41.5,-42.500003 22.91982,0 41.5,19.027898 41.5,42.500003 z"
       transform="translate(-214.93234,211.37785)" />
    <path
       sodipodi:type="arc"
       style="fill:#cc0000;fill-opacity:1;stroke:#ffffff;stroke-width:11.82548494;stroke-miterlimit:4;stroke-opacity:1;stroke-dasharray:none"
       id="path3784-9-4"
       sodipodi:cx="300.5"
       sodipodi:cy="121.86217"
       sodipodi:rx="41.5"
       sodipodi:ry="42.5"
       d="m 342,121.86217 c 0,23.4721 -18.58018,42.5 -41.5,42.5 -22.91982,0 -41.5,-19.0279 -41.5,-42.5 0,-23.472105 18.58018,-42.500003 41.5,-42.500003 22.91982,0 41.5,19.027898 41.5,42.500003 z"
       transform="matrix(0.84379558,0,0,0.84747098,394.13525,93.273156)" />
    <path
       sodipodi:type="arc"
       style="fill:#ffffff;fill-opacity:1;stroke:#000000;stroke-width:3.4000001;stroke-miterlimit:4;stroke-opacity:1;stroke-dasharray:none"
       id="path3784-9-4-6-8"
       sodipodi:cx="300.5"
       sodipodi:cy="121.86217"
       sodipodi:rx="41.5"
       sodipodi:ry="42.5"
       d="m 342,121.86217 c 0,23.4721 -18.58018,42.5 -41.5,42.5 -22.91982,0 -41.5,-19.0279 -41.5,-42.5 0,-23.472105 18.58018,-42.500003 41.5,-42.500003 22.91982,0 41.5,19.027898 41.5,42.500003 z"
       transform="matrix(1.2180121,0,0,1.0802583,104.58875,320.64589)" />
    <path
       sodipodi:type="arc"
       style="fill:#ffffff;fill-opacity:1;stroke:#000000;stroke-width:3.4000001;stroke-miterlimit:4;stroke-opacity:1;stroke-dasharray:none"
       id="path3784-9-4-6-8-5"
       sodipodi:cx="300.5"
       sodipodi:cy="121.86217"
       sodipodi:rx="41.5"
       sodipodi:ry="42.5"
       d="m 342,121.86217 c 0,23.4721 -18.58018,42.5 -41.5,42.5 -22.91982,0 -41.5,-19.0279 -41.5,-42.5 0,-23.472105 18.58018,-42.500003 41.5,-42.500003 22.91982,0 41.5,19.027898 41.5,42.500003 z"
       transform="matrix(-1.2180121,0,0,1.0802583,686.25981,321.51303)" />
    <path
       sodipodi:type="arc"
       style="fill:#000000;fill-opacity:1;stroke:#000000;stroke-width:3.4000001;stroke-miterlimit:4;stroke-opacity:1;stroke-dasharray:none"
       id="path3804-76"
       sodipodi:cx="277"
       sodipodi:cy="183.86217"
       sodipodi:rx="11"
       sodipodi:ry="11.5"
       d="m 288,183.86217 c 0,6.35127 -4.92487,11.5 -11,11.5 -6.07513,0 -11,-5.14873 -11,-11.5 0,-6.35128 4.92487,-11.5 11,-11.5 6.07513,0 11,5.14872 11,11.5 z"
       transform="translate(66.66045,276.23076)" />
    <path
       sodipodi:type="arc"
       style="fill:#000000;fill-opacity:1;stroke:#000000;stroke-width:3.4000001;stroke-miterlimit:4;stroke-opacity:1;stroke-dasharray:none"
       id="path3804-76-1"
       sodipodi:cx="277"
       sodipodi:cy="183.86217"
       sodipodi:rx="11"
       sodipodi:ry="11.5"
       d="m 288,183.86217 c 0,6.35127 -4.92487,11.5 -11,11.5 -6.07513,0 -11,-5.14873 -11,-11.5 0,-6.35128 4.92487,-11.5 11,-11.5 6.07513,0 11,5.14872 11,11.5 z"
       transform="translate(171.05526,274.49644)" />
  </g>
</svg>
