<?xml version="1.0" encoding="UTF-8" standalone="no"?>
<!-- Created with Inkscape (http://www.inkscape.org/) -->

<svg
   xmlns:dc="http://purl.org/dc/elements/1.1/"
   xmlns:cc="http://creativecommons.org/ns#"
   xmlns:rdf="http://www.w3.org/1999/02/22-rdf-syntax-ns#"
   xmlns:svg="http://www.w3.org/2000/svg"
   xmlns="http://www.w3.org/2000/svg"
   xmlns:sodipodi="http://sodipodi.sourceforge.net/DTD/sodipodi-0.dtd"
   xmlns:inkscape="http://www.inkscape.org/namespaces/inkscape"
   width="744.09448819"
   height="1052.3622047"
   id="svg2"
   version="1.1"
   inkscape:version="0.48.4 r9939"
   sodipodi:docname="redBlackCat5.svg">
  <defs
     id="defs4" />
  <sodipodi:namedview
     id="base"
     pagecolor="#ffffff"
     bordercolor="#666666"
     borderopacity="1.0"
     inkscape:pageopacity="0.0"
     inkscape:pageshadow="2"
     inkscape:zoom="0.99999999"
     inkscape:cx="425.63657"
     inkscape:cy="695.82212"
     inkscape:document-units="px"
     inkscape:current-layer="layer1"
     showgrid="false"
     inkscape:window-width="1920"
     inkscape:window-height="1020"
     inkscape:window-x="-4"
     inkscape:window-y="-4"
     inkscape:window-maximized="1"
     showguides="true"
     inkscape:guide-bbox="true" />
  <metadata
     id="metadata7">
    <rdf:RDF>
      <cc:Work
         rdf:about="">
        <dc:format>image/svg+xml</dc:format>
        <dc:type
           rdf:resource="http://purl.org/dc/dcmitype/StillImage" />
        <dc:title />
      </cc:Work>
    </rdf:RDF>
  </metadata>
  <g
     inkscape:label="Layer 1"
     inkscape:groupmode="layer"
     id="layer1">
    <path
       sodipodi:type="arc"
       style="fill:none;stroke:#ff0000;stroke-width:4.60500002;stroke-miterlimit:4;stroke-opacity:1;stroke-dasharray:none"
       id="path4025"
       sodipodi:cx="844.28571"
       sodipodi:cy="363.07648"
       sodipodi:rx="190"
       sodipodi:ry="160.71428"
       d="m 1034.2857,363.07648 a 190,160.71428 0 1 1 -379.99999,0 190,160.71428 0 1 1 379.99999,0 z"
       transform="matrix(0.2830031,0,0,0.30346149,51.800189,351.6225)" />
    <path
       style="fill:none;stroke:#ff0000;stroke-width:5.50500011;stroke-linecap:butt;stroke-linejoin:miter;stroke-miterlimit:4;stroke-opacity:1;stroke-dasharray:none"
       d="M 382.7,582.87367 C 199.06123,590.98101 140.74061,466.0886 183.91255,379.50147 166.7207,374.45445 140.29183,282.03482 157.54534,245.75741 c 40.0817,-18.89139 99.22168,19.70244 121.67004,32.42423 59.98083,-38.87256 157.04783,-22.00689 218.47335,-6.7886 20.61802,-9.62066 67.80773,-44.08027 119.2403,-28.72857 29.50195,40.93426 1.0438,106.69197 -29.76233,120.06489 C 633.7878,506.24674 558.09453,585.06821 382.7,582.87367 z"
       id="path4027"
       inkscape:connector-curvature="0"
       sodipodi:nodetypes="cccccccc" />
    <path
       sodipodi:type="arc"
       style="fill:none;stroke:#ff0000;stroke-width:4.60500002;stroke-miterlimit:4;stroke-opacity:1;stroke-dasharray:none"
       id="path4025-7"
       sodipodi:cx="844.28571"
       sodipodi:cy="363.07648"
       sodipodi:rx="190"
       sodipodi:ry="160.71428"
       d="m 1034.2857,363.07648 a 190,160.71428 0 1 1 -379.99999,0 190,160.71428 0 1 1 379.99999,0 z"
       transform="matrix(0.2830031,0,0,0.30346149,249.65739,353.05107)" />
    <path
       sodipodi:type="arc"
       style="fill:#ff0000;fill-opacity:1;stroke:#ff0000;stroke-width:4.60500002;stroke-miterlimit:4;stroke-opacity:1;stroke-dasharray:none"
       id="path4025-1"
       sodipodi:cx="844.28571"
       sodipodi:cy="363.07648"
       sodipodi:rx="190"
       sodipodi:ry="160.71428"
       d="m 1034.2857,363.07648 a 190,160.71428 0 1 1 -379.99999,0 190,160.71428 0 1 1 379.99999,0 z"
       transform="matrix(0.09369398,0,0,0.09298937,231.63123,432.32569)" />
    <path
       sodipodi:type="arc"
       style="fill:#ff0000;fill-opacity:1;stroke:#ff0000;stroke-width:4.60500002;stroke-miterlimit:4;stroke-opacity:1;stroke-dasharray:none"
       id="path4025-1-1"
       sodipodi:cx="844.28571"
       sodipodi:cy="363.07648"
       sodipodi:rx="190"
       sodipodi:ry="160.71428"
       d="m 1034.2857,363.07648 a 190,160.71428 0 1 1 -379.99999,0 190,160.71428 0 1 1 379.99999,0 z"
       transform="matrix(0.09369398,0,0,0.09298937,385.20265,428.61141)" />
    <path
       sodipodi:type="arc"
       style="fill:#ff0000;fill-opacity:1;stroke:#ff0000;stroke-width:4.60500002;stroke-miterlimit:4;stroke-opacity:1;stroke-dasharray:none"
       id="path4025-1-1-5"
       sodipodi:cx="844.28571"
       sodipodi:cy="363.07648"
       sodipodi:rx="190"
       sodipodi:ry="160.71428"
       d="m 1034.2857,363.07648 a 190,160.71428 0 1 1 -379.99999,0 190,160.71428 0 1 1 379.99999,0 z"
       transform="matrix(0.09369398,0,0,0.09298937,309.48837,478.03997)" />
    <path
       style="fill:#ff0000;fill-opacity:1;stroke:#ff0000;stroke-width:0.33126122px;stroke-linecap:butt;stroke-linejoin:miter;stroke-opacity:1"
       d="m 198.25849,353.56517 c -25.14671,-30.91893 -38.63734,-80.91324 -23.65525,-85.25143 14.98209,-4.33818 41.29406,1.26548 78.6097,22.97106 l -33.1915,26.85446 z"
       id="path4123"
       inkscape:connector-curvature="0"
       sodipodi:nodetypes="csccc" />
    <path
       style="fill:#ff0000;fill-opacity:1;stroke:#ff0000;stroke-width:0.33126122px;stroke-linecap:butt;stroke-linejoin:miter;stroke-opacity:1"
       d="m 572.54036,350.82297 c 25.14671,-30.91893 38.63734,-80.91324 23.65525,-85.25143 -14.98209,-4.33818 -41.29406,1.26548 -78.6097,22.97106 l 33.1915,26.85446 z"
       id="path4123-2"
       inkscape:connector-curvature="0"
       sodipodi:nodetypes="csccc" />
    <path
       style="fill:none;stroke:#ff0000;stroke-width:3.66599989;stroke-linecap:butt;stroke-linejoin:miter;stroke-miterlimit:4;stroke-opacity:1;stroke-dasharray:none"
       d="m 167.13144,476.12079 c -34.09562,0.0287 -65.64515,1.17521 -65.64515,1.17521"
       id="path4143"
       inkscape:connector-curvature="0"
       sodipodi:nodetypes="cc" />
    <path
       style="fill:none;stroke:#ff0000;stroke-width:3.66599989;stroke-linecap:butt;stroke-linejoin:miter;stroke-miterlimit:4;stroke-opacity:1;stroke-dasharray:none"
       d="m 197.12973,539.07176 c -29.80991,8.60013 -59.93087,22.60378 -59.93087,22.60378"
       id="path4143-7-6-1"
       inkscape:connector-curvature="0"
       sodipodi:nodetypes="cc" />
    <path
       sodipodi:type="arc"
       style="fill:#ff0000;fill-opacity:1;stroke:#ff0000;stroke-width:3.66599989;stroke-miterlimit:4;stroke-opacity:1;stroke-dasharray:none"
       id="path4199-4-2"
       sodipodi:cx="-575.71429"
       sodipodi:cy="281.64789"
       sodipodi:rx="42.857143"
       sodipodi:ry="42.142857"
       d="m -532.85715,281.64789 a 42.857143,42.142857 0 1 1 -85.71429,0 42.857143,42.142857 0 1 1 85.71429,0 z"
       transform="matrix(0.75864161,0,0,-0.8392966,492.49653,549.61692)" />
    <path
       sodipodi:type="arc"
       style="fill:#ff0000;fill-opacity:1;stroke:#ff0000;stroke-width:3.66599989;stroke-miterlimit:4;stroke-opacity:1;stroke-dasharray:none"
       id="path4199-4-2-3"
       sodipodi:cx="-575.71429"
       sodipodi:cy="281.64789"
       sodipodi:rx="42.857143"
       sodipodi:ry="42.142857"
       d="m -532.85715,281.64789 a 42.857143,42.142857 0 1 1 -85.71429,0 42.857143,42.142857 0 1 1 85.71429,0 z"
       transform="matrix(0.75864161,0,0,-0.8392966,804.21082,422.47405)" />
    <path
       sodipodi:type="arc"
       style="fill:#ff0000;fill-opacity:1;stroke:#ff0000;stroke-width:3.66599989;stroke-miterlimit:4;stroke-opacity:1;stroke-dasharray:none"
       id="path4199-4-2-3-2-2-1"
       sodipodi:cx="-575.71429"
       sodipodi:cy="281.64789"
       sodipodi:rx="42.857143"
       sodipodi:ry="42.142857"
       d="m -532.85715,281.64789 a 42.857143,42.142857 0 1 1 -85.71429,0 42.857143,42.142857 0 1 1 85.71429,0 z"
       transform="matrix(1.0809418,0,0,-1.0314664,1310.6208,680.16969)" />
    <path
       sodipodi:type="arc"
       style="fill:#ff0000;fill-opacity:1;stroke:#ff0000;stroke-width:3.66599989;stroke-miterlimit:4;stroke-opacity:1;stroke-dasharray:none"
       id="path4199-4-2-3-2-2-1-6-8-5"
       sodipodi:cx="-575.71429"
       sodipodi:cy="281.64789"
       sodipodi:rx="42.857143"
       sodipodi:ry="42.142857"
       d="m -532.85715,281.64789 a 42.857143,42.142857 0 1 1 -85.71429,0 42.857143,42.142857 0 1 1 85.71429,0 z"
       transform="matrix(1.1158354,0,0,-0.93135826,1131.2035,944.89266)" />
    <path
       sodipodi:type="arc"
       style="fill:#ff0000;fill-opacity:1;stroke:#ff0000;stroke-width:3.66599989;stroke-miterlimit:4;stroke-opacity:1;stroke-dasharray:none"
       id="path4199-4-2-3-2-2-1-6-8-5-7-6"
       sodipodi:cx="-575.71429"
       sodipodi:cy="281.64789"
       sodipodi:rx="42.857143"
       sodipodi:ry="42.142857"
       d="m -532.85715,281.64789 a 42.857143,42.142857 0 1 1 -85.71429,0 42.857143,42.142857 0 1 1 85.71429,0 z"
       transform="matrix(0.90555299,0,0,-0.83615581,774.8393,923.40569)" />
    <path
       sodipodi:type="arc"
       style="fill:#ff0000;fill-opacity:1;stroke:#ff0000;stroke-width:3.66599989;stroke-miterlimit:4;stroke-opacity:1;stroke-dasharray:none"
       id="path4199-4-2-3-2-2-1-6-8-5-7-6-1-8-9"
       sodipodi:cx="-575.71429"
       sodipodi:cy="281.64789"
       sodipodi:rx="42.857143"
       sodipodi:ry="42.142857"
       d="m -532.85715,281.64789 a 42.857143,42.142857 0 1 1 -85.71429,0 42.857143,42.142857 0 1 1 85.71429,0 z"
       transform="matrix(0.76789624,0,0,-0.67989824,485.08304,698.58128)" />
    <path
       style="fill:#000000;fill-opacity:1;stroke:#000000;stroke-width:5.23699999;stroke-miterlimit:4;stroke-opacity:1;stroke-dasharray:none"
       d="m 341.80866,578.80921 c -39.81521,-2.68224 -77.79512,-14.38187 -105.90074,-32.6225 -18.82379,-12.21668 -39.22384,-35.05058 -49.29519,-55.17641 -15.65026,-31.27427 -16.35114,-71.58479 -1.81611,-104.45109 l 3.61759,-8.17999 -4.99088,-4.1139 c -8.55526,-7.05197 -17.98901,-30.56439 -23.8967,-59.5595 -2.2501,-11.04359 -3.10252,-20.52011 -3.15941,-35.12409 -0.0982,-25.19427 1.4966,-30.54948 9.84544,-33.06126 3.14286,-0.94554 10.5936,-1.76857 16.5572,-1.82895 19.92747,-0.20178 43.53063,7.94404 76.89269,26.53686 l 19.16417,10.68028 12.97868,-6.39446 c 15.66329,-7.71714 28.5541,-11.7861 45.7761,-14.44916 38.55515,-5.96182 78.64258,-3.4108 136.0207,8.65589 l 24.5324,5.15919 21.18189,-10.69699 c 26.26192,-13.26245 38.69493,-17.76942 56.26706,-20.39685 13.02364,-1.94732 30.03546,-1.26137 37.23514,1.50141 3.1989,1.22753 7.95354,10.32086 10.49172,20.06556 4.80315,18.44058 1.78371,40.40364 -8.44543,61.43085 -6.89623,14.17603 -19.20626,28.46653 -27.47005,31.88949 l -4.42554,1.83312 3.48367,12.39465 c 7.82616,27.84491 9.51759,39.53923 9.54115,65.96608 0.019,21.30496 -0.43659,26.66343 -3.0823,36.25452 -15.21672,55.16271 -62.50636,88.43138 -142.41353,100.18915 -12.72912,1.873 -78.72688,5.33448 -90,4.72035 -1.57143,-0.0856 -9.9818,-0.63562 -18.68972,-1.22225 z m 55.58646,-53.3183 c 10.10796,-4.22337 12.71494,-16.07771 5.19053,-23.60212 -7.93456,-7.93456 -21.83257,-7.2666 -29.12485,1.39978 -11.08164,13.16977 6.50575,29.48447 23.93432,22.20234 z m 115.49447,-17.68897 c 12.7232,-6.04494 20.2479,-13.11867 25.66909,-24.13065 8.97633,-18.2335 5.3601,-39.31579 -9.24985,-53.92572 -26.50304,-26.50304 -74.37093,-19.58903 -91.11204,13.16019 -7.24185,17.76032 -2.70502,40.64607 8.94711,52.98735 11.84325,12.32529 25.43413,17.44518 44.31712,16.69492 10.17643,-0.40433 14.00654,-1.25979 21.42857,-4.78609 z m -206.2998,1.88686 c 29.38506,-7.82249 45.90081,-37.64321 35.83113,-64.69634 -4.21495,-11.32382 -17.25679,-24.21115 -29.11084,-28.76597 -34.75673,-13.35498 -72.92287,6.59144 -77.13609,40.31288 -1.14302,9.14843 1.91651,22.55917 6.97464,30.57176 12.16135,19.26484 39.43049,28.96947 63.44116,22.57767 z m -96.40835,-173.358 c 10.78714,-17.6468 11.58785,-18.55311 27.4185,-31.03479 8.96877,-7.07142 16.34353,-13.33342 16.38836,-13.91554 0.14039,-1.82306 -28.07617,-15.2879 -41.0751,-19.6009 -21.74407,-7.2146 -38.17039,-7.44759 -42.65383,-0.605 -4.87093,7.43399 -1.758,28.42426 7.32319,49.37982 4.5046,10.3947 18.9262,34.07356 20.70201,33.9907 0.43188,-0.0202 5.78547,-8.21659 11.89687,-18.21429 z m 369.21967,6.46521 c 13.45684,-19.94898 21.67454,-41.42722 22.81968,-59.64285 0.67629,-10.75746 0.43187,-12.55033 -2.14226,-15.71429 -2.71975,-3.34294 -3.71321,-3.56295 -15.52861,-3.439 -10.13733,0.10636 -15.20829,1.00962 -25.75209,4.58709 -14.90945,5.05873 -42.29904,18.35448 -41.61201,20.19976 0.25048,0.67274 7.32104,6.73562 15.71239,13.47307 16.74034,13.44091 18.2648,15.21171 30.5862,35.52881 4.6434,7.65663 8.76907,13.92449 9.16817,13.92857 0.3991,0.004 3.43594,-4.01044 6.74853,-8.92116 z"
       id="path4466"
       inkscape:connector-curvature="0"
       sodipodi:nodetypes="cssscsssssscssscsssssscsssssccsssscssccscccssssccsssssscssssssssscs" />
    <path
       style="fill:#000000;fill-opacity:1;stroke:#ff0000;stroke-width:5.23714256;stroke-miterlimit:4;stroke-opacity:1;stroke-dasharray:none"
       d="m 44.978399,674.66979 c -8.7073,-3.11156 -15.38394,-7.99153 -19.88555,-14.53439 -12.14735,-17.65557 -5.59693,-40.14818 14.86164,-51.03139 4.73993,-2.52147 8.30443,-3.14536 18.04922,-3.15911 10.80723,-0.0153 12.9844,0.44897 19.79365,4.22054 34.617511,19.17423 20.51756,66.73065 -19.69099,66.4139 -4.37789,-0.0345 -10.28548,-0.89379 -13.12797,-1.90955 z"
       id="path4468"
       inkscape:connector-curvature="0" />
    <path
       style="fill:#000000;fill-opacity:1;stroke:#ff0000;stroke-width:5.23714256;stroke-miterlimit:4;stroke-opacity:1;stroke-dasharray:none"
       d="m 43.355519,346.25071 c -8.23795,-3.90732 -13.22886,-9.14686 -17.40793,-18.27516 -10.35076,-22.60903 6.17989,-50.57675 29.86204,-50.52272 8.89216,0.0203 20.07297,5.71196 25.24432,12.8508 6.00064,8.28364 7.69557,14.43985 7.06211,25.65047 -0.66291,11.73188 -5.86193,21.25373 -15.18087,27.80333 -7.89222,5.54686 -20.84061,6.63828 -29.57967,2.49328 z"
       id="path4470"
       inkscape:connector-curvature="0" />
    <path
       style="fill:#000000;fill-opacity:1;stroke:#ff0000;stroke-width:5.23714256;stroke-miterlimit:4;stroke-opacity:1;stroke-dasharray:none"
       d="m 567.14231,199.25223 c -9.47886,-3.91932 -11.19008,-4.90573 -16.76174,-9.66207 -17.09329,-14.59196 -24.27383,-38.58232 -17.7772,-59.39407 5.04104,-16.14881 15.24671,-28.05417 30.25323,-35.291704 8.40352,-4.052955 10.57507,-4.47843 22.85714,-4.47843 12.20591,0 14.50573,0.443656 22.85714,4.409344 12.2571,5.82031 21.9031,15.40356 27.59193,27.41242 4.17168,8.80622 4.55093,10.79731 4.55093,23.89252 0,12.57885 -0.46666,15.28182 -3.90572,22.62271 -7.37774,15.74824 -18.85126,26.18791 -34.56305,31.44862 -10.30226,3.44946 -25.44056,3.03574 -35.10266,-0.95934 z"
       id="path4472"
       inkscape:connector-curvature="0" />
    <path
       style="fill:#000000;fill-opacity:1;stroke:#ff0000;stroke-width:5.23714256;stroke-miterlimit:4;stroke-opacity:1;stroke-dasharray:none"
       d="m 641.62447,654.79151 c -8.80912,-2.93797 -17.19505,-10.22863 -21.14094,-18.37974 -6.21901,-12.84676 -1.06699,-27.77787 12.56867,-36.42534 8.16143,-5.17583 14.50914,-7.03026 24.10017,-7.04068 15.223,-0.0165 31.27214,8.9434 36.76917,20.52752 2.97524,6.26986 2.97524,16.94489 0,23.21475 -3.19433,6.73154 -13.63521,15.57769 -21.5817,18.28533 -8.31306,2.83255 -21.91867,2.752 -30.71537,-0.18184 z"
       id="path4474"
       inkscape:connector-curvature="0" />
    <path
       style="fill:#000000;fill-opacity:1;stroke:#ff0000;stroke-width:5.23714256;stroke-miterlimit:4;stroke-opacity:1;stroke-dasharray:none"
       d=""
       id="path4486"
       inkscape:connector-curvature="0" />
    <path
       style="fill:#ff0000;fill-opacity:1;stroke:#ff0000;stroke-width:1.85160959000000000;stroke-miterlimit:4;stroke-opacity:1;stroke-dasharray:none"
       d="m 101.88891,478.4211 c -0.20834,-0.22064 -0.3788,-0.896 -0.3788,-1.50081 0,-1.06683 0.22995,-1.10962 7.70241,-1.43345 4.23633,-0.18358 18.89616,-0.48348 32.57742,-0.66644 l 24.875,-0.33265 0,1.51726 0,1.51726 -20.83439,0.33845 c -11.45892,0.18615 -25.9483,0.47865 -32.19861,0.64999 -6.25032,0.17135 -11.53468,0.13103 -11.74303,-0.0896 z"
       id="path4488"
       inkscape:connector-curvature="0" />
    <path
       style="fill:#ff0000;fill-opacity:1;stroke:#ff0000;stroke-width:1.85160959000000000;stroke-miterlimit:4;stroke-opacity:1;stroke-dasharray:none"
       d="m 137.40566,561.65384 c -0.46659,-1.02404 -0.45276,-1.38813 0.0653,-1.71967 1.35485,-0.86708 18.80223,-8.11637 28.48763,-11.83646 9.02235,-3.46541 28.9413,-10.31041 30.00329,-10.31041 0.23012,0 0.62624,0.62354 0.88028,1.38564 l 0.46188,1.38564 -10.90013,3.58677 c -14.12305,4.6473 -29.8245,10.71023 -46.06821,17.7887 l -2.33813,1.01888 -0.5919,-1.29909 z"
       id="path4490"
       inkscape:connector-curvature="0" />
    <path
       sodipodi:type="arc"
       style="fill:#ff0000;fill-opacity:1;stroke:#ff0000;stroke-width:3.66599989;stroke-miterlimit:4;stroke-opacity:1;stroke-dasharray:none"
       id="path4199-4-2-3-2"
       sodipodi:cx="-575.71429"
       sodipodi:cy="281.64789"
       sodipodi:rx="42.857143"
       sodipodi:ry="42.142857"
       d="m -532.85715,281.64789 a 42.857143,42.142857 0 1 1 -85.71429,0 42.857143,42.142857 0 1 1 85.71429,0 z"
       transform="matrix(0.75864161,0,0,-0.8392966,566.29993,400.62219)" />
    <path
       style="fill:#ff0000;fill-opacity:1;stroke:#ff0000;stroke-width:1.85160959000000000;stroke-miterlimit:4;stroke-opacity:1;stroke-dasharray:none"
       d="m 115.88341,525.53765 c -0.46659,-1.02404 -0.45276,-1.38813 0.0653,-1.71967 1.35485,-0.86708 18.80223,-8.11637 28.48763,-11.83646 9.02235,-3.46541 28.9413,-10.31041 30.00329,-10.31041 0.23012,0 0.62624,0.62354 0.88028,1.38564 l 0.46188,1.38564 -10.90013,3.58677 c -14.12305,4.6473 -29.8245,10.71023 -46.06821,17.7887 l -2.33813,1.01888 -0.5919,-1.29909 z"
       id="path4490-1"
       inkscape:connector-curvature="0" />
    <path
       style="fill:#ff0000;fill-opacity:1;stroke:#ff0000;stroke-width:1.85160959000000000;stroke-miterlimit:4;stroke-opacity:1;stroke-dasharray:none"
       d="m 667.6508,479.61155 c 0.20834,-0.22064 0.3788,-0.896 0.3788,-1.50081 0,-1.06683 -0.22995,-1.10962 -7.70241,-1.43345 -4.23633,-0.18358 -18.89616,-0.48348 -32.57742,-0.66644 l -24.875,-0.33265 0,1.51726 0,1.51726 20.83439,0.33845 c 11.45892,0.18615 25.9483,0.47865 32.19861,0.64999 6.25032,0.17135 11.53468,0.13103 11.74303,-0.0896 z"
       id="path4488-4"
       inkscape:connector-curvature="0" />
    <path
       style="fill:#ff0000;fill-opacity:1;stroke:#ff0000;stroke-width:1.85160959000000000;stroke-miterlimit:4;stroke-opacity:1;stroke-dasharray:none"
       d="m 632.13405,562.84429 c 0.46659,-1.02404 0.45276,-1.38813 -0.0653,-1.71967 -1.35485,-0.86708 -18.80223,-8.11637 -28.48763,-11.83646 -9.02235,-3.46541 -28.9413,-10.31041 -30.00329,-10.31041 -0.23012,0 -0.62624,0.62354 -0.88028,1.38564 l -0.46188,1.38564 10.90013,3.58677 c 14.12305,4.6473 29.8245,10.71023 46.06821,17.7887 l 2.33813,1.01888 0.5919,-1.29909 z"
       id="path4490-0"
       inkscape:connector-curvature="0" />
    <path
       style="fill:#ff0000;fill-opacity:1;stroke:#ff0000;stroke-width:1.85160959000000000;stroke-miterlimit:4;stroke-opacity:1;stroke-dasharray:none"
       d="m 653.6563,526.7281 c 0.46659,-1.02404 0.45276,-1.38813 -0.0653,-1.71967 -1.35485,-0.86708 -18.80223,-8.11637 -28.48763,-11.83646 -9.02235,-3.46541 -28.9413,-10.31041 -30.00329,-10.31041 -0.23012,0 -0.62624,0.62354 -0.88028,1.38564 l -0.46188,1.38564 10.90013,3.58677 c 14.12305,4.6473 29.8245,10.71023 46.06821,17.7887 l 2.33813,1.01888 0.5919,-1.29909 z"
       id="path4490-1-9"
       inkscape:connector-curvature="0" />
    <path
       style="fill:#000000;fill-opacity:1;stroke:#000000;stroke-width:3.70311809;stroke-miterlimit:4;stroke-opacity:1;stroke-dasharray:none"
       d="M 51.2405,678.22981 C 28.049704,674.6554 12.075786,652.50858 18.085985,632.26318 c 3.772577,-12.70796 15.258302,-24.40882 27.001017,-27.50677 4.567216,-1.20492 22.350869,-1.00553 26.711968,0.2995 6.347523,1.89945 15.885566,8.80117 20.52403,14.85119 15.71504,20.49735 4.324397,50.42189 -21.781109,57.22151 -5.37231,1.39931 -14.126727,1.89878 -19.301391,1.1012 z m 17.575602,-5.32454 c 6.820555,-1.76709 11.766143,-4.51232 16.425305,-9.11749 10.93751,-10.81075 12.845702,-27.42263 4.565029,-39.74123 -3.310908,-4.92541 -9.483285,-10.13947 -15.571564,-13.15395 l -4.582793,-2.26906 -11.696396,0 -11.696395,0 -4.856942,2.39149 c -13.377115,6.5867 -21.917173,21.51506 -19.702958,34.44156 2.21437,12.9274 11.953786,23.41983 25.298471,27.25444 5.524295,1.58742 16.078262,1.68138 21.818243,0.19424 z"
       id="path3075"
       inkscape:connector-curvature="0" />
    <path
       style="fill:#000000;fill-opacity:1;stroke:#000000;stroke-width:3.70311809;stroke-miterlimit:4;stroke-opacity:1;stroke-dasharray:none"
       d="M 46.997859,349.89021 C 29.905823,344.46184 18.301046,325.79984 21.044431,308.1537 c 2.448562,-15.74977 13.033462,-28.15635 27.25196,-31.94208 12.519735,-3.33342 27.469506,2.76859 35.445253,14.4676 4.265594,6.25687 6.088367,11.71414 6.526992,19.54141 0.702412,12.53439 -2.99825,22.82889 -11.075909,30.81098 -4.940067,4.88162 -8.90175,7.21034 -15.051721,8.84756 -4.558683,1.2136 -13.338926,1.21925 -17.143147,0.011 l 0,10e-6 z m 14.150629,-4.01825 c 11.103381,-2.05258 19.977216,-10.45905 23.335493,-22.10649 0.912435,-3.16458 1.131219,-6.15557 0.931015,-12.72792 -0.247174,-8.11426 -0.397351,-8.86606 -2.704907,-13.541 -5.877342,-11.90705 -19.092968,-19.17106 -31.350252,-17.23175 -8.098826,1.28137 -16.760144,7.37202 -21.159924,14.87968 -3.742356,6.38584 -4.949411,11.52637 -4.621893,19.6834 0.272972,6.79855 0.520296,7.89318 2.902405,12.84579 5.501,11.43705 15.345762,18.4964 26.342519,18.88933 1.192526,0.0426 4.039021,-0.26836 6.325544,-0.69104 l 0,0 z"
       id="path3079"
       inkscape:connector-curvature="0" />
    <path
       style="fill:#000000;fill-opacity:1;stroke:#000000;stroke-width:3.70311809;stroke-miterlimit:4;stroke-opacity:1;stroke-dasharray:none"
       d="m 646.06759,658.13867 c -10.69645,-2.22623 -20.64774,-9.29611 -26.45771,-18.79686 -3.6012,-5.88887 -4.73904,-15.44576 -2.6689,-22.41665 3.4554,-11.63561 16.85016,-22.51257 31.2217,-25.35301 17.79714,-3.51749 39.45141,5.66162 47.07142,19.95327 3.76873,7.06841 3.97288,18.94333 0.45206,26.29474 -3.21391,6.71057 -14.74208,16.37894 -23.07648,19.35362 -5.3315,1.9029 -19.55144,2.41984 -26.54209,0.96489 z m 17.88093,-3.89711 c 8.51822,-0.97327 14.81914,-4.19873 21.97383,-11.24845 4.71269,-4.64356 5.62855,-5.95439 6.67477,-9.55327 1.8702,-6.43322 1.24747,-15.1938 -1.42922,-20.10652 -3.98059,-7.30586 -13.75647,-14.11377 -24.00918,-16.71997 -4.80669,-1.22184 -15.46472,-1.38635 -20.18076,-0.3115 -8.80715,2.00728 -20.35687,10.37763 -23.88439,17.30957 -6.21117,12.20558 -1.70123,26.16107 11.26888,34.87029 4.79034,3.21663 9.85928,4.98767 16.5046,5.76655 6.29344,0.73764 6.56814,0.7375 13.08147,-0.007 l 0,10e-6 z"
       id="path3085"
       inkscape:connector-curvature="0" />
    <path
       style="fill:#000000;fill-opacity:1;stroke:#000000;stroke-width:3.70311809;stroke-miterlimit:4;stroke-opacity:1;stroke-dasharray:none"
       d="m 573.72842,203.46255 c -5.67565,-1.2349 -14.10366,-4.7848 -19.1835,-8.08015 -4.98953,-3.23676 -14.55343,-13.28131 -17.75739,-18.64982 -19.4594,-32.60588 -4.25324,-74.00976 31.78385,-86.542224 4.66621,-1.62275 6.13671,-1.777632 16.87735,-1.777632 12.76525,0 15.10694,0.424252 23.59036,4.273968 13.49819,6.125378 25.37664,18.749418 31.01853,32.965508 2.16777,5.46221 2.26256,6.13391 2.53669,17.97413 0.18054,7.79843 -0.0231,13.87984 -0.55649,16.61702 -1.87128,9.60298 -10.97058,24.03876 -19.74016,31.3172 -5.49441,4.56016 -16.91036,10.34488 -23.40296,11.85883 -5.6634,1.32058 -19.18861,1.34378 -25.16628,0.0432 l 0,-3e-5 z m 22.89799,-4.31145 c 17.62849,-3.61697 32.58428,-16.88078 39.80046,-35.29773 1.53484,-3.91719 1.66378,-5.27321 1.68082,-17.67767 l 0.0185,-13.43503 -2.29112,-5.53227 c -5.84921,-14.12386 -16.12125,-24.87404 -29.50586,-30.879303 -6.84008,-3.068936 -11.63685,-3.760489 -23.50119,-3.388176 -9.2622,0.290655 -10.96443,0.541152 -14.97823,2.204158 -28.36866,11.753761 -41.90986,41.485041 -31.77648,69.768951 8.96364,25.01895 34.66254,39.54924 60.55314,34.23707 z"
       id="path3087"
       inkscape:connector-curvature="0" />
    <path
       style="fill:#000000;fill-opacity:1;stroke:#000000;stroke-width:3.70311809;stroke-miterlimit:4;stroke-opacity:1;stroke-dasharray:none"
       d="m 341.59791,584.8472 c -57.02303,-4.97333 -98.4957,-21.11245 -130.40245,-50.74624 -30.7842,-28.5912 -46.72264,-70.00224 -42.47247,-110.35136 1.35915,-12.90304 5.2234,-27.7199 9.96921,-38.22537 l 2.04237,-4.52102 -3.04784,-3.25838 c -15.20729,-16.25782 -29.25128,-69.05981 -27.8544,-104.72575 0.41174,-10.51286 1.49503,-16.80723 4.2296,-24.5758 l 1.55701,-4.42326 4.63247,-1.77017 c 25.15659,-9.61287 58.53306,-1.46787 106.20577,25.91783 13.74116,7.89365 12.28449,7.50525 17.24487,4.59805 2.33009,-1.36563 7.24123,-3.81469 10.91366,-5.44236 44.98725,-19.93902 107.74901,-20.37051 190.33823,-1.30859 l 12.54127,2.89458 7.61127,-4.05382 c 19.94315,-10.62185 23.89108,-12.58444 33.43674,-16.62203 27.42542,-11.60029 51.79716,-14.57081 74.0432,-9.02464 l 5.82347,1.45185 2.70091,4.33514 c 5.42264,8.70372 8.7034,18.63533 10.0746,30.49809 3.52789,30.52115 -13.61676,70.75385 -36.44326,85.51999 -2.33346,1.50949 -4.34935,2.82605 -4.47976,2.92569 -0.1304,0.0997 0.57238,2.83509 1.56175,6.07873 13.07198,42.85632 14.56728,83.23228 4.23767,114.42565 -10.92773,32.9996 -33.56178,57.76191 -68.45531,74.89213 -27.68389,13.5908 -59.58601,21.26009 -103.27709,24.82789 -11.92706,0.97396 -73.56174,1.48292 -82.73149,0.68317 l 0,0 z m 73.53911,-3.83695 c 32.92213,-2.06979 44.87183,-3.63022 65.04301,-8.49356 64.14553,-15.46568 102.45518,-47.96455 116.0674,-98.46239 1.78095,-6.60687 1.88473,-7.9521 2.19726,-28.48055 0.47912,-31.47087 -0.92249,-43.10421 -8.60707,-71.4384 -1.74036,-6.41699 -2.8774,-11.76761 -2.52676,-11.89026 2.41051,-0.84315 9.60736,-6.40488 13.55639,-10.47636 12.35355,-12.73664 21.47604,-30.5892 25.78733,-50.46538 0.99501,-4.58724 1.29278,-8.85674 1.25755,-18.03122 -0.0407,-10.5905 -0.2617,-12.82011 -1.85761,-18.73833 -2.22053,-8.2346 -5.5734,-15.38624 -8.96111,-19.114 -3.91822,-4.31151 -8.40301,-5.2265 -25.53325,-5.20932 -25.1746,0.0253 -38.41528,3.9432 -75.39624,22.30988 l -18.47414,9.17523 -20.78587,-4.24709 c -48.52442,-9.91477 -71.84464,-12.56959 -104.44724,-11.89047 -35.89717,0.74774 -55.99906,5.02497 -81.93003,17.43286 l -11.55956,5.53122 -12.17165,-6.75596 c -14.78939,-8.20895 -36.87789,-18.9707 -45.05212,-21.94988 -19.55971,-7.12873 -35.37209,-9.34453 -50.70603,-7.10547 -10.86602,1.58666 -14.85895,5.20994 -16.50834,14.98006 -1.24835,7.39455 -1.06168,37.1291 0.29154,46.44092 4.49028,30.89847 15.22378,60.75711 25.55444,71.08778 l 4.29622,4.29622 -2.03965,4.53032 c -7.8741,17.48937 -11.5947,37.15878 -10.8916,57.57976 1.0166,29.52628 10.57793,54.19984 29.88221,77.11283 18.1855,21.58504 36.23652,34.58277 63.60828,45.80145 23.9013,9.79627 47.99492,14.96803 82.73149,17.75854 7.20722,0.57898 50.75885,-0.25634 67.17515,-1.28843 l 0,0 z"
       id="path3089"
       inkscape:connector-curvature="0" />
  </g>
</svg>
