<?xml version="1.0" encoding="UTF-8" standalone="no"?>
<!-- Created with Inkscape (http://www.inkscape.org/) -->

<svg
   xmlns:dc="http://purl.org/dc/elements/1.1/"
   xmlns:cc="http://creativecommons.org/ns#"
   xmlns:rdf="http://www.w3.org/1999/02/22-rdf-syntax-ns#"
   xmlns:svg="http://www.w3.org/2000/svg"
   xmlns="http://www.w3.org/2000/svg"
   xmlns:sodipodi="http://sodipodi.sourceforge.net/DTD/sodipodi-0.dtd"
   xmlns:inkscape="http://www.inkscape.org/namespaces/inkscape"
   width="1000"
   height="1000"
   id="svg5163"
   version="1.1"
   inkscape:version="0.48.4 r9939"
   sodipodi:docname="automataTheory.svg">
  <defs
     id="defs5165" />
  <sodipodi:namedview
     id="base"
     pagecolor="#ffffff"
     bordercolor="#666666"
     borderopacity="1.0"
     inkscape:pageopacity="0.0"
     inkscape:pageshadow="2"
     inkscape:zoom="0.35355339"
     inkscape:cx="639.88703"
     inkscape:cy="665.55567"
     inkscape:document-units="px"
     inkscape:current-layer="layer1"
     showgrid="false"
     inkscape:window-width="1920"
     inkscape:window-height="1020"
     inkscape:window-x="-4"
     inkscape:window-y="-4"
     inkscape:window-maximized="1"
     fit-margin-top="0"
     fit-margin-left="0"
     fit-margin-right="0"
     fit-margin-bottom="0"
     showguides="true"
     inkscape:guide-bbox="true" />
  <metadata
     id="metadata5168">
    <rdf:RDF>
      <cc:Work
         rdf:about="">
        <dc:format>image/svg+xml</dc:format>
        <dc:type
           rdf:resource="http://purl.org/dc/dcmitype/StillImage" />
        <dc:title />
      </cc:Work>
    </rdf:RDF>
  </metadata>
  <g
     inkscape:label="Layer 1"
     inkscape:groupmode="layer"
     id="layer1"
     transform="translate(605.61413,-0.76158374)">
    <flowRoot
       xml:space="preserve"
       id="flowRoot4965"
       style="fill:black;stroke:none;stroke-opacity:1;stroke-width:1px;stroke-linejoin:miter;stroke-linecap:butt;fill-opacity:1;font-family:Sans;font-style:normal;font-weight:normal;font-size:40px;line-height:125%;letter-spacing:0px;word-spacing:0px"><flowRegion
         id="flowRegion4967"><rect
           id="rect4969"
           width="324.76828"
           height="160.03075"
           x="1080.9919"
           y="118.26199" /></flowRegion><flowPara
         id="flowPara4971" /></flowRoot>    <flowRoot
       xml:space="preserve"
       id="flowRoot4973"
       style="fill:black;stroke:none;stroke-opacity:1;stroke-width:1px;stroke-linejoin:miter;stroke-linecap:butt;fill-opacity:1;font-family:Sans;font-style:normal;font-weight:normal;font-size:40px;line-height:125%;letter-spacing:0px;word-spacing:0px"><flowRegion
         id="flowRegion4975"><rect
           id="rect4977"
           width="393.80115"
           height="252.59755"
           x="1189.248"
           y="631.3017" /></flowRegion><flowPara
         id="flowPara4979" /></flowRoot>    <flowRoot
       xml:space="preserve"
       id="flowRoot4981"
       style="fill:black;stroke:none;stroke-opacity:1;stroke-width:1px;stroke-linejoin:miter;stroke-linecap:butt;fill-opacity:1;font-family:Sans;font-style:normal;font-weight:normal;font-size:40px;line-height:125%;letter-spacing:0px;word-spacing:0px"><flowRegion
         id="flowRegion4983"><rect
           id="rect4985"
           width="469.10971"
           height="318.49255"
           x="1219.0577"
           y="612.47455" /></flowRegion><flowPara
         id="flowPara4987" /></flowRoot>    <flowRoot
       xml:space="preserve"
       id="flowRoot3041"
       style="font-size:40px;font-style:normal;font-weight:normal;line-height:125%;letter-spacing:0px;word-spacing:0px;fill:#000000;fill-opacity:1;stroke:none;font-family:Sans"
       transform="matrix(2.5660255,0,0,1,-1323.9435,396.15554)"><flowRegion
         id="flowRegion3043"><rect
           id="rect3045"
           width="302.80325"
           height="156.89288"
           x="400.07684"
           y="-18.234812" /></flowRegion><flowPara
         id="flowPara3047"
         style="font-size:144px">→</flowPara></flowRoot>    <path
       sodipodi:type="arc"
       style="fill:none;stroke:#ff0000;stroke-width:4.60500002;stroke-miterlimit:4;stroke-opacity:1;stroke-dasharray:none"
       id="path4025-1"
       sodipodi:cx="844.28571"
       sodipodi:cy="363.07648"
       sodipodi:rx="190"
       sodipodi:ry="160.71428"
       d="m 1034.2857,363.07648 a 190,160.71428 0 1 1 -379.99999,0 190,160.71428 0 1 1 379.99999,0 z"
       transform="matrix(0.16187777,0,0,0.17357998,-615.62647,421.11754)" />
    <path
       style="fill:#000000;fill-opacity:1;stroke:#000000;stroke-width:5.71999979;stroke-linecap:butt;stroke-linejoin:miter;stroke-miterlimit:4;stroke-opacity:1;stroke-dasharray:none"
       d="m -422.87967,553.39319 c -105.0413,0.66931 -131.9526,-65.53673 -117.1785,-125.48087 -9.8337,-2.88691 -24.951,-46.59892 -15.082,-67.34961 22.9267,-10.80586 56.7548,11.2698 69.5952,18.54667 34.3091,-22.2351 93.3035,-22.35626 124.9668,-2.73908 11.79345,-5.50301 38.78595,-26.35791 68.20535,-17.57674 16.8751,23.41439 0.5971,61.02779 -17.024,68.67711 24.1872,68.69953 -15.1413,125.68978 -113.48285,125.92252 z"
       id="path4027-74"
       inkscape:connector-curvature="0"
       sodipodi:nodetypes="cccccccc" />
    <path
       style="fill:#cc0000;fill-opacity:1;stroke:#cc0000;stroke-width:0.18948144px;stroke-linecap:butt;stroke-linejoin:miter;stroke-opacity:1"
       d="m -531.85227,422.22874 c -14.3839,-17.68561 -22.1006,-46.28237 -13.5308,-48.76379 8.5697,-2.48144 23.6202,0.72385 44.9647,13.13944 l -18.9855,15.36075 z"
       id="path4123-0"
       inkscape:connector-curvature="0"
       sodipodi:nodetypes="csccc" />
    <path
       style="fill:#cc0000;fill-opacity:1;stroke:#cc0000;stroke-width:0.18948144px;stroke-linecap:butt;stroke-linejoin:miter;stroke-opacity:1"
       d="m -317.76312,420.66022 c 14.3839,-17.68563 22.1006,-46.28237 13.5308,-48.76381 -8.5697,-2.48144 -23.6202,0.72385 -44.9647,13.13943 l 18.9855,15.36076 z"
       id="path4123-2-9"
       inkscape:connector-curvature="0"
       sodipodi:nodetypes="csccc" />
    <path
       style="fill:#000000;fill-opacity:1;stroke:#000000;stroke-width:1.05912066;stroke-miterlimit:4;stroke-opacity:1;stroke-dasharray:none"
       d="m -578.96767,493.64636 c -0.1191,-0.12623 -0.2167,-0.51251 -0.2167,-0.85845 0,-0.61027 0.1316,-0.63475 4.4058,-0.81996 2.4232,-0.10491 10.8086,-0.27657 18.6343,-0.38119 l 14.2285,-0.19029 0,0.86789 0,0.86784 -11.9173,0.19362 c -6.5545,0.10634 -14.8424,0.27376 -18.4176,0.3718 -3.5752,0.098 -6.5978,0.0749 -6.717,-0.0515 z"
       id="path4488-48"
       inkscape:connector-curvature="0" />
    <path
       style="fill:#000000;fill-opacity:1;stroke:#000000;stroke-width:1.05912066;stroke-miterlimit:4;stroke-opacity:1;stroke-dasharray:none"
       d="m -566.96277,520.597 c -0.2669,-0.58573 -0.259,-0.79399 0.037,-0.98367 0.7749,-0.49592 10.7548,-4.64252 16.2949,-6.77041 5.1608,-1.98222 16.5544,-5.89756 17.1619,-5.89756 0.1315,0 0.3582,0.35664 0.5035,0.79257 l 0.2642,0.79261 -6.2349,2.0516 c -8.0784,2.65825 -17.0596,6.12629 -26.351,10.17514 l -1.3374,0.58281 -0.3386,-0.74309 z"
       id="path4490-1-8"
       inkscape:connector-curvature="0" />
    <path
       style="fill:#000000;fill-opacity:1;stroke:#000000;stroke-width:1.05912066;stroke-miterlimit:4;stroke-opacity:1;stroke-dasharray:none"
       d="m -266.79192,494.32728 c 0.1191,-0.1261 0.2167,-0.51252 0.2167,-0.85846 0,-0.61022 -0.1316,-0.6347 -4.4058,-0.81991 -2.4232,-0.10491 -10.8086,-0.27656 -18.6343,-0.38124 l -14.2285,-0.19024 0,0.86783 0,0.86791 11.9173,0.19355 c 6.5545,0.1066 14.8424,0.27382 18.4176,0.3718 3.5752,0.0982 6.5978,0.0749 6.717,-0.0515 z"
       id="path4488-4-24"
       inkscape:connector-curvature="0" />
    <path
       style="fill:#000000;fill-opacity:1;stroke:#000000;stroke-width:1.05912066;stroke-miterlimit:4;stroke-opacity:1;stroke-dasharray:none"
       d="m -278.79682,521.27797 c 0.2669,-0.58578 0.259,-0.79406 -0.037,-0.98367 -0.7749,-0.49598 -10.7548,-4.64258 -16.2949,-6.77048 -5.1608,-1.9822 -16.5544,-5.89754 -17.1619,-5.89754 -0.1315,0 -0.3582,0.35669 -0.5035,0.79262 l -0.2642,0.79256 6.2349,2.05164 c 8.0784,2.65826 17.0596,6.12624 26.351,10.17514 l 1.3374,0.58282 0.3386,-0.74309 z"
       id="path4490-1-9-5"
       inkscape:connector-curvature="0" />
    <path
       sodipodi:type="arc"
       style="fill:#cc0000;fill-opacity:1;stroke:#cc0000;stroke-width:3.4000001;stroke-miterlimit:4;stroke-opacity:1;stroke-dasharray:none"
       id="path3804-0-5"
       sodipodi:cx="277"
       sodipodi:cy="183.86217"
       sodipodi:rx="11"
       sodipodi:ry="11.5"
       d="m 288,183.86217 a 11,11.5 0 1 1 -22,0 11,11.5 0 1 1 22,0 z"
       transform="matrix(0.80216725,0,0,0.67016509,-640.42657,392.38958)" />
    <path
       sodipodi:type="arc"
       style="fill:#ffffff;fill-opacity:1;stroke:#000000;stroke-width:3.4000001;stroke-miterlimit:4;stroke-opacity:1;stroke-dasharray:none"
       id="path3784-9-4-6-8-1"
       sodipodi:cx="300.5"
       sodipodi:cy="121.86217"
       sodipodi:rx="41.5"
       sodipodi:ry="42.5"
       d="m 342,121.86217 a 41.5,42.5 0 1 1 -83,0 41.5,42.5 0 1 1 83,0 z"
       transform="matrix(0.69670292,0,0,0.61790775,-585.43137,403.39892)" />
    <path
       sodipodi:type="arc"
       style="fill:#ffffff;fill-opacity:1;stroke:#000000;stroke-width:3.4000001;stroke-miterlimit:4;stroke-opacity:1;stroke-dasharray:none"
       id="path3784-9-4-6-8-5-71"
       sodipodi:cx="300.5"
       sodipodi:cy="121.86217"
       sodipodi:rx="41.5"
       sodipodi:ry="42.5"
       d="m 342,121.86217 a 41.5,42.5 0 1 1 -83,0 41.5,42.5 0 1 1 83,0 z"
       transform="matrix(-0.69670292,0,0,0.61790775,-252.71562,403.89492)" />
    <path
       sodipodi:type="arc"
       style="fill:#000000;fill-opacity:1;stroke:#000000;stroke-width:3.4000001;stroke-miterlimit:4;stroke-opacity:1;stroke-dasharray:none"
       id="path3804-76-15"
       sodipodi:cx="277"
       sodipodi:cy="183.86217"
       sodipodi:rx="11"
       sodipodi:ry="11.5"
       d="m 288,183.86217 a 11,11.5 0 1 1 -22,0 11,11.5 0 1 1 22,0 z"
       transform="matrix(0.572,0,0,0.572,-607.12637,377.99348)" />
    <path
       sodipodi:type="arc"
       style="fill:#000000;fill-opacity:1;stroke:#000000;stroke-width:3.4000001;stroke-miterlimit:4;stroke-opacity:1;stroke-dasharray:none"
       id="path3804-76-1-2"
       sodipodi:cx="277"
       sodipodi:cy="183.86217"
       sodipodi:rx="11"
       sodipodi:ry="11.5"
       d="m 288,183.86217 a 11,11.5 0 1 1 -22,0 11,11.5 0 1 1 22,0 z"
       transform="matrix(0.572,0,0,0.572,-547.41257,377.00144)" />
    <path
       sodipodi:type="arc"
       style="fill:none;stroke:#ff0000;stroke-width:4.60500002;stroke-miterlimit:4;stroke-opacity:1;stroke-dasharray:none"
       id="path4025-74"
       sodipodi:cx="844.28571"
       sodipodi:cy="363.07648"
       sodipodi:rx="190"
       sodipodi:ry="160.71428"
       d="m 1034.2857,363.07648 a 190,160.71428 0 1 1 -379.99999,0 190,160.71428 0 1 1 379.99999,0 z"
       transform="matrix(0.16187777,0,0,0.17357998,14.237017,430.16594)" />
    <path
       style="fill:#cc6600;fill-opacity:1;stroke:#000000;stroke-width:5.71999979;stroke-linecap:butt;stroke-linejoin:miter;stroke-miterlimit:4;stroke-opacity:1;stroke-dasharray:none"
       d="M 206.98376,562.44161 C 101.94232,563.11091 75.031217,496.90488 89.805217,436.96072 c -9.8337,-2.8869 -24.951,-46.59892 -15.082,-67.34961 22.9267,-10.80587 56.754803,11.2698 69.595303,18.54667 34.309,-22.2351 93.30335,-22.35627 124.96665,-2.73909 11.79349,-5.503 38.78605,-26.35791 68.20551,-17.57674 16.87514,23.41439 0.59705,61.02781 -17.0241,68.67713 24.18726,68.69954 -15.14118,125.68978 -113.48282,125.92253 z"
       id="path4027-0"
       inkscape:connector-curvature="0"
       sodipodi:nodetypes="cccccccc" />
    <path
       style="fill:#cc0000;fill-opacity:1;stroke:#000000;stroke-width:5.71999979;stroke-linecap:butt;stroke-linejoin:miter;stroke-miterlimit:4;stroke-opacity:1;stroke-dasharray:none"
       d="m 98.011117,431.27716 c -14.3839,-17.68563 -22.1006,-46.28238 -13.5308,-48.76382 8.5697,-2.48143 23.620203,0.72385 44.964703,13.13943 l -18.9855,15.36077 z"
       id="path4123-9-6"
       inkscape:connector-curvature="0"
       sodipodi:nodetypes="csccc" />
    <path
       style="fill:#cc0000;fill-opacity:1;stroke:#000000;stroke-width:5.71999979;stroke-linecap:butt;stroke-linejoin:miter;stroke-miterlimit:4;stroke-opacity:1;stroke-dasharray:none"
       d="m 312.10039,429.70861 c 14.38387,-17.68562 22.10048,-46.28237 13.53078,-48.76381 -8.56982,-2.48143 -23.62029,0.72385 -44.9648,13.13945 l 18.98559,15.36076 z"
       id="path4123-2-48"
       inkscape:connector-curvature="0"
       sodipodi:nodetypes="csccc" />
    <path
       style="fill:#000000;fill-opacity:1;stroke:#000000;stroke-width:1.05912066;stroke-miterlimit:4;stroke-opacity:1;stroke-dasharray:none"
       d="m 50.895717,502.69478 c -0.1191,-0.12623 -0.2167,-0.51251 -0.2167,-0.85845 0,-0.61027 0.1316,-0.63475 4.4058,-0.81996 2.4232,-0.10491 10.8086,-0.27656 18.6343,-0.38119 l 14.2285,-0.19031 0,0.8679 0,0.86784 -11.9173,0.19362 c -6.5545,0.1066 -14.8424,0.27377 -18.4176,0.3718 -3.5752,0.098 -6.5978,0.0749 -6.717,-0.0515 z"
       id="path4488-8"
       inkscape:connector-curvature="0" />
    <path
       style="fill:#000000;fill-opacity:1;stroke:#000000;stroke-width:1.05912066;stroke-miterlimit:4;stroke-opacity:1;stroke-dasharray:none"
       d="m 62.900617,529.64542 c -0.2669,-0.58573 -0.259,-0.794 0.037,-0.98367 0.7749,-0.49592 10.7548,-4.64252 16.2949,-6.77042 5.1608,-1.98221 16.5544,-5.89755 17.1618,-5.89755 0.1317,0 0.3583,0.35665 0.5036,0.79256 l 0.2642,0.79263 -6.2349,2.05159 c -8.0784,2.65825 -17.0596,6.12629 -26.351,10.17514 l -1.3374,0.5828 -0.3386,-0.74308 z"
       id="path4490-1-5"
       inkscape:connector-curvature="0" />
    <path
       style="fill:#000000;fill-opacity:1;stroke:#000000;stroke-width:1.05912066;stroke-miterlimit:4;stroke-opacity:1;stroke-dasharray:none"
       d="m 353.06663,530.32639 c 0.2669,-0.58579 0.25901,-0.79405 -0.0377,-0.98367 -0.77495,-0.49598 -10.75485,-4.64259 -16.2949,-6.77048 -5.16082,-1.98221 -16.55437,-5.89755 -17.16184,-5.89755 -0.1317,0 -0.35829,0.3567 -0.50358,0.79262 l -0.26416,0.79257 6.2348,2.05165 c 8.07847,2.65825 17.05968,6.12623 26.35113,10.17514 l 1.33734,0.5828 0.33862,-0.74308 z"
       id="path4490-1-9-17"
       inkscape:connector-curvature="0" />
    <path
       sodipodi:type="arc"
       style="fill:#000000;fill-opacity:1;stroke:#000000;stroke-width:3.4000001;stroke-miterlimit:4;stroke-opacity:1;stroke-dasharray:none"
       id="path3804-0-11"
       sodipodi:cx="277"
       sodipodi:cy="183.86217"
       sodipodi:rx="11"
       sodipodi:ry="11.5"
       d="m 288,183.86217 a 11,11.5 0 1 1 -22,0 11,11.5 0 1 1 22,0 z"
       transform="matrix(0.80216725,0,0,0.67016509,-10.563183,401.43797)" />
    <path
       sodipodi:type="arc"
       style="fill:#ffffff;fill-opacity:1;stroke:#000000;stroke-width:3.4000001;stroke-miterlimit:4;stroke-opacity:1;stroke-dasharray:none"
       id="path3784-9-4-6-8-52"
       sodipodi:cx="300.5"
       sodipodi:cy="121.86217"
       sodipodi:rx="41.5"
       sodipodi:ry="42.5"
       d="m 342,121.86217 a 41.5,42.5 0 1 1 -83,0 41.5,42.5 0 1 1 83,0 z"
       transform="matrix(0.69670292,0,0,0.61790775,44.432017,412.44733)" />
    <path
       sodipodi:type="arc"
       style="fill:#ffffff;fill-opacity:1;stroke:#000000;stroke-width:3.4000001;stroke-miterlimit:4;stroke-opacity:1;stroke-dasharray:none"
       id="path3784-9-4-6-8-5-7"
       sodipodi:cx="300.5"
       sodipodi:cy="121.86217"
       sodipodi:rx="41.5"
       sodipodi:ry="42.5"
       d="m 342,121.86217 a 41.5,42.5 0 1 1 -83,0 41.5,42.5 0 1 1 83,0 z"
       transform="matrix(-0.69670292,0,0,0.61790775,377.14789,412.94332)" />
    <path
       sodipodi:type="arc"
       style="fill:#000000;fill-opacity:1;stroke:#000000;stroke-width:3.4000001;stroke-miterlimit:4;stroke-opacity:1;stroke-dasharray:none"
       id="path3804-76-6"
       sodipodi:cx="277"
       sodipodi:cy="183.86217"
       sodipodi:rx="11"
       sodipodi:ry="11.5"
       d="m 288,183.86217 a 11,11.5 0 1 1 -22,0 11,11.5 0 1 1 22,0 z"
       transform="matrix(0.572,0,0,0.572,22.737017,387.04187)" />
    <path
       sodipodi:type="arc"
       style="fill:#000000;fill-opacity:1;stroke:#000000;stroke-width:3.4000001;stroke-miterlimit:4;stroke-opacity:1;stroke-dasharray:none"
       id="path3804-76-1-1"
       sodipodi:cx="277"
       sodipodi:cy="183.86217"
       sodipodi:rx="11"
       sodipodi:ry="11.5"
       d="m 288,183.86217 a 11,11.5 0 1 1 -22,0 11,11.5 0 1 1 22,0 z"
       transform="matrix(0.572,0,0,0.572,82.450917,386.04984)" />
    <path
       style="fill:#000000;fill-opacity:1;stroke:#000000;stroke-width:1.05912066;stroke-miterlimit:4;stroke-opacity:1;stroke-dasharray:none"
       d="m 362.98535,503.42688 c 0.11914,-0.12623 0.21667,-0.51251 0.21667,-0.85845 0,-0.61027 -0.13156,-0.63475 -4.40577,-0.81996 -2.42317,-0.10491 -10.80863,-0.27656 -18.63426,-0.38119 l -14.2285,-0.19031 0,0.8679 0,0.86784 11.91727,0.19362 c 6.55449,0.1066 14.84242,0.27377 18.41759,0.3718 3.57517,0.098 6.59779,0.0749 6.717,-0.0515 z"
       id="path4488-8-2"
       inkscape:connector-curvature="0" />
    <flowRoot
       xml:space="preserve"
       id="flowRoot3182"
       style="font-size:40px;font-style:normal;font-weight:normal;line-height:125%;letter-spacing:0px;word-spacing:0px;fill:#000000;fill-opacity:1;stroke:none;font-family:Sans"
       transform="translate(-728.02093,-710.65006)"><flowRegion
         id="flowRegion3184"><rect
           id="rect3186"
           width="383.85248"
           height="181.94164"
           x="288.44406"
           y="802.52673" /></flowRegion><flowPara
         id="flowPara3188"
         style="font-size:72px">1</flowPara></flowRoot>    <flowRoot
       xml:space="preserve"
       id="flowRoot3182-1"
       style="font-size:40px;font-style:normal;font-weight:normal;line-height:125%;letter-spacing:0px;word-spacing:0px;fill:#000000;fill-opacity:1;stroke:none;font-family:Sans"
       transform="translate(-90.660875,-45.749308)"><flowRegion
         id="flowRegion3184-4"><rect
           id="rect3186-2"
           width="383.85248"
           height="181.94164"
           x="288.44406"
           y="802.52673" /></flowRegion><flowPara
         id="flowPara3188-3"
         style="font-size:72px">2</flowPara></flowRoot>    <flowRoot
       xml:space="preserve"
       id="flowRoot3182-1-2"
       style="font-size:40px;font-style:normal;font-weight:normal;line-height:125%;letter-spacing:0px;word-spacing:0px;fill:#000000;fill-opacity:1;stroke:none;font-family:Sans"
       transform="translate(-447.22936,-424.05596)"><flowRegion
         id="flowRegion3184-4-2"><rect
           id="rect3186-2-1"
           width="383.85248"
           height="181.94164"
           x="288.44406"
           y="802.52673" /></flowRegion><flowPara
         id="flowPara3188-3-6"
         style="font-size:72px">2</flowPara></flowRoot>    <flowRoot
       xml:space="preserve"
       id="flowRoot3041-8"
       style="font-size:40px;font-style:normal;font-weight:normal;line-height:125%;letter-spacing:0px;word-spacing:0px;fill:#000000;fill-opacity:1;stroke:none;font-family:Sans"
       transform="matrix(-2.5660255,0,0,1,1091.6201,471.00541)"><flowRegion
         id="flowRegion3043-5"><rect
           id="rect3045-7"
           width="302.80325"
           height="156.89288"
           x="400.07684"
           y="-18.234812" /></flowRegion><flowPara
         id="flowPara3047-6"
         style="font-size:144px">→</flowPara></flowRoot>    <flowRoot
       xml:space="preserve"
       id="flowRoot3182-18"
       style="font-size:40px;font-style:normal;font-weight:normal;line-height:125%;letter-spacing:0px;word-spacing:0px;fill:#000000;fill-opacity:1;stroke:none;font-family:Sans"
       transform="translate(-443.38366,-260.05596)"><flowRegion
         id="flowRegion3184-9"><rect
           id="rect3186-27"
           width="383.85248"
           height="181.94164"
           x="288.44406"
           y="802.52673" /></flowRegion><flowPara
         id="flowPara3188-9"
         style="font-size:72px">1</flowPara></flowRoot>    <path
       sodipodi:type="spiral"
       style="fill:none;stroke:#000000;stroke-width:16.58372688;stroke-linecap:butt;stroke-linejoin:miter;stroke-miterlimit:4;stroke-opacity:1;stroke-dasharray:none"
       id="path3298"
       sodipodi:cx="-400"
       sodipodi:cy="578"
       sodipodi:expansion="1"
       sodipodi:revolution="3"
       sodipodi:radius="305.73846"
       sodipodi:argument="-18.236151"
       sodipodi:t0="0.75352812"
       d="m -544.84656,757.1524 c -109.67943,-76.59505 -130.25028,-232.60644 -54.11846,-340.01767 85.36702,-120.4408 257.61681,-142.73415 375.849,-57.91238 124.812461,89.54257 153.835528,266.14335 73.11609,394.77758"
       transform="matrix(0.40078538,0.03577838,-0.05121007,0.39445168,-238.77607,58.358059)" />
    <path
       style="fill:none;stroke:#000000;stroke-width:8;stroke-linecap:butt;stroke-linejoin:miter;stroke-miterlimit:4;stroke-opacity:1;stroke-dasharray:none"
       d="m -549.71999,319.25313 c 51.20649,22.19635 55.83387,24.45025 55.83387,24.45025 l 9.80429,-53.99174"
       id="path4086"
       inkscape:connector-curvature="0"
       sodipodi:nodetypes="ccc" />
    <path
       sodipodi:type="spiral"
       style="fill:none;stroke:#000000;stroke-width:16.58372688;stroke-linecap:butt;stroke-linejoin:miter;stroke-miterlimit:4;stroke-opacity:1;stroke-dasharray:none"
       id="path3298-4"
       sodipodi:cx="-400"
       sodipodi:cy="578"
       sodipodi:expansion="1"
       sodipodi:revolution="3"
       sodipodi:radius="305.73846"
       sodipodi:argument="-18.236151"
       sodipodi:t0="0.75352812"
       d="m -544.84656,757.1524 c -109.67943,-76.59505 -130.25028,-232.60644 -54.11846,-340.01767 85.36702,-120.4408 257.61681,-142.73415 375.849,-57.91238 124.812461,89.54257 153.835528,266.14335 73.11609,394.77758"
       transform="matrix(0.40078538,-0.03577838,-0.05121007,-0.39445168,390.62801,859.68245)" />
    <path
       style="fill:none;stroke:#000000;stroke-width:8;stroke-linecap:butt;stroke-linejoin:miter;stroke-miterlimit:4;stroke-opacity:1;stroke-dasharray:none"
       d="m 79.684082,598.78738 c 51.206488,-22.19635 55.833868,-24.45025 55.833868,-24.45025 l 9.80429,53.99174"
       id="path4086-3"
       inkscape:connector-curvature="0"
       sodipodi:nodetypes="ccc" />
  </g>
</svg>
