<?xml version="1.0" encoding="UTF-8" standalone="no"?>
<!-- Created with Inkscape (http://www.inkscape.org/) -->

<svg
   xmlns:dc="http://purl.org/dc/elements/1.1/"
   xmlns:cc="http://creativecommons.org/ns#"
   xmlns:rdf="http://www.w3.org/1999/02/22-rdf-syntax-ns#"
   xmlns:svg="http://www.w3.org/2000/svg"
   xmlns="http://www.w3.org/2000/svg"
   xmlns:sodipodi="http://sodipodi.sourceforge.net/DTD/sodipodi-0.dtd"
   xmlns:inkscape="http://www.inkscape.org/namespaces/inkscape"
   width="1000"
   height="1000"
   id="svg5163"
   version="1.1"
   inkscape:version="0.48.4 r9939"
   sodipodi:docname="osConcepts.png">
  <defs
     id="defs5165" />
  <sodipodi:namedview
     id="base"
     pagecolor="#ffffff"
     bordercolor="#666666"
     borderopacity="1.0"
     inkscape:pageopacity="0.0"
     inkscape:pageshadow="2"
     inkscape:zoom="0.49497475"
     inkscape:cx="324.00715"
     inkscape:cy="632.58835"
     inkscape:document-units="px"
     inkscape:current-layer="layer1"
     showgrid="false"
     inkscape:window-width="1366"
     inkscape:window-height="708"
     inkscape:window-x="-4"
     inkscape:window-y="-4"
     inkscape:window-maximized="1"
     fit-margin-top="0"
     fit-margin-left="0"
     fit-margin-right="0"
     fit-margin-bottom="0" />
  <metadata
     id="metadata5168">
    <rdf:RDF>
      <cc:Work
         rdf:about="">
        <dc:format>image/svg+xml</dc:format>
        <dc:type
           rdf:resource="http://purl.org/dc/dcmitype/StillImage" />
        <dc:title></dc:title>
      </cc:Work>
    </rdf:RDF>
  </metadata>
  <g
     inkscape:label="Layer 1"
     inkscape:groupmode="layer"
     id="layer1"
     transform="translate(605.61413,-0.76158374)">
    <flowRoot
       xml:space="preserve"
       id="flowRoot3053"
       style="font-size:40px;font-style:normal;font-weight:normal;line-height:125%;letter-spacing:0px;word-spacing:0px;fill:#000000;fill-opacity:1;stroke:none;font-family:Sans"
       transform="translate(-551.06589,245.2185)"><flowRegion
         id="flowRegion3055"><rect
           id="rect3057"
           width="315.1676"
           height="163.64471"
           x="-24.24366"
           y="-50.55864" /></flowRegion><flowPara
         id="flowPara3059"
         style="font-size:400px">[</flowPara></flowRoot>    <flowRoot
       xml:space="preserve"
       id="flowRoot3061"
       style="font-size:40px;font-style:normal;font-weight:normal;line-height:125%;letter-spacing:0px;word-spacing:0px;fill:#000000;fill-opacity:1;stroke:none;font-family:Sans"
       transform="translate(-605.61413,0.76158374)"><flowRegion
         id="flowRegion3063"><rect
           id="rect3065"
           width="531.34021"
           height="725.28955"
           x="26.263966"
           y="121.16729" /></flowRegion><flowPara
         id="flowPara3067"
         style="font-size:800px">[</flowPara></flowRoot>    <flowRoot
       xml:space="preserve"
       id="flowRoot3019"
       style="font-size:40px;font-style:normal;font-weight:normal;line-height:125%;letter-spacing:0px;word-spacing:0px;fill:#000000;fill-opacity:1;stroke:none;font-family:Sans"
       transform="translate(-245.83739,8.8428044)"><flowRegion
         id="flowRegion3021"><rect
           id="rect3023"
           width="385.87827"
           height="230.31477"
           x="-28.284271"
           y="105.00485" /></flowRegion><flowPara
         id="flowPara3025"
         style="font-size:144px">/root</flowPara></flowRoot>    <path
       sodipodi:type="arc"
       style="fill:none;stroke:#ff0000;stroke-width:4.60500002;stroke-miterlimit:4;stroke-opacity:1;stroke-dasharray:none"
       id="path4025"
       sodipodi:cx="844.28571"
       sodipodi:cy="363.07648"
       sodipodi:rx="190"
       sodipodi:ry="160.71428"
       d="m 1034.2857,363.07648 a 190,160.71428 0 1 1 -379.99999,0 190,160.71428 0 1 1 379.99999,0 z"
       transform="matrix(0.16187777,0,0,0.17357998,-498.37134,686.00007)" />
    <path
       style="fill:#000000;fill-opacity:1;stroke:#000100;stroke-width:5.71999979;stroke-linecap:butt;stroke-linejoin:miter;stroke-miterlimit:4;stroke-opacity:1;stroke-dasharray:none"
       d="m -305.62454,818.27572 c -105.04139,0.66931 -131.9526,-65.53673 -117.17853,-125.48087 -9.83374,-2.88691 -24.95105,-46.59892 -15.08205,-67.34961 22.92674,-10.80586 56.7548,11.2698 69.59527,18.54667 34.30904,-22.2351 93.30345,-22.35626 124.96676,-2.73908 11.79351,-5.50301 38.78602,-26.35791 68.20545,-17.57674 16.8751,23.41439 0.597,61.02779 -17.02406,68.67711 24.18716,68.69953 -15.14124,125.68978 -113.48284,125.92252 z"
       id="path4027"
       inkscape:connector-curvature="0"
       sodipodi:nodetypes="cccccccc" />
    <path
       style="fill:#cc0000;fill-opacity:1;stroke:#cc0000;stroke-width:0.18948144px;stroke-linecap:butt;stroke-linejoin:miter;stroke-opacity:1"
       d="m -414.59719,687.11127 c -14.38393,-17.68561 -22.10055,-46.28237 -13.53081,-48.76379 8.56976,-2.48144 23.6202,0.72385 44.96476,13.13944 l -18.98554,15.36075 z"
       id="path4123"
       inkscape:connector-curvature="0"
       sodipodi:nodetypes="csccc" />
    <path
       style="fill:#cc0000;fill-opacity:1;stroke:#cc0000;stroke-width:0.18948144px;stroke-linecap:butt;stroke-linejoin:miter;stroke-opacity:1"
       d="m -200.50795,685.54275 c 14.3839,-17.68563 22.10051,-46.28237 13.5308,-48.76381 -8.56977,-2.48144 -23.62021,0.72385 -44.96475,13.13943 l 18.98554,15.36076 z"
       id="path4123-2"
       inkscape:connector-curvature="0"
       sodipodi:nodetypes="csccc" />
    <path
       style="fill:#000000;fill-opacity:1;stroke:#000000;stroke-width:1.05912066;stroke-miterlimit:4;stroke-opacity:1;stroke-dasharray:none"
       d="m -453.71259,758.52889 c -0.11908,-0.12623 -0.21667,-0.51251 -0.21667,-0.85845 0,-0.61027 0.13156,-0.63475 4.40577,-0.81996 2.4232,-0.10491 10.8086,-0.27657 18.63429,-0.38119 l 14.2285,-0.19029 0,0.86789 0,0.86784 -11.91727,0.19362 c -6.5545,0.10634 -14.84242,0.27376 -18.41761,0.3718 -3.57518,0.098 -6.59783,0.0749 -6.71701,-0.0515 z"
       id="path4488"
       inkscape:connector-curvature="0" />
    <path
       style="fill:#000000;fill-opacity:1;stroke:#000000;stroke-width:1.05912066;stroke-miterlimit:4;stroke-opacity:1;stroke-dasharray:none"
       d="m -443.70773,785.47953 c -0.2669,-0.58573 -0.25897,-0.79399 0.0373,-0.98367 0.77497,-0.49592 10.75487,-4.64252 16.29491,-6.77041 5.1608,-1.98222 16.55442,-5.89756 17.16189,-5.89756 0.13156,0 0.3582,0.35664 0.50353,0.79257 l 0.26418,0.79261 -6.23486,2.0516 c -8.0784,2.65825 -17.05962,6.12629 -26.35101,10.17514 l -1.33743,0.58281 -0.33856,-0.74309 z"
       id="path4490-1"
       inkscape:connector-curvature="0" />
    <path
       style="fill:#000000;fill-opacity:1;stroke:#000000;stroke-width:1.05912066;stroke-miterlimit:4;stroke-opacity:1;stroke-dasharray:none"
       d="m -155.53684,759.20981 c 0.1191,-0.1261 0.2167,-0.51252 0.2167,-0.85846 0,-0.61022 -0.1316,-0.6347 -4.4058,-0.81991 -2.4231,-0.10491 -10.8086,-0.27656 -18.6342,-0.38124 l -14.22854,-0.19024 0,0.86783 0,0.86791 11.91724,0.19355 c 6.5545,0.1066 14.8425,0.27382 18.4176,0.3718 3.5752,0.0982 6.5979,0.0749 6.717,-0.0515 z"
       id="path4488-4"
       inkscape:connector-curvature="0" />
    <path
       style="fill:#000000;fill-opacity:1;stroke:#000000;stroke-width:1.05912066;stroke-miterlimit:4;stroke-opacity:1;stroke-dasharray:none"
       d="m -167.54164,786.1605 c 0.2669,-0.58578 0.259,-0.79406 -0.037,-0.98367 -0.775,-0.49598 -10.7549,-4.64258 -16.2949,-6.77048 -5.1608,-1.9822 -16.55445,-5.89754 -17.16191,-5.89754 -0.13156,0 -0.35821,0.35669 -0.50353,0.79262 l -0.26419,0.79256 6.23489,2.05164 c 8.07834,2.65826 17.05964,6.12624 26.35104,10.17514 l 1.3374,0.58282 0.3385,-0.74309 z"
       id="path4490-1-9"
       inkscape:connector-curvature="0" />
    <path
       sodipodi:type="arc"
       style="fill:#cc0000;fill-opacity:1;stroke:#cc0000;stroke-width:3.4000001;stroke-miterlimit:4;stroke-opacity:1;stroke-dasharray:none"
       id="path3804-0"
       sodipodi:cx="277"
       sodipodi:cy="183.86217"
       sodipodi:rx="11"
       sodipodi:ry="11.5"
       d="m 288,183.86217 a 11,11.5 0 1 1 -22,0 11,11.5 0 1 1 22,0 z"
       transform="matrix(0.80216725,0,0,0.67016509,-523.1715,657.27211)" />
    <path
       sodipodi:type="arc"
       style="fill:#ffffff;fill-opacity:1;stroke:#000000;stroke-width:3.4000001;stroke-miterlimit:4;stroke-opacity:1;stroke-dasharray:none"
       id="path3784-9-4-6-8"
       sodipodi:cx="300.5"
       sodipodi:cy="121.86217"
       sodipodi:rx="41.5"
       sodipodi:ry="42.5"
       d="m 342,121.86217 a 41.5,42.5 0 1 1 -83,0 41.5,42.5 0 1 1 83,0 z"
       transform="matrix(0.69670292,0,0,0.61790775,-468.17628,668.28145)" />
    <path
       sodipodi:type="arc"
       style="fill:#ffffff;fill-opacity:1;stroke:#000000;stroke-width:3.4000001;stroke-miterlimit:4;stroke-opacity:1;stroke-dasharray:none"
       id="path3784-9-4-6-8-5"
       sodipodi:cx="300.5"
       sodipodi:cy="121.86217"
       sodipodi:rx="41.5"
       sodipodi:ry="42.5"
       d="m 342,121.86217 a 41.5,42.5 0 1 1 -83,0 41.5,42.5 0 1 1 83,0 z"
       transform="matrix(-0.69670292,0,0,0.61790775,-135.46044,668.77745)" />
    <path
       sodipodi:type="arc"
       style="fill:#000000;fill-opacity:1;stroke:#000000;stroke-width:3.4000001;stroke-miterlimit:4;stroke-opacity:1;stroke-dasharray:none"
       id="path3804-76"
       sodipodi:cx="277"
       sodipodi:cy="183.86217"
       sodipodi:rx="11"
       sodipodi:ry="11.5"
       d="m 288,183.86217 a 11,11.5 0 1 1 -22,0 11,11.5 0 1 1 22,0 z"
       transform="matrix(0.572,0,0,0.572,-489.87126,642.87601)" />
    <path
       sodipodi:type="arc"
       style="fill:#000000;fill-opacity:1;stroke:#000000;stroke-width:3.4000001;stroke-miterlimit:4;stroke-opacity:1;stroke-dasharray:none"
       id="path3804-76-1"
       sodipodi:cx="277"
       sodipodi:cy="183.86217"
       sodipodi:rx="11"
       sodipodi:ry="11.5"
       d="m 288,183.86217 a 11,11.5 0 1 1 -22,0 11,11.5 0 1 1 22,0 z"
       transform="matrix(0.572,0,0,0.572,-430.15744,641.88397)" />
    <path
       sodipodi:type="arc"
       style="fill:none;stroke:#ff0000;stroke-width:4.60500002;stroke-miterlimit:4;stroke-opacity:1;stroke-dasharray:none"
       id="path4025-79"
       sodipodi:cx="844.28571"
       sodipodi:cy="363.07648"
       sodipodi:rx="190"
       sodipodi:ry="160.71428"
       d="m 1034.2857,363.07648 a 190,160.71428 0 1 1 -379.99999,0 190,160.71428 0 1 1 379.99999,0 z"
       transform="matrix(0.16187777,0,0,0.17357998,-11.40577,679.99066)" />
    <path
       style="fill:#cc0000;fill-opacity:1;stroke:#000000;stroke-width:5.72000027;stroke-linecap:butt;stroke-linejoin:miter;stroke-miterlimit:4;stroke-opacity:1;stroke-dasharray:none"
       d="M 181.34101,812.2663 C 76.29963,812.93561 49.38844,746.72958 64.16248,686.78544 c -9.83371,-2.8869 -24.95103,-46.59893 -15.08202,-67.34961 22.92671,-10.80587 56.75481,11.26978 69.5953,18.54665 34.309,-22.2351 93.30343,-22.35626 124.96674,-2.73908 11.7935,-5.50301 38.7859,-26.35791 68.2054,-17.57674 16.8751,23.41441 0.597,61.02781 -17.024,68.67712 24.1871,68.69954 -15.1413,125.68978 -113.48289,125.92252 z"
       id="path4027-5"
       inkscape:connector-curvature="0"
       sodipodi:nodetypes="cccccccc" />
    <path
       style="fill:#000000;fill-opacity:1;stroke:#000000;stroke-width:0.18948144px;stroke-linecap:butt;stroke-linejoin:miter;stroke-opacity:1"
       d="M 72.36839,681.10188 C 57.98448,663.41624 50.26782,634.8195 58.83756,632.33805 c 8.56976,-2.48144 23.620224,0.72386 44.96477,13.13945 l -18.985566,15.36074 z"
       id="path4123-4"
       inkscape:connector-curvature="0"
       sodipodi:nodetypes="csccc" />
    <path
       style="fill:#000000;fill-opacity:1;stroke:#000000;stroke-width:0.18948144px;stroke-linecap:butt;stroke-linejoin:miter;stroke-opacity:1"
       d="m 286.4576,679.53334 c 14.384,-17.68565 22.1006,-46.28238 13.5308,-48.76384 -8.5697,-2.48144 -23.6202,0.72387 -44.9647,13.13946 l 18.9855,15.36074 z"
       id="path4123-2-3"
       inkscape:connector-curvature="0"
       sodipodi:nodetypes="csccc" />
    <path
       style="fill:#000000;fill-opacity:1;stroke:#000000;stroke-width:1.05912066;stroke-miterlimit:4;stroke-opacity:1;stroke-dasharray:none"
       d="m 33.25298,752.51947 c -0.11917,-0.12623 -0.21667,-0.51251 -0.21667,-0.85845 0,-0.61026 0.13153,-0.63476 4.40577,-0.81997 2.42319,-0.10491 10.80861,-0.27656 18.63429,-0.38117 l 14.22849,-0.19031 0,0.8679 0,0.86784 -11.91726,0.19362 c -6.5545,0.10634 -14.84243,0.27375 -18.41761,0.3718 -3.57518,0.0979 -6.59783,0.0749 -6.71701,-0.0515 z"
       id="path4488-1"
       inkscape:connector-curvature="0" />
    <path
       style="fill:#000000;fill-opacity:1;stroke:#000000;stroke-width:1.05912066;stroke-miterlimit:4;stroke-opacity:1;stroke-dasharray:none"
       d="m 43.25784,779.47011 c -0.2669,-0.58573 -0.25898,-0.79399 0.0374,-0.98366 0.77496,-0.49592 10.75487,-4.64253 16.29492,-6.77043 5.1608,-1.98221 16.55441,-5.89755 17.16187,-5.89755 0.13161,0 0.35818,0.35664 0.50352,0.79257 l 0.26422,0.79262 -6.23491,2.05159 c -8.07836,2.65826 -17.0596,6.1263 -26.35099,10.17514 l -1.33742,0.58281 -0.33856,-0.74309 z"
       id="path4490-1-3"
       inkscape:connector-curvature="0" />
    <path
       style="fill:#000000;fill-opacity:1;stroke:#000000;stroke-width:1.05912066;stroke-miterlimit:4;stroke-opacity:1;stroke-dasharray:none"
       d="m 331.4288,753.20038 c 0.1192,-0.1261 0.2166,-0.51251 0.2166,-0.85845 0,-0.61021 -0.1315,-0.6347 -4.4058,-0.81991 -2.4232,-0.10491 -10.8086,-0.27656 -18.6342,-0.38124 l -14.2285,-0.19024 0,0.86784 0,0.86789 11.9173,0.19356 c 6.5545,0.1066 14.8423,0.27382 18.4176,0.3718 3.5751,0.0981 6.5977,0.0749 6.717,-0.0515 z"
       id="path4488-4-3"
       inkscape:connector-curvature="0" />
    <path
       style="fill:#000000;fill-opacity:1;stroke:#000000;stroke-width:1.05912066;stroke-miterlimit:4;stroke-opacity:1;stroke-dasharray:none"
       d="m 319.424,780.15107 c 0.2667,-0.58578 0.2588,-0.79404 -0.037,-0.98365 -0.7751,-0.49599 -10.7549,-4.64259 -16.295,-6.77048 -5.1608,-1.98222 -16.5544,-5.89756 -17.1619,-5.89756 -0.1317,0 -0.3582,0.3567 -0.5035,0.79263 l -0.2642,0.79256 6.2349,2.05164 c 8.0783,2.65827 17.0595,6.12624 26.351,10.17514 l 1.3373,0.58282 0.3386,-0.7431 z"
       id="path4490-1-9-1"
       inkscape:connector-curvature="0" />
    <path
       sodipodi:type="arc"
       style="fill:#000000;fill-opacity:1;stroke:#000000;stroke-width:3.4000001;stroke-miterlimit:4;stroke-opacity:1;stroke-dasharray:none"
       id="path3804-0-1"
       sodipodi:cx="277"
       sodipodi:cy="183.86217"
       sodipodi:rx="11"
       sodipodi:ry="11.5"
       d="m 288,183.86217 a 11,11.5 0 1 1 -22,0 11,11.5 0 1 1 22,0 z"
       transform="matrix(0.80216725,0,0,0.67016509,-36.20592,651.26268)" />
    <path
       sodipodi:type="arc"
       style="fill:#ffffff;fill-opacity:1;stroke:#000000;stroke-width:3.4000001;stroke-miterlimit:4;stroke-opacity:1;stroke-dasharray:none"
       id="path3784-9-4-6-8-3"
       sodipodi:cx="300.5"
       sodipodi:cy="121.86217"
       sodipodi:rx="41.5"
       sodipodi:ry="42.5"
       d="m 342,121.86217 a 41.5,42.5 0 1 1 -83,0 41.5,42.5 0 1 1 83,0 z"
       transform="matrix(0.69670292,0,0,0.61790775,18.78929,662.27203)" />
    <path
       sodipodi:type="arc"
       style="fill:#ffffff;fill-opacity:1;stroke:#000000;stroke-width:3.4000001;stroke-miterlimit:4;stroke-opacity:1;stroke-dasharray:none"
       id="path3784-9-4-6-8-5-8"
       sodipodi:cx="300.5"
       sodipodi:cy="121.86217"
       sodipodi:rx="41.5"
       sodipodi:ry="42.5"
       d="m 342,121.86217 a 41.5,42.5 0 1 1 -83,0 41.5,42.5 0 1 1 83,0 z"
       transform="matrix(-0.69670292,0,0,0.61790775,351.5051,662.76804)" />
    <path
       sodipodi:type="arc"
       style="fill:#000000;fill-opacity:1;stroke:#000000;stroke-width:3.4000001;stroke-miterlimit:4;stroke-opacity:1;stroke-dasharray:none"
       id="path3804-76-7"
       sodipodi:cx="277"
       sodipodi:cy="183.86217"
       sodipodi:rx="11"
       sodipodi:ry="11.5"
       d="m 288,183.86217 a 11,11.5 0 1 1 -22,0 11,11.5 0 1 1 22,0 z"
       transform="matrix(0.572,0,0,0.572,-2.9056997,636.86658)" />
    <path
       sodipodi:type="arc"
       style="fill:#000000;fill-opacity:1;stroke:#000000;stroke-width:3.4000001;stroke-miterlimit:4;stroke-opacity:1;stroke-dasharray:none"
       id="path3804-76-1-4"
       sodipodi:cx="277"
       sodipodi:cy="183.86217"
       sodipodi:rx="11"
       sodipodi:ry="11.5"
       d="m 288,183.86217 a 11,11.5 0 1 1 -22,0 11,11.5 0 1 1 22,0 z"
       transform="matrix(0.572,0,0,0.572,56.80811,635.87455)" />
    <path
       style="fill:none;stroke:#000000;stroke-width:3.64019132;stroke-linecap:butt;stroke-linejoin:miter;stroke-miterlimit:4;stroke-opacity:1;stroke-dasharray:none"
       d="M -93.64801,281.35308 C 142.12956,590.64628 139.0475,592.83986 139.0475,592.83986"
       id="path3084-1"
       inkscape:connector-curvature="0" />
    <flowRoot
       xml:space="preserve"
       id="flowRoot3019-7"
       style="font-size:40px;font-style:normal;font-weight:normal;line-height:125%;letter-spacing:0px;word-spacing:0px;fill:#000000;fill-opacity:1;stroke:none;font-family:Sans"
       transform="translate(-488.24032,552.13536)"><flowRegion
         id="flowRegion3021-4"><rect
           id="rect3023-0"
           width="385.87827"
           height="230.31477"
           x="-28.284271"
           y="105.00485" /></flowRegion><flowPara
         id="flowPara3025-9"
         style="font-size:144px">/</flowPara></flowRoot>    <flowRoot
       xml:space="preserve"
       id="flowRoot3019-7-4"
       style="font-size:40px;font-style:normal;font-weight:normal;line-height:125%;letter-spacing:0px;word-spacing:0px;fill:#000000;fill-opacity:1;stroke:none;font-family:Sans"
       transform="translate(6.7344303,550.19627)"><flowRegion
         id="flowRegion3021-4-8"><rect
           id="rect3023-0-8"
           width="385.87827"
           height="230.31477"
           x="-28.284271"
           y="105.00485" /></flowRegion><flowPara
         id="flowPara3025-9-2"
         style="font-size:144px">/</flowPara></flowRoot>    <path
       style="fill:none;stroke:#000000;stroke-width:3.64019132;stroke-linecap:butt;stroke-linejoin:miter;stroke-miterlimit:4;stroke-opacity:1;stroke-dasharray:none"
       d="m -145.81352,285.39369 c -235.77757,309.2932 -232.69551,311.48678 -232.69551,311.48678"
       id="path3084-1-4"
       inkscape:connector-curvature="0" />
  </g>
</svg>
