<?xml version="1.0" encoding="UTF-8" standalone="no"?>
<!-- Created with Inkscape (http://www.inkscape.org/) -->

<svg
   xmlns:dc="http://purl.org/dc/elements/1.1/"
   xmlns:cc="http://creativecommons.org/ns#"
   xmlns:rdf="http://www.w3.org/1999/02/22-rdf-syntax-ns#"
   xmlns:svg="http://www.w3.org/2000/svg"
   xmlns="http://www.w3.org/2000/svg"
   xmlns:sodipodi="http://sodipodi.sourceforge.net/DTD/sodipodi-0.dtd"
   xmlns:inkscape="http://www.inkscape.org/namespaces/inkscape"
   width="1000"
   height="1000"
   id="svg5163"
   version="1.1"
   inkscape:version="0.48.4 r9939"
   sodipodi:docname="softwareEngineering2.png">
  <defs
     id="defs5165" />
  <sodipodi:namedview
     id="base"
     pagecolor="#ffffff"
     bordercolor="#666666"
     borderopacity="1.0"
     inkscape:pageopacity="0.0"
     inkscape:pageshadow="2"
     inkscape:zoom="0.5"
     inkscape:cx="637.9488"
     inkscape:cy="697.47089"
     inkscape:document-units="px"
     inkscape:current-layer="layer1"
     showgrid="false"
     inkscape:window-width="1920"
     inkscape:window-height="1020"
     inkscape:window-x="-4"
     inkscape:window-y="-4"
     inkscape:window-maximized="1"
     fit-margin-top="0"
     fit-margin-left="0"
     fit-margin-right="0"
     fit-margin-bottom="0" />
  <metadata
     id="metadata5168">
    <rdf:RDF>
      <cc:Work
         rdf:about="">
        <dc:format>image/svg+xml</dc:format>
        <dc:type
           rdf:resource="http://purl.org/dc/dcmitype/StillImage" />
        <dc:title></dc:title>
      </cc:Work>
    </rdf:RDF>
  </metadata>
  <g
     inkscape:label="Layer 1"
     inkscape:groupmode="layer"
     id="layer1"
     transform="translate(605.61413,-0.76158374)">
    <path
       sodipodi:type="arc"
       style="fill:none;stroke:#ff0000;stroke-width:4.60500002;stroke-miterlimit:4;stroke-opacity:1;stroke-dasharray:none"
       id="path4025-7-0"
       sodipodi:cx="844.28571"
       sodipodi:cy="363.07648"
       sodipodi:rx="190"
       sodipodi:ry="160.71428"
       d="m 1034.2857,363.07648 a 190,160.71428 0 1 1 -379.99999,0 190,160.71428 0 1 1 379.99999,0 z"
       transform="matrix(0.16187777,0,0,0.17357998,-622.64295,417.67248)" />
    <path
       style="fill:#ffffff;fill-opacity:1;stroke:#000000;stroke-width:5.72000027;stroke-linecap:butt;stroke-linejoin:miter;stroke-miterlimit:4;stroke-opacity:1;stroke-dasharray:22.88000107, 22.88000107;stroke-dashoffset:0"
       d="m -424.23929,588.1319 c -105.0414,0.66929 -131.95259,-65.53675 -117.17854,-125.48089 -9.83375,-2.88691 -24.95105,-46.59893 -15.08204,-67.34962 22.92672,-10.80585 56.7548,11.2698 69.59527,18.54667 34.30903,-22.2351 93.30344,-22.35626 124.96674,-2.73907 11.79351,-5.50303 38.78602,-26.35792 68.20545,-17.57677 16.87512,23.41442 0.59706,61.02782 -17.02406,68.67713 24.1872,68.69954 -15.14124,125.68979 -113.48282,125.92255 z"
       id="path4027-6-9"
       inkscape:connector-curvature="0"
       sodipodi:nodetypes="cccccccc" />
    <path
       sodipodi:type="arc"
       style="fill:none;stroke:#ff0000;stroke-width:4.60500002;stroke-miterlimit:4;stroke-opacity:1;stroke-dasharray:none"
       id="path4025-7-0-3-8"
       sodipodi:cx="844.28571"
       sodipodi:cy="363.07648"
       sodipodi:rx="190"
       sodipodi:ry="160.71428"
       d="m 1034.2857,363.07648 a 190,160.71428 0 1 1 -379.99999,0 190,160.71428 0 1 1 379.99999,0 z"
       transform="matrix(0.16187777,0,0,0.17357998,24.941959,462.43195)" />
    <path
       style="fill:#ffffff;fill-opacity:1;stroke:#000000;stroke-width:5.72000027;stroke-linecap:butt;stroke-linejoin:miter;stroke-miterlimit:4;stroke-opacity:1;stroke-dasharray:none"
       d="M 217.68877,594.70758 C 112.64737,595.37687 85.736179,529.17083 100.51023,469.22671 90.676479,466.3398 75.559179,422.62778 85.428189,401.87709 c 22.926721,-10.80586 56.754801,11.2698 69.595271,18.54667 34.30903,-22.23511 93.30344,-22.35627 124.96674,-2.73907 11.79351,-5.50303 38.78602,-26.35793 68.20545,-17.57677 16.87515,23.41442 0.59706,61.02782 -17.02406,68.67713 24.18721,68.69952 -15.14124,125.68977 -113.48282,125.92253 z"
       id="path4027-6-9-3-0"
       inkscape:connector-curvature="0"
       sodipodi:nodetypes="cccccccc" />
    <path
       style="fill:#cc0000;fill-opacity:1;stroke:#000000;stroke-width:5.72000027;stroke-linecap:butt;stroke-linejoin:miter;stroke-miterlimit:4;stroke-opacity:1;stroke-dasharray:none"
       d="m 108.7161,463.54313 c -14.383901,-17.68561 -22.100551,-46.28237 -13.530801,-48.7638 8.569751,-2.48145 23.620191,0.72385 44.964761,13.13944 l -18.98555,15.36074 z"
       id="path4123-1-5-1"
       inkscape:connector-curvature="0"
       sodipodi:nodetypes="csccc" />
    <path
       style="fill:#cc0000;fill-opacity:1;stroke:#000000;stroke-width:5.72000027;stroke-linecap:butt;stroke-linejoin:miter;stroke-miterlimit:4;stroke-opacity:1;stroke-dasharray:none"
       d="m 322.80533,461.97461 c 14.38392,-17.68563 22.10056,-46.28238 13.53081,-48.76382 -8.56977,-2.48146 -23.62021,0.72385 -44.96475,13.13944 l 18.98554,15.36074 z"
       id="path4123-2-4-9-2"
       inkscape:connector-curvature="0"
       sodipodi:nodetypes="csccc" />
    <path
       style="fill:#000000;fill-opacity:1;stroke:#000000;stroke-width:1.05912066;stroke-miterlimit:4;stroke-opacity:1;stroke-dasharray:none"
       d="m 63.600709,534.96071 c -0.11908,-0.12623 -0.21667,-0.51251 -0.21667,-0.85846 0,-0.61024 0.13156,-0.63471 4.40576,-0.81993 2.4232,-0.10491 10.80862,-0.27657 18.63429,-0.38122 l 14.228501,-0.19026 0,0.86788 0,0.86786 -11.917251,0.1936 c -6.55451,0.1066 -14.84244,0.27378 -18.41762,0.3718 -3.57519,0.0982 -6.59784,0.0749 -6.71701,-0.0512 z"
       id="path4488-2-9-5"
       inkscape:connector-curvature="0" />
    <path
       style="fill:#000000;fill-opacity:1;stroke:#000000;stroke-width:1.05912066;stroke-miterlimit:4;stroke-opacity:1;stroke-dasharray:none"
       d="m 73.605559,561.91137 c -0.26689,-0.58574 -0.25897,-0.794 0.0373,-0.98364 0.77497,-0.49598 10.75488,-4.64256 16.29493,-6.77046 5.16078,-1.98221 16.554411,-5.89755 17.161871,-5.89755 0.1317,0 0.35822,0.35666 0.50352,0.79258 l 0.2642,0.79259 -6.23488,2.05162 c -8.078371,2.65825 -17.059601,6.12626 -26.351001,10.17514 l -1.33743,0.58281 -0.33856,-0.74309 z"
       id="path4490-1-2-8-0"
       inkscape:connector-curvature="0" />
    <path
       style="fill:#000000;fill-opacity:1;stroke:#000000;stroke-width:1.05912066;stroke-miterlimit:4;stroke-opacity:1;stroke-dasharray:none"
       d="m 373.7765,535.64165 c 0.1192,-0.12623 0.2167,-0.51251 0.2167,-0.85846 0,-0.61023 -0.1315,-0.63471 -4.4058,-0.81993 -2.4232,-0.10491 -10.8086,-0.27655 -18.6343,-0.38122 l -14.22848,-0.19028 0,0.86787 0,0.86789 11.91726,0.19359 c 6.55452,0.1066 14.84242,0.27379 18.41762,0.37178 3.5752,0.0981 6.5979,0.0749 6.717,-0.0512 z"
       id="path4488-4-2-1-9"
       inkscape:connector-curvature="0" />
    <path
       style="fill:#000000;fill-opacity:1;stroke:#000000;stroke-width:1.05912066;stroke-miterlimit:4;stroke-opacity:1;stroke-dasharray:none"
       d="m 361.7716,562.59231 c 0.2669,-0.58575 0.2591,-0.794 -0.037,-0.98364 -0.7749,-0.49598 -10.7548,-4.64258 -16.29487,-6.77046 -5.16079,-1.98222 -16.55443,-5.89756 -17.16189,-5.89756 -0.13163,0 -0.35821,0.35667 -0.50352,0.79258 l -0.2642,0.7926 6.23488,2.05163 c 8.07838,2.65826 17.0596,6.12625 26.351,10.17514 l 1.3374,0.58279 0.3386,-0.74308 z"
       id="path4490-1-9-6-8-4"
       inkscape:connector-curvature="0" />
    <path
       sodipodi:type="arc"
       style="fill:#cc0000;fill-opacity:1;stroke:#000000;stroke-width:3.39985108;stroke-miterlimit:4;stroke-opacity:1;stroke-dasharray:none"
       id="path3804-0-8-2-7"
       sodipodi:cx="277"
       sodipodi:cy="183.86217"
       sodipodi:rx="11"
       sodipodi:ry="11.5"
       d="m 288,183.86217 a 11,11.5 0 1 1 -22,0 11,11.5 0 1 1 22,0 z"
       transform="matrix(0.80216725,0,0,0.67016509,0.14185882,433.70396)" />
    <path
       sodipodi:type="arc"
       style="fill:#ffffff;fill-opacity:1;stroke:#000000;stroke-width:3.4000001;stroke-miterlimit:4;stroke-opacity:1;stroke-dasharray:none"
       id="path3784-9-4-6-8-57-6-8"
       sodipodi:cx="300.5"
       sodipodi:cy="121.86217"
       sodipodi:rx="41.5"
       sodipodi:ry="42.5"
       d="m 342,121.86217 a 41.5,42.5 0 1 1 -83,0 41.5,42.5 0 1 1 83,0 z"
       transform="matrix(0.69670292,0,0,0.61790775,55.137059,444.71331)" />
    <path
       sodipodi:type="arc"
       style="fill:#ffffff;fill-opacity:1;stroke:#000000;stroke-width:3.4000001;stroke-miterlimit:4;stroke-opacity:1;stroke-dasharray:none"
       id="path3784-9-4-6-8-5-6-6-3"
       sodipodi:cx="300.5"
       sodipodi:cy="121.86217"
       sodipodi:rx="41.5"
       sodipodi:ry="42.5"
       d="m 342,121.86217 a 41.5,42.5 0 1 1 -83,0 41.5,42.5 0 1 1 83,0 z"
       transform="matrix(-0.69670292,0,0,0.61790775,387.85278,445.20932)" />
    <path
       sodipodi:type="arc"
       style="fill:#000000;fill-opacity:1;stroke:#000000;stroke-width:3.4000001;stroke-miterlimit:4;stroke-opacity:1;stroke-dasharray:none"
       id="path3804-76-18-0-5"
       sodipodi:cx="277"
       sodipodi:cy="183.86217"
       sodipodi:rx="11"
       sodipodi:ry="11.5"
       d="m 288,183.86217 a 11,11.5 0 1 1 -22,0 11,11.5 0 1 1 22,0 z"
       transform="matrix(0.572,0,0,0.572,33.442059,419.30786)" />
    <path
       sodipodi:type="arc"
       style="fill:#000000;fill-opacity:1;stroke:#000000;stroke-width:3.4000001;stroke-miterlimit:4;stroke-opacity:1;stroke-dasharray:none"
       id="path3804-76-1-9-3-1"
       sodipodi:cx="277"
       sodipodi:cy="183.86217"
       sodipodi:rx="11"
       sodipodi:ry="11.5"
       d="m 288,183.86217 a 11,11.5 0 1 1 -22,0 11,11.5 0 1 1 22,0 z"
       transform="matrix(0.572,0,0,0.572,93.155859,418.31583)" />
    <flowRoot
       xml:space="preserve"
       id="flowRoot4235-8-7-1-4-4-8-7-8"
       style="font-size:40px;font-style:normal;font-weight:normal;line-height:125%;letter-spacing:0px;word-spacing:0px;fill:#000000;fill-opacity:1;stroke:none;font-family:Sans"
       transform="matrix(3.6968464,0,0,-1.5912958,-336.95321,1135.3622)"><flowRegion
         id="flowRegion4237-4-8-3-0-3-0-8-3"><rect
           id="rect4239-9-8-5-7-9-8-3-4"
           width="411.59058"
           height="275.9422"
           x="15.794672"
           y="337.55286" /></flowRegion><flowPara
         id="flowPara4241-6-2-9-6-8-7-8-8"
         style="font-size:96.34435272px">→</flowPara></flowRoot>  </g>
</svg>
