<?xml version="1.0" encoding="UTF-8" standalone="no"?>
<!-- Created with Inkscape (http://www.inkscape.org/) -->

<svg
   xmlns:dc="http://purl.org/dc/elements/1.1/"
   xmlns:cc="http://creativecommons.org/ns#"
   xmlns:rdf="http://www.w3.org/1999/02/22-rdf-syntax-ns#"
   xmlns:svg="http://www.w3.org/2000/svg"
   xmlns="http://www.w3.org/2000/svg"
   xmlns:sodipodi="http://sodipodi.sourceforge.net/DTD/sodipodi-0.dtd"
   xmlns:inkscape="http://www.inkscape.org/namespaces/inkscape"
   width="1000"
   height="1000"
   id="svg5163"
   version="1.1"
   inkscape:version="0.48.4 r9939"
   sodipodi:docname="osConcepts.png">
  <defs
     id="defs5165" />
  <sodipodi:namedview
     id="base"
     pagecolor="#ffffff"
     bordercolor="#666666"
     borderopacity="1.0"
     inkscape:pageopacity="0.0"
     inkscape:pageshadow="2"
     inkscape:zoom="0.49497475"
     inkscape:cx="324.00715"
     inkscape:cy="637.76837"
     inkscape:document-units="px"
     inkscape:current-layer="layer1"
     showgrid="false"
     inkscape:window-width="1920"
     inkscape:window-height="1020"
     inkscape:window-x="-4"
     inkscape:window-y="-4"
     inkscape:window-maximized="1"
     fit-margin-top="0"
     fit-margin-left="0"
     fit-margin-right="0"
     fit-margin-bottom="0" />
  <metadata
     id="metadata5168">
    <rdf:RDF>
      <cc:Work
         rdf:about="">
        <dc:format>image/svg+xml</dc:format>
        <dc:type
           rdf:resource="http://purl.org/dc/dcmitype/StillImage" />
        <dc:title></dc:title>
      </cc:Work>
    </rdf:RDF>
  </metadata>
  <g
     inkscape:label="Layer 1"
     inkscape:groupmode="layer"
     id="layer1"
     transform="translate(605.61413,-0.76158374)">
    <flowRoot
       xml:space="preserve"
       id="flowRoot3053"
       style="font-size:40px;font-style:normal;font-weight:normal;line-height:125%;letter-spacing:0px;word-spacing:0px;fill:#000000;fill-opacity:1;stroke:none;font-family:Sans"
       transform="translate(-551.06589,245.2185)"><flowRegion
         id="flowRegion3055"><rect
           id="rect3057"
           width="315.1676"
           height="163.64471"
           x="-24.24366"
           y="-50.55864" /></flowRegion><flowPara
         id="flowPara3059"
         style="font-size:400px">[</flowPara></flowRoot>    <flowRoot
       xml:space="preserve"
       id="flowRoot3061"
       style="font-size:40px;font-style:normal;font-weight:normal;line-height:125%;letter-spacing:0px;word-spacing:0px;fill:#000000;fill-opacity:1;stroke:none;font-family:Sans"
       transform="translate(-605.61413,0.76158374)"><flowRegion
         id="flowRegion3063"><rect
           id="rect3065"
           width="531.34021"
           height="725.28955"
           x="26.263966"
           y="121.16729" /></flowRegion><flowPara
         id="flowPara3067"
         style="font-size:800px">[</flowPara></flowRoot>    <path
       style="fill:none;stroke:#000000;stroke-width:10;stroke-linecap:butt;stroke-linejoin:miter;stroke-miterlimit:4;stroke-opacity:1;stroke-dasharray:none"
       d="m -150.60809,741.76584 c 146.3398308,125.51104 223.372071,51.02276 244.558431,-70.161 50.330219,146.1072 200.240179,-73.60238 40.896299,-71.75056 251.74675,-42.18352 93.54214,-312.18218 -20,-85.09792 225.34809,-798.59322 -1070.25555,-47.0405 -305.61571,159.25746 -381.43958,-37.10846 67.1528,334.92408 40.16098,67.75202 z"
       id="path3985"
       inkscape:connector-curvature="0"
       sodipodi:nodetypes="cccccc" />
    <path
       style="fill:none;stroke:#000000;stroke-width:16.09978676000000100;stroke-linecap:butt;stroke-linejoin:miter;stroke-miterlimit:4;stroke-opacity:1;stroke-dasharray:none"
       d="M 272.85721,562.87784 C 365.19008,478.4874 262.88579,379.08216 261.91304,378.78432"
       id="path4495"
       inkscape:connector-curvature="0"
       sodipodi:nodetypes="cc" />
    <path
       style="fill:none;stroke:#000000;stroke-width:16;stroke-linecap:butt;stroke-linejoin:miter;stroke-miterlimit:4;stroke-opacity:1;stroke-dasharray:none"
       d="m -447.46355,566.60655 c -92.97742,-74.4044 -9.05753,-201.10154 -9.33675,-209.12983"
       id="path4495-1"
       inkscape:connector-curvature="0"
       sodipodi:nodetypes="cc" />
    <path
       style="fill:none;stroke:#000000;stroke-width:16;stroke-linecap:butt;stroke-linejoin:miter;stroke-miterlimit:4;stroke-opacity:1;stroke-dasharray:none"
       d="m -137.98864,857.77754 c -87.77374,60.52068 -155.09838,25.50498 -163.1172,25.9846"
       id="path4495-1-7"
       inkscape:connector-curvature="0"
       sodipodi:nodetypes="cc" />
    <path
       style="fill:none;stroke:#000000;stroke-width:16;stroke-linecap:butt;stroke-linejoin:miter;stroke-miterlimit:4;stroke-opacity:1;stroke-dasharray:none"
       d="m 253.67551,627.96192 c 9.36912,104.80642 -79.3841,119.79072 -87.40292,120.27034"
       id="path4495-1-7-4"
       inkscape:connector-curvature="0"
       sodipodi:nodetypes="cc" />
    <path
       sodipodi:type="arc"
       style="fill:none;stroke:#ff0000;stroke-width:4.60500002;stroke-miterlimit:4;stroke-opacity:1;stroke-dasharray:none"
       id="path4025-7-0"
       sodipodi:cx="844.28571"
       sodipodi:cy="363.07648"
       sodipodi:rx="190"
       sodipodi:ry="160.71428"
       d="m 1034.2857,363.07648 a 190,160.71428 0 1 1 -379.99999,0 190,160.71428 0 1 1 379.99999,0 z"
       transform="matrix(0.14320146,-0.07548348,0.0809402,0.15355356,-291.07689,521.05854)" />
    <path
       style="fill:#ffffff;fill-opacity:1;stroke:#000000;stroke-width:5.72000027;stroke-linecap:butt;stroke-linejoin:miter;stroke-miterlimit:4;stroke-opacity:1;stroke-dasharray:none"
       d="m -58.887725,548.19544 c -92.610375,49.5728 -147.288585,3.55381 -162.171005,-56.3635 -10.04531,2.03161 -43.80137,-29.58804 -44.74702,-52.54657 15.24282,-20.24986 55.46193,-16.49515 70.2141,-16.04529 19.98255,-35.6681 72.1141,-63.28433 109.271793,-60.69499 7.866791,-10.36743 22.020464,-41.40283 52.140309,-47.35301 25.8463848,12.84414 28.9854326,53.70843 16.964197,68.69192 53.431192,49.49501 45.214644,118.24897 -41.672374,164.31144 z"
       id="path4027-6-9"
       inkscape:connector-curvature="0"
       sodipodi:nodetypes="cccccccc" />
    <path
       style="fill:#cc0000;fill-opacity:1;stroke:#000000;stroke-width:5.71999979;stroke-linecap:butt;stroke-linejoin:miter;stroke-miterlimit:4;stroke-opacity:1;stroke-dasharray:none"
       d="m -216.44981,482.97768 c -20.97118,-8.93797 -41.13223,-30.63713 -34.70824,-36.82837 6.4239,-6.1912 21.2326,-10.37374 45.9039,-9.34349 l -9.63238,22.44144 z"
       id="path4123-1-4"
       inkscape:connector-curvature="0"
       sodipodi:nodetypes="csccc" />
    <path
       style="fill:#cc0000;fill-opacity:1;stroke:#000000;stroke-width:5.72000027;stroke-linecap:butt;stroke-linejoin:miter;stroke-miterlimit:4;stroke-opacity:1;stroke-dasharray:none"
       d="m -27.792109,381.76051 c 4.477593,-22.35239 -2.030646,-51.24814 -10.768816,-49.4472 -8.738092,1.80087 -20.557538,11.65441 -33.650081,32.5905 l 23.957788,4.7356 z"
       id="path4123-2-4-8"
       inkscape:connector-curvature="0"
       sodipodi:nodetypes="csccc" />
    <path
       style="fill:#000000;fill-opacity:1;stroke:#000000;stroke-width:1.05912066;stroke-miterlimit:4;stroke-opacity:1;stroke-dasharray:none"
       d="m -223.05816,567.1929 c -0.16421,-0.0561 -0.43067,-0.35233 -0.59199,-0.65837 -0.28455,-0.53983 -0.17955,-0.62284 3.51516,-2.77975 2.0947,-1.22275 9.43262,-5.2847 16.30664,-9.02639 l 12.49821,-6.80306 0.40468,0.76775 0.40468,0.76774 -10.45208,5.72829 c -5.7486,3.15066 -13.00234,7.16319 -16.11935,8.91701 -3.11693,1.75398 -5.80166,3.14282 -5.96591,3.08685 z"
       id="path4488-2-8"
       inkscape:connector-curvature="0" />
    <path
       style="fill:#000000;fill-opacity:1;stroke:#000000;stroke-width:1.05912066;stroke-miterlimit:4;stroke-opacity:1;stroke-dasharray:none"
       d="m -201.64056,586.36896 c -0.50916,-0.39375 -0.59927,-0.58168 -0.42595,-0.88741 0.45432,-0.80014 7.34926,-9.12194 11.25794,-13.58768 3.64109,-4.15999 11.89445,-12.93644 12.43177,-13.21967 0.11651,-0.0614 0.48327,0.14844 0.81508,0.46631 l 0.60331,0.57796 -4.5589,4.72225 c -5.90683,6.1185 -12.23471,13.37433 -18.56614,21.28865 l -0.91135,1.13919 -0.64604,-0.49946 z"
       id="path4490-1-2-2"
       inkscape:connector-curvature="0" />
    <path
       style="fill:#000000;fill-opacity:1;stroke:#000000;stroke-width:1.05912066;stroke-miterlimit:4;stroke-opacity:1;stroke-dasharray:none"
       d="m 51.649285,423.16055 c 0.04659,-0.16724 -0.04728,-0.55443 -0.208601,-0.86046 -0.284549,-0.53983 -0.412381,-0.50012 -4.279823,1.32908 -2.192548,1.03713 -9.690535,4.79541 -16.662168,8.35192 l -12.675645,6.46641 0.404687,0.76775 0.404697,0.76775 10.632637,-5.38576 c 5.847995,-2.96205 13.257657,-6.67881 16.466069,-8.25923 3.208463,-1.58033 5.871517,-3.01029 5.918166,-3.17742 z"
       id="path4488-4-2-4"
       inkscape:connector-curvature="0" />
    <path
       style="fill:#000000;fill-opacity:1;stroke:#000000;stroke-width:1.05912066;stroke-miterlimit:4;stroke-opacity:1;stroke-dasharray:none"
       d="m 53.596495,452.59971 c -0.03706,-0.64262 -0.141122,-0.82316 -0.4914,-0.8529 -0.916775,-0.0774 -11.678819,0.90801 -17.571971,1.60896 -5.489692,0.65296 -17.394498,2.50217 -17.931908,2.78544 -0.116416,0.0614 -0.150558,0.48254 -0.07583,0.93592 l 0.135869,0.82436 6.472235,-1.09241 c 8.385916,-1.41538 17.94805,-2.53542 28.055468,-3.28625 l 1.454855,-0.10807 -0.04695,-0.81524 z"
       id="path4490-1-9-6-5"
       inkscape:connector-curvature="0" />
    <path
       sodipodi:type="arc"
       style="fill:#cc0000;fill-opacity:1;stroke:#000000;stroke-width:3.39985108;stroke-miterlimit:4;stroke-opacity:1;stroke-dasharray:none"
       id="path3804-0-8-5"
       sodipodi:cx="277"
       sodipodi:cy="183.86217"
       sodipodi:rx="11"
       sodipodi:ry="11.5"
       d="m 288,183.86217 a 11,11.5 0 1 1 -22,0 11,11.5 0 1 1 22,0 z"
       transform="matrix(0.70961887,-0.37404994,0.31249744,0.59284618,-326.41157,507.20925)" />
    <path
       sodipodi:type="arc"
       style="fill:#ffffff;fill-opacity:1;stroke:#000000;stroke-width:3.4000001;stroke-miterlimit:4;stroke-opacity:1;stroke-dasharray:none"
       id="path3784-9-4-6-8-57-1"
       sodipodi:cx="300.5"
       sodipodi:cy="121.86217"
       sodipodi:rx="41.5"
       sodipodi:ry="42.5"
       d="m 342,121.86217 a 41.5,42.5 0 1 1 -83,0 41.5,42.5 0 1 1 83,0 z"
       transform="matrix(0.61632227,-0.324872,0.28812988,0.54661793,-272.62767,491.3042)" />
    <path
       sodipodi:type="arc"
       style="fill:#ffffff;fill-opacity:1;stroke:#000000;stroke-width:3.4000001;stroke-miterlimit:4;stroke-opacity:1;stroke-dasharray:none"
       id="path3784-9-4-6-8-5-6-7"
       sodipodi:cx="300.5"
       sodipodi:cy="121.86217"
       sodipodi:rx="41.5"
       sodipodi:ry="42.5"
       d="m 342,121.86217 a 41.5,42.5 0 1 1 -83,0 41.5,42.5 0 1 1 83,0 z"
       transform="matrix(-0.61632227,0.324872,0.28812988,0.54661793,21.933028,336.59788)" />
    <path
       sodipodi:type="arc"
       style="fill:#000000;fill-opacity:1;stroke:#000000;stroke-width:3.4000001;stroke-miterlimit:4;stroke-opacity:1;stroke-dasharray:none"
       id="path3804-76-18-1"
       sodipodi:cx="277"
       sodipodi:cy="183.86217"
       sodipodi:rx="11"
       sodipodi:ry="11.5"
       d="m 288,183.86217 a 11,11.5 0 1 1 -22,0 11,11.5 0 1 1 22,0 z"
       transform="matrix(0.50600669,-0.26672314,0.26672314,0.50600669,-303.6662,478.94622)" />
    <path
       sodipodi:type="arc"
       style="fill:#000000;fill-opacity:1;stroke:#000000;stroke-width:3.4000001;stroke-miterlimit:4;stroke-opacity:1;stroke-dasharray:none"
       id="path3804-76-1-9-1"
       sodipodi:cx="277"
       sodipodi:cy="183.86217"
       sodipodi:rx="11"
       sodipodi:ry="11.5"
       d="m 288,183.86217 a 11,11.5 0 1 1 -22,0 11,11.5 0 1 1 22,0 z"
       transform="matrix(0.50600669,-0.26672314,0.26672314,0.50600669,-251.30433,450.22414)" />
  </g>
</svg>
