<?xml version="1.0" encoding="UTF-8" standalone="no"?>
<!-- Created with Inkscape (http://www.inkscape.org/) -->

<svg
   xmlns:dc="http://purl.org/dc/elements/1.1/"
   xmlns:cc="http://creativecommons.org/ns#"
   xmlns:rdf="http://www.w3.org/1999/02/22-rdf-syntax-ns#"
   xmlns:svg="http://www.w3.org/2000/svg"
   xmlns="http://www.w3.org/2000/svg"
   xmlns:sodipodi="http://sodipodi.sourceforge.net/DTD/sodipodi-0.dtd"
   xmlns:inkscape="http://www.inkscape.org/namespaces/inkscape"
   width="1000"
   height="1000"
   id="svg5163"
   version="1.1"
   inkscape:version="0.48.4 r9939"
   sodipodi:docname="discreteMath.png">
  <defs
     id="defs5165" />
  <sodipodi:namedview
     id="base"
     pagecolor="#ffffff"
     bordercolor="#666666"
     borderopacity="1.0"
     inkscape:pageopacity="0.0"
     inkscape:pageshadow="2"
     inkscape:zoom="1.0763123"
     inkscape:cx="666.33597"
     inkscape:cy="415.62907"
     inkscape:document-units="px"
     inkscape:current-layer="layer1"
     showgrid="false"
     inkscape:window-width="1920"
     inkscape:window-height="1020"
     inkscape:window-x="-4"
     inkscape:window-y="-4"
     inkscape:window-maximized="1"
     fit-margin-top="0"
     fit-margin-left="0"
     fit-margin-right="0"
     fit-margin-bottom="0" />
  <metadata
     id="metadata5168">
    <rdf:RDF>
      <cc:Work
         rdf:about="">
        <dc:format>image/svg+xml</dc:format>
        <dc:type
           rdf:resource="http://purl.org/dc/dcmitype/StillImage" />
        <dc:title></dc:title>
      </cc:Work>
    </rdf:RDF>
  </metadata>
  <g
     inkscape:label="Layer 1"
     inkscape:groupmode="layer"
     id="layer1"
     transform="translate(605.61413,-0.76158374)">
    <path
       sodipodi:type="arc"
       style="fill:none;stroke:#ff0000;stroke-width:4.60500002;stroke-miterlimit:4;stroke-opacity:1;stroke-dasharray:none"
       id="path4025"
       sodipodi:cx="844.28571"
       sodipodi:cy="363.07648"
       sodipodi:rx="190"
       sodipodi:ry="160.71428"
       d="m 1034.2857,363.07648 c 0,88.76004 -85.06589,160.71428 -189.99999,160.71428 -104.93411,0 -190,-71.95424 -190,-160.71428 0,-88.76005 85.06589,-160.71428 190,-160.71428 104.9341,0 189.99999,71.95423 189.99999,160.71428 z"
       transform="matrix(0.16187777,0,0,0.17357998,-617.07857,180.79419)" />
    <path
       style="fill:#000000;fill-opacity:1;stroke:#000000;stroke-width:5.72;stroke-linecap:butt;stroke-linejoin:miter;stroke-miterlimit:4;stroke-opacity:1;stroke-dasharray:none"
       d="m -424.33177,313.06984 c -105.04139,0.66931 -131.9526,-65.53673 -117.17853,-125.48087 -9.83374,-2.88691 -24.95105,-46.59892 -15.08205,-67.34961 22.92674,-10.80586 56.7548,11.2698 69.59527,18.54667 34.30904,-22.2351 93.30345,-22.35626 124.96676,-2.73908 11.79351,-5.50301 38.78602,-26.35791 68.20545,-17.57674 16.8751,23.41439 0.59705,61.02779 -17.02406,68.67711 24.1872,68.69953 -15.14124,125.68978 -113.48284,125.92252 z"
       id="path4027"
       inkscape:connector-curvature="0"
       sodipodi:nodetypes="cccccccc" />
    <path
       style="fill:#cc0000;fill-opacity:1;stroke:#cc0000;stroke-width:0.18948144px;stroke-linecap:butt;stroke-linejoin:miter;stroke-opacity:1"
       d="m -533.30442,181.90539 c -14.38393,-17.68561 -22.10055,-46.28237 -13.53081,-48.76379 8.56976,-2.48144 23.6202,0.72385 44.96476,13.13944 l -18.98554,15.36075 z"
       id="path4123"
       inkscape:connector-curvature="0"
       sodipodi:nodetypes="csccc" />
    <path
       style="fill:#cc0000;fill-opacity:1;stroke:#cc0000;stroke-width:0.18948144px;stroke-linecap:butt;stroke-linejoin:miter;stroke-opacity:1"
       d="m -319.21518,180.33687 c 14.3839,-17.68563 22.10054,-46.28237 13.5308,-48.76381 -8.56977,-2.48144 -23.62021,0.72385 -44.96475,13.13943 l 18.98554,15.36076 z"
       id="path4123-2"
       inkscape:connector-curvature="0"
       sodipodi:nodetypes="csccc" />
    <path
       style="fill:#000000;fill-opacity:1;stroke:#000000;stroke-width:1.05912066;stroke-miterlimit:4;stroke-opacity:1;stroke-dasharray:none"
       d="m -580.41982,253.32301 c -0.11908,-0.12623 -0.21667,-0.51251 -0.21667,-0.85845 0,-0.61027 0.13156,-0.63475 4.40577,-0.81996 2.4232,-0.10491 10.8086,-0.27657 18.63429,-0.38119 l 14.2285,-0.19029 0,0.86789 0,0.86784 -11.91727,0.19362 c -6.5545,0.10634 -14.84242,0.27376 -18.41761,0.3718 -3.57518,0.098 -6.59783,0.0749 -6.71701,-0.0515 z"
       id="path4488"
       inkscape:connector-curvature="0" />
    <path
       style="fill:#000000;fill-opacity:1;stroke:#000000;stroke-width:1.05912066;stroke-miterlimit:4;stroke-opacity:1;stroke-dasharray:none"
       d="m -568.41496,280.27365 c -0.2669,-0.58573 -0.25897,-0.79399 0.0373,-0.98367 0.77497,-0.49592 10.75487,-4.64252 16.29491,-6.77041 5.1608,-1.98222 16.55442,-5.89756 17.16189,-5.89756 0.13156,0 0.3582,0.35664 0.50353,0.79257 l 0.26418,0.79261 -6.23486,2.0516 c -8.0784,2.65825 -17.05962,6.12629 -26.35101,10.17514 l -1.33743,0.58281 -0.33856,-0.74309 z"
       id="path4490-1"
       inkscape:connector-curvature="0" />
    <path
       style="fill:#000000;fill-opacity:1;stroke:#000000;stroke-width:1.05912066;stroke-miterlimit:4;stroke-opacity:1;stroke-dasharray:none"
       d="m -268.24403,254.00393 c 0.11908,-0.1261 0.21667,-0.51252 0.21667,-0.85846 0,-0.61022 -0.13156,-0.6347 -4.40576,-0.81991 -2.42318,-0.10491 -10.80861,-0.27656 -18.63429,-0.38124 l -14.2285,-0.19024 0,0.86783 0,0.86791 11.91728,0.19355 c 6.55448,0.1066 14.84242,0.27382 18.41759,0.3718 3.57518,0.0982 6.59784,0.0749 6.71701,-0.0515 z"
       id="path4488-4"
       inkscape:connector-curvature="0" />
    <path
       style="fill:#000000;fill-opacity:1;stroke:#000000;stroke-width:1.05912066;stroke-miterlimit:4;stroke-opacity:1;stroke-dasharray:none"
       d="m -288.5596,301.61309 c 0.26689,-0.58578 0.25898,-0.79406 -0.0373,-0.98368 -0.77498,-0.49597 -10.75488,-4.64257 -16.29493,-6.77047 -5.16079,-1.9822 -16.55442,-5.89754 -17.16187,-5.89754 -0.1317,0 -0.35821,0.35669 -0.50351,0.79261 l -0.26422,0.79257 6.23487,2.05164 c 8.07841,2.65826 17.05961,6.12624 26.35103,10.17514 l 1.33741,0.58275 0.33856,-0.74302 z"
       id="path4490-0"
       inkscape:connector-curvature="0" />
    <path
       style="fill:#000000;fill-opacity:1;stroke:#000000;stroke-width:1.05912066;stroke-miterlimit:4;stroke-opacity:1;stroke-dasharray:none"
       d="m -280.24888,280.95462 c 0.2669,-0.58578 0.25898,-0.79406 -0.0373,-0.98367 -0.77496,-0.49598 -10.75488,-4.64258 -16.29492,-6.77048 -5.16079,-1.9822 -16.55442,-5.89754 -17.16188,-5.89754 -0.13156,0 -0.35821,0.35669 -0.50353,0.79262 l -0.26419,0.79256 6.23489,2.05164 c 8.07837,2.65826 17.05962,6.12624 26.351,10.17514 l 1.33742,0.58282 0.33856,-0.74309 z"
       id="path4490-1-9"
       inkscape:connector-curvature="0" />
    <path
       sodipodi:type="arc"
       style="fill:#cc0000;fill-opacity:1;stroke:#cc0000;stroke-width:3.4000001;stroke-miterlimit:4;stroke-opacity:1;stroke-dasharray:none"
       id="path3804-0"
       sodipodi:cx="277"
       sodipodi:cy="183.86217"
       sodipodi:rx="11"
       sodipodi:ry="11.5"
       d="m 288,183.86217 c 0,6.35127 -4.92487,11.5 -11,11.5 -6.07513,0 -11,-5.14873 -11,-11.5 0,-6.35128 4.92487,-11.5 11,-11.5 6.07513,0 11,5.14872 11,11.5 z"
       transform="matrix(0.80216725,0,0,0.67016509,-641.87873,152.06623)" />
    <path
       sodipodi:type="arc"
       style="fill:#ffffff;fill-opacity:1;stroke:#000000;stroke-width:3.4000001;stroke-miterlimit:4;stroke-opacity:1;stroke-dasharray:none"
       id="path3784-9-4-6-8"
       sodipodi:cx="300.5"
       sodipodi:cy="121.86217"
       sodipodi:rx="41.5"
       sodipodi:ry="42.5"
       d="m 342,121.86217 c 0,23.4721 -18.58018,42.5 -41.5,42.5 -22.91982,0 -41.5,-19.0279 -41.5,-42.5 0,-23.472105 18.58018,-42.500003 41.5,-42.500003 22.91982,0 41.5,19.027898 41.5,42.500003 z"
       transform="matrix(0.69670292,0,0,0.61790775,-586.88351,163.07557)" />
    <path
       sodipodi:type="arc"
       style="fill:#ffffff;fill-opacity:1;stroke:#000000;stroke-width:3.4000001;stroke-miterlimit:4;stroke-opacity:1;stroke-dasharray:none"
       id="path3784-9-4-6-8-5"
       sodipodi:cx="300.5"
       sodipodi:cy="121.86217"
       sodipodi:rx="41.5"
       sodipodi:ry="42.5"
       d="m 342,121.86217 c 0,23.4721 -18.58018,42.5 -41.5,42.5 -22.91982,0 -41.5,-19.0279 -41.5,-42.5 0,-23.472105 18.58018,-42.500003 41.5,-42.500003 22.91982,0 41.5,19.027898 41.5,42.500003 z"
       transform="matrix(-0.69670292,0,0,0.61790775,-254.16767,163.57157)" />
    <path
       sodipodi:type="arc"
       style="fill:#000000;fill-opacity:1;stroke:#000000;stroke-width:3.4000001;stroke-miterlimit:4;stroke-opacity:1;stroke-dasharray:none"
       id="path3804-76"
       sodipodi:cx="277"
       sodipodi:cy="183.86217"
       sodipodi:rx="11"
       sodipodi:ry="11.5"
       d="m 288,183.86217 c 0,6.35127 -4.92487,11.5 -11,11.5 -6.07513,0 -11,-5.14873 -11,-11.5 0,-6.35128 4.92487,-11.5 11,-11.5 6.07513,0 11,5.14872 11,11.5 z"
       transform="matrix(0.572,0,0,0.572,-608.57849,137.67013)" />
    <path
       sodipodi:type="arc"
       style="fill:#000000;fill-opacity:1;stroke:#000000;stroke-width:3.4000001;stroke-miterlimit:4;stroke-opacity:1;stroke-dasharray:none"
       id="path3804-76-1"
       sodipodi:cx="277"
       sodipodi:cy="183.86217"
       sodipodi:rx="11"
       sodipodi:ry="11.5"
       d="m 288,183.86217 c 0,6.35127 -4.92487,11.5 -11,11.5 -6.07513,0 -11,-5.14873 -11,-11.5 0,-6.35128 4.92487,-11.5 11,-11.5 6.07513,0 11,5.14872 11,11.5 z"
       transform="matrix(0.572,0,0,0.572,-548.86467,136.67809)" />
    <path
       sodipodi:type="arc"
       style="fill:none;stroke:#ff0000;stroke-width:4.60500002;stroke-miterlimit:4;stroke-opacity:1;stroke-dasharray:none"
       id="path4025-7"
       sodipodi:cx="844.28571"
       sodipodi:cy="363.07648"
       sodipodi:rx="190"
       sodipodi:ry="160.71428"
       d="m 1034.2857,363.07648 c 0,88.76004 -85.06589,160.71428 -189.99999,160.71428 -104.93411,0 -190,-71.95424 -190,-160.71428 0,-88.76005 85.06589,-160.71428 190,-160.71428 104.9341,0 189.99999,71.95423 189.99999,160.71428 z"
       transform="matrix(0.16187777,0,0,0.17357998,-18.30015,759.02875)" />
    <path
       style="fill:#ffffff;fill-opacity:1;stroke:#000000;stroke-width:5.72000027;stroke-linecap:butt;stroke-linejoin:miter;stroke-miterlimit:4;stroke-opacity:1;stroke-dasharray:none"
       d="M 174.44666,891.30442 C 69.405259,891.97371 42.494069,825.76767 57.268119,765.82353 c -9.83375,-2.88691 -24.95105,-46.59893 -15.08204,-67.34962 22.92672,-10.80586 56.7548,11.2698 69.595271,18.54667 34.30903,-22.23511 93.30344,-22.35627 124.96674,-2.73907 11.79351,-5.50303 38.78602,-26.35793 68.20545,-17.57677 16.87512,23.41442 0.59706,61.02782 -17.02406,68.67713 24.1872,68.69954 -15.14124,125.68979 -113.48282,125.92255 z"
       id="path4027-6"
       inkscape:connector-curvature="0"
       sodipodi:nodetypes="cccccccc" />
    <path
       style="fill:#cc0000;fill-opacity:1;stroke:#000000;stroke-width:5.72000027;stroke-linecap:butt;stroke-linejoin:miter;stroke-miterlimit:4;stroke-opacity:1;stroke-dasharray:none"
       d="m 65.473989,760.13995 c -14.3839,-17.68561 -22.10055,-46.28237 -13.5308,-48.7638 8.56975,-2.48145 23.62019,0.72385 44.96476,13.13944 l -18.98555,15.36074 z"
       id="path4123-1"
       inkscape:connector-curvature="0"
       sodipodi:nodetypes="csccc" />
    <path
       style="fill:#cc0000;fill-opacity:1;stroke:#000000;stroke-width:5.72000027;stroke-linecap:butt;stroke-linejoin:miter;stroke-miterlimit:4;stroke-opacity:1;stroke-dasharray:none"
       d="m 279.56322,758.57143 c 14.38392,-17.68563 22.10056,-46.28238 13.53081,-48.76382 -8.56977,-2.48146 -23.62021,0.72385 -44.96475,13.13944 l 18.98554,15.36074 z"
       id="path4123-2-4"
       inkscape:connector-curvature="0"
       sodipodi:nodetypes="csccc" />
    <path
       style="fill:#000000;fill-opacity:1;stroke:#000000;stroke-width:1.05912066;stroke-miterlimit:4;stroke-opacity:1;stroke-dasharray:none"
       d="m 20.358599,831.55755 c -0.11908,-0.12623 -0.21667,-0.51251 -0.21667,-0.85846 0,-0.61024 0.13156,-0.63471 4.40576,-0.81993 2.4232,-0.10491 10.80862,-0.27657 18.63429,-0.38122 l 14.2285,-0.19026 0,0.86788 0,0.86786 -11.91725,0.1936 c -6.55451,0.1066 -14.84244,0.27378 -18.41762,0.3718 -3.57519,0.0982 -6.59784,0.0749 -6.71701,-0.0512 z"
       id="path4488-2"
       inkscape:connector-curvature="0" />
    <path
       style="fill:#000000;fill-opacity:1;stroke:#000000;stroke-width:1.05912066;stroke-miterlimit:4;stroke-opacity:1;stroke-dasharray:none"
       d="m 30.363449,858.50821 c -0.26689,-0.58574 -0.25897,-0.794 0.0373,-0.98364 0.77497,-0.49598 10.75488,-4.64256 16.29493,-6.77046 5.16078,-1.98221 16.55441,-5.89755 17.16187,-5.89755 0.1317,0 0.35822,0.35666 0.50352,0.79258 l 0.2642,0.79259 -6.23488,2.05162 c -8.07837,2.65825 -17.0596,6.12626 -26.351,10.17514 l -1.33743,0.58281 -0.33856,-0.74309 z"
       id="path4490-1-2"
       inkscape:connector-curvature="0" />
    <path
       style="fill:#000000;fill-opacity:1;stroke:#000000;stroke-width:1.05912066;stroke-miterlimit:4;stroke-opacity:1;stroke-dasharray:none"
       d="m 330.53439,832.23849 c 0.11921,-0.12623 0.21667,-0.51251 0.21667,-0.85846 0,-0.61023 -0.13151,-0.63471 -4.40578,-0.81993 -2.42316,-0.10491 -10.80862,-0.27655 -18.63427,-0.38122 l -14.2285,-0.19028 0,0.86787 0,0.86789 11.91726,0.19359 c 6.55452,0.1066 14.84245,0.27379 18.41762,0.37178 3.57517,0.0981 6.59786,0.0749 6.717,-0.0512 z"
       id="path4488-4-2"
       inkscape:connector-curvature="0" />
    <path
       style="fill:#000000;fill-opacity:1;stroke:#000000;stroke-width:1.05912066;stroke-miterlimit:4;stroke-opacity:1;stroke-dasharray:none"
       d="m 318.52953,859.18915 c 0.2669,-0.58575 0.25901,-0.794 -0.0372,-0.98364 -0.77494,-0.49598 -10.75485,-4.64258 -16.29491,-6.77046 -5.16079,-1.98222 -16.55443,-5.89756 -17.16189,-5.89756 -0.13163,0 -0.35821,0.35667 -0.50352,0.79258 l -0.2642,0.7926 6.23488,2.05163 c 8.07838,2.65826 17.05964,6.12625 26.35104,10.17514 l 1.33739,0.58279 0.33857,-0.74308 z"
       id="path4490-1-9-6"
       inkscape:connector-curvature="0" />
    <path
       sodipodi:type="arc"
       style="fill:#cc0000;fill-opacity:1;stroke:#000000;stroke-width:3.39985108;stroke-miterlimit:4;stroke-opacity:1;stroke-dasharray:none"
       id="path3804-0-8"
       sodipodi:cx="277"
       sodipodi:cy="183.86217"
       sodipodi:rx="11"
       sodipodi:ry="11.5"
       d="m 288,183.86217 c 0,6.35127 -4.92487,11.5 -11,11.5 -6.07513,0 -11,-5.14873 -11,-11.5 0,-6.35128 4.92487,-11.5 11,-11.5 6.07513,0 11,5.14872 11,11.5 z"
       transform="matrix(0.80216725,0,0,0.67016509,-43.100291,730.30077)" />
    <path
       sodipodi:type="arc"
       style="fill:#ffffff;fill-opacity:1;stroke:#000000;stroke-width:3.4000001;stroke-miterlimit:4;stroke-opacity:1;stroke-dasharray:none"
       id="path3784-9-4-6-8-57"
       sodipodi:cx="300.5"
       sodipodi:cy="121.86217"
       sodipodi:rx="41.5"
       sodipodi:ry="42.5"
       d="m 342,121.86217 c 0,23.4721 -18.58018,42.5 -41.5,42.5 -22.91982,0 -41.5,-19.0279 -41.5,-42.5 0,-23.472105 18.58018,-42.500003 41.5,-42.500003 22.91982,0 41.5,19.027898 41.5,42.500003 z"
       transform="matrix(0.69670292,0,0,0.61790775,11.894909,741.31012)" />
    <path
       sodipodi:type="arc"
       style="fill:#ffffff;fill-opacity:1;stroke:#000000;stroke-width:3.4000001;stroke-miterlimit:4;stroke-opacity:1;stroke-dasharray:none"
       id="path3784-9-4-6-8-5-6"
       sodipodi:cx="300.5"
       sodipodi:cy="121.86217"
       sodipodi:rx="41.5"
       sodipodi:ry="42.5"
       d="m 342,121.86217 c 0,23.4721 -18.58018,42.5 -41.5,42.5 -22.91982,0 -41.5,-19.0279 -41.5,-42.5 0,-23.472105 18.58018,-42.500003 41.5,-42.500003 22.91982,0 41.5,19.027898 41.5,42.500003 z"
       transform="matrix(-0.69670292,0,0,0.61790775,344.61073,741.80613)" />
    <path
       sodipodi:type="arc"
       style="fill:#000000;fill-opacity:1;stroke:#000000;stroke-width:3.4000001;stroke-miterlimit:4;stroke-opacity:1;stroke-dasharray:none"
       id="path3804-76-18"
       sodipodi:cx="277"
       sodipodi:cy="183.86217"
       sodipodi:rx="11"
       sodipodi:ry="11.5"
       d="m 288,183.86217 c 0,6.35127 -4.92487,11.5 -11,11.5 -6.07513,0 -11,-5.14873 -11,-11.5 0,-6.35128 4.92487,-11.5 11,-11.5 6.07513,0 11,5.14872 11,11.5 z"
       transform="matrix(0.572,0,0,0.572,-9.80008,715.90467)" />
    <path
       sodipodi:type="arc"
       style="fill:#000000;fill-opacity:1;stroke:#000000;stroke-width:3.4000001;stroke-miterlimit:4;stroke-opacity:1;stroke-dasharray:none"
       id="path3804-76-1-9"
       sodipodi:cx="277"
       sodipodi:cy="183.86217"
       sodipodi:rx="11"
       sodipodi:ry="11.5"
       d="m 288,183.86217 c 0,6.35127 -4.92487,11.5 -11,11.5 -6.07513,0 -11,-5.14873 -11,-11.5 0,-6.35128 4.92487,-11.5 11,-11.5 6.07513,0 11,5.14872 11,11.5 z"
       transform="matrix(0.572,0,0,0.572,49.913739,714.91264)" />
    <path
       sodipodi:type="arc"
       style="fill:none;stroke:#ff0000;stroke-width:4.60500002;stroke-miterlimit:4;stroke-opacity:1;stroke-dasharray:none"
       id="path4025-79"
       sodipodi:cx="844.28571"
       sodipodi:cy="363.07648"
       sodipodi:rx="190"
       sodipodi:ry="160.71428"
       d="m 1034.2857,363.07648 c 0,88.76004 -85.06589,160.71428 -189.99999,160.71428 -104.93411,0 -190,-71.95424 -190,-160.71428 0,-88.76005 85.06589,-160.71428 190,-160.71428 104.9341,0 189.99999,71.95423 189.99999,160.71428 z"
       transform="matrix(0.16187777,0,0,0.17357998,-617.00652,750.57173)" />
    <path
       style="fill:#cc0000;fill-opacity:1;stroke:#000000;stroke-width:5.72000026999999990;stroke-linecap:butt;stroke-linejoin:miter;stroke-miterlimit:4;stroke-opacity:1;stroke-dasharray:none"
       d="m -424.25973,882.84737 c -105.04139,0.66931 -131.95258,-65.53672 -117.17854,-125.48086 -9.83371,-2.8869 -24.95103,-46.59893 -15.08202,-67.34961 22.92671,-10.80587 56.75481,11.26978 69.5953,18.54665 34.309,-22.2351 93.30344,-22.35626 124.96673,-2.73908 11.7935,-5.50301 38.78595,-26.35791 68.2054,-17.57674 16.87515,23.41441 0.59705,61.02781 -17.02398,68.67712 24.18714,68.69954 -15.14129,125.68978 -113.48289,125.92252 z"
       id="path4027-5"
       inkscape:connector-curvature="0"
       sodipodi:nodetypes="cccccccc" />
    <path
       style="fill:#000000;fill-opacity:1;stroke:#000000;stroke-width:0.18948144px;stroke-linecap:butt;stroke-linejoin:miter;stroke-opacity:1"
       d="m -533.23236,751.68295 c -14.38391,-17.68564 -22.10057,-46.28238 -13.53083,-48.76383 8.56976,-2.48144 23.62022,0.72386 44.96477,13.13945 l -18.98557,15.36074 z"
       id="path4123-4"
       inkscape:connector-curvature="0"
       sodipodi:nodetypes="csccc" />
    <path
       style="fill:#000000;fill-opacity:1;stroke:#000000;stroke-width:0.18948144px;stroke-linecap:butt;stroke-linejoin:miter;stroke-opacity:1"
       d="m -319.14315,750.11441 c 14.38397,-17.68565 22.1006,-46.28238 13.53078,-48.76384 -8.5697,-2.48144 -23.62017,0.72387 -44.96468,13.13946 l 18.98547,15.36074 z"
       id="path4123-2-3"
       inkscape:connector-curvature="0"
       sodipodi:nodetypes="csccc" />
    <path
       style="fill:#000000;fill-opacity:1;stroke:#000000;stroke-width:1.05912066;stroke-miterlimit:4;stroke-opacity:1;stroke-dasharray:none"
       d="m -578.34777,823.10054 c -0.11917,-0.12623 -0.21667,-0.51251 -0.21667,-0.85845 0,-0.61026 0.13153,-0.63476 4.40577,-0.81997 2.42319,-0.10491 10.80861,-0.27656 18.63429,-0.38117 l 14.22849,-0.19031 0,0.8679 0,0.86784 -11.91726,0.19362 c -6.5545,0.10634 -14.84243,0.27375 -18.41761,0.3718 -3.57518,0.0979 -6.59783,0.0749 -6.71701,-0.0515 z"
       id="path4488-1"
       inkscape:connector-curvature="0" />
    <path
       style="fill:#000000;fill-opacity:1;stroke:#000000;stroke-width:1.05912066;stroke-miterlimit:4;stroke-opacity:1;stroke-dasharray:none"
       d="m -568.34291,850.05118 c -0.2669,-0.58573 -0.25898,-0.79399 0.0374,-0.98366 0.77496,-0.49592 10.75487,-4.64253 16.29492,-6.77043 5.1608,-1.98221 16.55441,-5.89755 17.16187,-5.89755 0.13161,0 0.35818,0.35664 0.50352,0.79257 l 0.26422,0.79262 -6.23491,2.05159 c -8.07836,2.65826 -17.0596,6.1263 -26.35099,10.17514 l -1.33742,0.58281 -0.33856,-0.74309 z"
       id="path4490-1-3"
       inkscape:connector-curvature="0" />
    <path
       style="fill:#000000;fill-opacity:1;stroke:#000000;stroke-width:1.05912066;stroke-miterlimit:4;stroke-opacity:1;stroke-dasharray:none"
       d="m -270.17199,823.78145 c 0.11921,-0.1261 0.21667,-0.51251 0.21667,-0.85845 0,-0.61021 -0.13156,-0.6347 -4.40578,-0.81991 -2.42321,-0.10491 -10.80861,-0.27656 -18.63426,-0.38124 l -14.2285,-0.19024 0,0.86784 0,0.86789 11.91727,0.19356 c 6.55454,0.1066 14.84237,0.27382 18.4176,0.3718 3.57512,0.0981 6.59779,0.0749 6.717,-0.0515 z"
       id="path4488-4-3"
       inkscape:connector-curvature="0" />
    <path
       style="fill:#000000;fill-opacity:1;stroke:#000000;stroke-width:1.05912066;stroke-miterlimit:4;stroke-opacity:1;stroke-dasharray:none"
       d="m -280.17679,850.73214 c 0.26678,-0.58578 0.25889,-0.79404 -0.0367,-0.98365 -0.77506,-0.49599 -10.75486,-4.64259 -16.29491,-6.77048 -5.16081,-1.98222 -16.55448,-5.89756 -17.16195,-5.89756 -0.1317,0 -0.35818,0.3567 -0.50347,0.79263 l -0.26427,0.79256 6.23492,2.05164 c 8.07836,2.65827 17.05956,6.12624 26.35101,10.17514 l 1.33734,0.58282 0.33862,-0.7431 z"
       id="path4490-1-9-1"
       inkscape:connector-curvature="0" />
    <path
       sodipodi:type="arc"
       style="fill:#000000;fill-opacity:1;stroke:#000000;stroke-width:3.4000001;stroke-miterlimit:4;stroke-opacity:1;stroke-dasharray:none"
       id="path3804-0-1"
       sodipodi:cx="277"
       sodipodi:cy="183.86217"
       sodipodi:rx="11"
       sodipodi:ry="11.5"
       d="m 288,183.86217 c 0,6.35127 -4.92487,11.5 -11,11.5 -6.07513,0 -11,-5.14873 -11,-11.5 0,-6.35128 4.92487,-11.5 11,-11.5 6.07513,0 11,5.14872 11,11.5 z"
       transform="matrix(0.80216725,0,0,0.67016509,-641.80667,721.84375)" />
    <path
       sodipodi:type="arc"
       style="fill:#ffffff;fill-opacity:1;stroke:#000000;stroke-width:3.4000001;stroke-miterlimit:4;stroke-opacity:1;stroke-dasharray:none"
       id="path3784-9-4-6-8-3"
       sodipodi:cx="300.5"
       sodipodi:cy="121.86217"
       sodipodi:rx="41.5"
       sodipodi:ry="42.5"
       d="m 342,121.86217 c 0,23.4721 -18.58018,42.5 -41.5,42.5 -22.91982,0 -41.5,-19.0279 -41.5,-42.5 0,-23.472105 18.58018,-42.500003 41.5,-42.500003 22.91982,0 41.5,19.027898 41.5,42.500003 z"
       transform="matrix(0.69670292,0,0,0.61790775,-586.81146,732.8531)" />
    <path
       sodipodi:type="arc"
       style="fill:#ffffff;fill-opacity:1;stroke:#000000;stroke-width:3.4000001;stroke-miterlimit:4;stroke-opacity:1;stroke-dasharray:none"
       id="path3784-9-4-6-8-5-8"
       sodipodi:cx="300.5"
       sodipodi:cy="121.86217"
       sodipodi:rx="41.5"
       sodipodi:ry="42.5"
       d="m 342,121.86217 c 0,23.4721 -18.58018,42.5 -41.5,42.5 -22.91982,0 -41.5,-19.0279 -41.5,-42.5 0,-23.472105 18.58018,-42.500003 41.5,-42.500003 22.91982,0 41.5,19.027898 41.5,42.500003 z"
       transform="matrix(-0.69670292,0,0,0.61790775,-254.09564,733.34911)" />
    <path
       sodipodi:type="arc"
       style="fill:#000000;fill-opacity:1;stroke:#000000;stroke-width:3.4000001;stroke-miterlimit:4;stroke-opacity:1;stroke-dasharray:none"
       id="path3804-76-7"
       sodipodi:cx="277"
       sodipodi:cy="183.86217"
       sodipodi:rx="11"
       sodipodi:ry="11.5"
       d="m 288,183.86217 c 0,6.35127 -4.92487,11.5 -11,11.5 -6.07513,0 -11,-5.14873 -11,-11.5 0,-6.35128 4.92487,-11.5 11,-11.5 6.07513,0 11,5.14872 11,11.5 z"
       transform="matrix(0.572,0,0,0.572,-608.50645,707.44765)" />
    <path
       sodipodi:type="arc"
       style="fill:#000000;fill-opacity:1;stroke:#000000;stroke-width:3.4000001;stroke-miterlimit:4;stroke-opacity:1;stroke-dasharray:none"
       id="path3804-76-1-4"
       sodipodi:cx="277"
       sodipodi:cy="183.86217"
       sodipodi:rx="11"
       sodipodi:ry="11.5"
       d="m 288,183.86217 c 0,6.35127 -4.92487,11.5 -11,11.5 -6.07513,0 -11,-5.14873 -11,-11.5 0,-6.35128 4.92487,-11.5 11,-11.5 6.07513,0 11,5.14872 11,11.5 z"
       transform="matrix(0.572,0,0,0.572,-548.79264,706.45562)" />
    <path
       sodipodi:type="arc"
       style="fill:none;stroke:#ff0000;stroke-width:4.60500002;stroke-miterlimit:4;stroke-opacity:1;stroke-dasharray:none"
       id="path4025-74"
       sodipodi:cx="844.28571"
       sodipodi:cy="363.07648"
       sodipodi:rx="190"
       sodipodi:ry="160.71428"
       d="m 1034.2857,363.07648 c 0,88.76004 -85.06589,160.71428 -189.99999,160.71428 -104.93411,0 -190,-71.95424 -190,-160.71428 0,-88.76005 85.06589,-160.71428 190,-160.71428 104.9341,0 189.99999,71.95423 189.99999,160.71428 z"
       transform="matrix(0.16187777,0,0,0.17357998,-281.78236,425.47304)" />
    <path
       style="fill:#00cc77;fill-opacity:1;stroke:#000000;stroke-width:5.71999999999999980;stroke-linecap:butt;stroke-linejoin:miter;stroke-miterlimit:4;stroke-opacity:1;stroke-dasharray:none"
       d="M -89.035577,557.7487 C -194.07697,558.418 -220.98814,492.21197 -206.21412,432.26782 c -9.83371,-2.8869 -24.95103,-46.59892 -15.08204,-67.34961 22.92674,-10.80587 56.75483,11.2698 69.5953,18.54667 34.309,-22.2351 93.303393,-22.35627 124.966693,-2.73909 11.79349,-5.503 38.78605,-26.35791 68.20551,-17.57674 16.87514,23.41439 0.59705,61.02781 -17.0241,68.67713 24.18726,68.69953 -15.1411797,125.68977 -113.48282,125.92252 z"
       id="path4027-0"
       inkscape:connector-curvature="0"
       sodipodi:nodetypes="cccccccc" />
    <path
       style="fill:#cc0000;fill-opacity:1;stroke:#000000;stroke-width:5.72;stroke-linecap:butt;stroke-linejoin:miter;stroke-opacity:1;stroke-miterlimit:4;stroke-dasharray:none"
       d="m -198.00822,426.58426 c -14.3839,-17.68563 -22.10058,-46.28238 -13.53082,-48.76382 8.56976,-2.48143 23.62022,0.72385 44.96476,13.13943 l -18.98556,15.36077 z"
       id="path4123-9"
       inkscape:connector-curvature="0"
       sodipodi:nodetypes="csccc" />
    <path
       style="fill:#cc0000;fill-opacity:1;stroke:#000000;stroke-width:5.72;stroke-linecap:butt;stroke-linejoin:miter;stroke-opacity:1;stroke-miterlimit:4;stroke-dasharray:none"
       d="m 16.081053,425.01571 c 14.38387,-17.68562 22.10048,-46.28237 13.53078,-48.76381 -8.56982,-2.48143 -23.6202897,0.72385 -44.9648,13.13945 l 18.9855903,15.36076 z"
       id="path4123-2-48"
       inkscape:connector-curvature="0"
       sodipodi:nodetypes="csccc" />
    <path
       style="fill:#000000;fill-opacity:1;stroke:#000000;stroke-width:1.05912066;stroke-miterlimit:4;stroke-opacity:1;stroke-dasharray:none"
       d="m -245.12361,498.00187 c -0.11914,-0.12623 -0.21667,-0.51251 -0.21667,-0.85845 0,-0.61027 0.13156,-0.63475 4.40577,-0.81996 2.42317,-0.10491 10.80863,-0.27656 18.63426,-0.38119 l 14.2285,-0.19031 0,0.8679 0,0.86784 -11.91727,0.19362 c -6.55449,0.1066 -14.84242,0.27377 -18.41759,0.3718 -3.57517,0.098 -6.59779,0.0749 -6.717,-0.0515 z"
       id="path4488-8"
       inkscape:connector-curvature="0" />
    <path
       style="fill:#000000;fill-opacity:1;stroke:#000000;stroke-width:1.05912066;stroke-miterlimit:4;stroke-opacity:1;stroke-dasharray:none"
       d="m -233.11875,524.95251 c -0.2669,-0.58573 -0.259,-0.794 0.0372,-0.98367 0.77494,-0.49592 10.75484,-4.64252 16.29489,-6.77042 5.16082,-1.98221 16.55442,-5.89755 17.16189,-5.89755 0.13161,0 0.35824,0.35665 0.50353,0.79256 l 0.26421,0.79263 -6.23492,2.05159 c -8.07835,2.65825 -17.05961,6.12629 -26.35099,10.17514 l -1.3374,0.5828 -0.33856,-0.74308 z"
       id="path4490-1-5"
       inkscape:connector-curvature="0" />
    <path
       style="fill:#000000;fill-opacity:1;stroke:#000000;stroke-width:1.05912066;stroke-miterlimit:4;stroke-opacity:1;stroke-dasharray:none"
       d="m 57.047293,525.63348 c 0.2669,-0.58579 0.25901,-0.79405 -0.0377,-0.98367 -0.77495,-0.49598 -10.75485,-4.64259 -16.2949,-6.77048 -5.16082,-1.98221 -16.55437,-5.89755 -17.16184,-5.89755 -0.1317,0 -0.35829,0.3567 -0.50358,0.79262 l -0.26416,0.79257 6.2348,2.05165 c 8.07847,2.65825 17.05968,6.12623 26.35113,10.17514 l 1.33734,0.5828 0.33862,-0.74308 z"
       id="path4490-1-9-17"
       inkscape:connector-curvature="0" />
    <path
       sodipodi:type="arc"
       style="fill:#cc0000;fill-opacity:1;stroke:#cc0000;stroke-width:3.4000001;stroke-miterlimit:4;stroke-opacity:1;stroke-dasharray:none"
       id="path3804-0-11"
       sodipodi:cx="277"
       sodipodi:cy="183.86217"
       sodipodi:rx="11"
       sodipodi:ry="11.5"
       d="m 288,183.86217 c 0,6.35127 -4.92487,11.5 -11,11.5 -6.07513,0 -11,-5.14873 -11,-11.5 0,-6.35128 4.92487,-11.5 11,-11.5 6.07513,0 11,5.14872 11,11.5 z"
       transform="matrix(0.80216725,0,0,0.67016509,-306.58251,396.74507)" />
    <path
       sodipodi:type="arc"
       style="fill:#ffffff;fill-opacity:1;stroke:#000000;stroke-width:3.4000001;stroke-miterlimit:4;stroke-opacity:1;stroke-dasharray:none"
       id="path3784-9-4-6-8-52"
       sodipodi:cx="300.5"
       sodipodi:cy="121.86217"
       sodipodi:rx="41.5"
       sodipodi:ry="42.5"
       d="m 342,121.86217 c 0,23.4721 -18.58018,42.5 -41.5,42.5 -22.91982,0 -41.5,-19.0279 -41.5,-42.5 0,-23.472105 18.58018,-42.500003 41.5,-42.500003 22.91982,0 41.5,19.027898 41.5,42.500003 z"
       transform="matrix(0.69670292,0,0,0.61790775,-251.58727,407.75443)" />
    <path
       sodipodi:type="arc"
       style="fill:#ffffff;fill-opacity:1;stroke:#000000;stroke-width:3.4000001;stroke-miterlimit:4;stroke-opacity:1;stroke-dasharray:none"
       id="path3784-9-4-6-8-5-7"
       sodipodi:cx="300.5"
       sodipodi:cy="121.86217"
       sodipodi:rx="41.5"
       sodipodi:ry="42.5"
       d="m 342,121.86217 c 0,23.4721 -18.58018,42.5 -41.5,42.5 -22.91982,0 -41.5,-19.0279 -41.5,-42.5 0,-23.472105 18.58018,-42.500003 41.5,-42.500003 22.91982,0 41.5,19.027898 41.5,42.500003 z"
       transform="matrix(-0.69670292,0,0,0.61790775,81.128553,408.25042)" />
    <path
       sodipodi:type="arc"
       style="fill:#000000;fill-opacity:1;stroke:#000000;stroke-width:3.4000001;stroke-miterlimit:4;stroke-opacity:1;stroke-dasharray:none"
       id="path3804-76-6"
       sodipodi:cx="277"
       sodipodi:cy="183.86217"
       sodipodi:rx="11"
       sodipodi:ry="11.5"
       d="m 288,183.86217 c 0,6.35127 -4.92487,11.5 -11,11.5 -6.07513,0 -11,-5.14873 -11,-11.5 0,-6.35128 4.92487,-11.5 11,-11.5 6.07513,0 11,5.14872 11,11.5 z"
       transform="matrix(0.572,0,0,0.572,-273.28229,382.34897)" />
    <path
       sodipodi:type="arc"
       style="fill:#000000;fill-opacity:1;stroke:#000000;stroke-width:3.4000001;stroke-miterlimit:4;stroke-opacity:1;stroke-dasharray:none"
       id="path3804-76-1-1"
       sodipodi:cx="277"
       sodipodi:cy="183.86217"
       sodipodi:rx="11"
       sodipodi:ry="11.5"
       d="m 288,183.86217 c 0,6.35127 -4.92487,11.5 -11,11.5 -6.07513,0 -11,-5.14873 -11,-11.5 0,-6.35128 4.92487,-11.5 11,-11.5 6.07513,0 11,5.14872 11,11.5 z"
       transform="matrix(0.572,0,0,0.572,-213.56844,381.35694)" />
    <flowRoot
       xml:space="preserve"
       id="flowRoot5151-8-1-8"
       style="font-size:40px;font-style:normal;font-weight:normal;line-height:125%;letter-spacing:0px;word-spacing:0px;fill:#000000;fill-opacity:1;stroke:none;font-family:Sans"
       transform="matrix(0.05345549,1.3211307,-2.5335103,0.00510999,705.5313,-456.58443)"><flowRegion
         id="flowRegion5153-6-3-6"><rect
           id="rect5155-02-8-5"
           width="470"
           height="238.57143"
           x="928.57141"
           y="266.64789" /></flowRegion><flowPara
         id="flowPara5157-4-7-0"
         style="font-size:144px">|</flowPara></flowRoot>    <path
       style="fill:none;stroke:#000000;stroke-width:13.99999905;stroke-linecap:butt;stroke-linejoin:miter;stroke-miterlimit:4;stroke-opacity:1;stroke-dasharray:none"
       d="m -179.28934,544.1726 c -123.7182,127.44463 -131.40065,135.36044 -131.40065,135.36044"
       id="path4358"
       inkscape:connector-curvature="0"
       sodipodi:nodetypes="cc" />
    <path
       style="fill:none;stroke:#000000;stroke-width:13.99999905;stroke-linecap:butt;stroke-linejoin:miter;stroke-miterlimit:4;stroke-opacity:1;stroke-dasharray:none"
       d="M -0.53276372,547.16267 C 117.40109,689.90274 124.72617,698.76636 124.72617,698.76636"
       id="path4358-9"
       inkscape:connector-curvature="0"
       sodipodi:nodetypes="cc" />
    <flowRoot
       xml:space="preserve"
       id="flowRoot5151-8-1-8-1"
       style="font-size:40px;font-style:normal;font-weight:normal;line-height:125%;letter-spacing:0px;word-spacing:0px;fill:#000000;fill-opacity:1;stroke:none;font-family:Sans"
       transform="matrix(1.3211307,0.05723412,0.00510999,-2.7125975,-1672.8178,1393.1291)"><flowRegion
         id="flowRegion5153-6-3-6-3"><rect
           id="rect5155-02-8-5-5"
           width="470"
           height="238.57143"
           x="928.57141"
           y="266.64789" /></flowRegion><flowPara
         id="flowPara5157-4-7-0-9"
         style="font-size:144px">|</flowPara></flowRoot>    <path
       style="fill:none;stroke:#000000;stroke-width:14.00000095;stroke-linecap:butt;stroke-linejoin:miter;stroke-miterlimit:4;stroke-opacity:1;stroke-dasharray:none"
       d="m -319.74097,282.50272 c 87.49932,87.57665 92.93405,93.01484 92.93405,93.01484"
       id="path4358-9-4"
       inkscape:connector-curvature="0"
       sodipodi:nodetypes="cc" />
    <path
       style="fill:#000000;fill-opacity:1;stroke:#000000;stroke-width:1.05912066;stroke-miterlimit:4;stroke-opacity:1;stroke-dasharray:none"
       d="m 66.966009,498.73397 c 0.11914,-0.12623 0.21667,-0.51251 0.21667,-0.85845 0,-0.61027 -0.13156,-0.63475 -4.40577,-0.81996 -2.42317,-0.10491 -10.80863,-0.27656 -18.63426,-0.38119 l -14.2285,-0.19031 0,0.8679 0,0.86784 11.91727,0.19362 c 6.55449,0.1066 14.84242,0.27377 18.41759,0.3718 3.57517,0.098 6.59779,0.0749 6.717,-0.0515 z"
       id="path4488-8-2"
       inkscape:connector-curvature="0" />
  </g>
</svg>
