<?xml version="1.0" encoding="UTF-8" standalone="no"?>
<!-- Created with Inkscape (http://www.inkscape.org/) -->

<svg
   xmlns:dc="http://purl.org/dc/elements/1.1/"
   xmlns:cc="http://creativecommons.org/ns#"
   xmlns:rdf="http://www.w3.org/1999/02/22-rdf-syntax-ns#"
   xmlns:svg="http://www.w3.org/2000/svg"
   xmlns="http://www.w3.org/2000/svg"
   xmlns:sodipodi="http://sodipodi.sourceforge.net/DTD/sodipodi-0.dtd"
   xmlns:inkscape="http://www.inkscape.org/namespaces/inkscape"
   width="1000"
   height="1000"
   id="svg3792"
   version="1.1"
   inkscape:version="0.48.4 r9939"
   sodipodi:docname="helloWorld!.png">
  <defs
     id="defs3794" />
  <sodipodi:namedview
     id="base"
     pagecolor="#ffffff"
     bordercolor="#666666"
     borderopacity="1.0"
     inkscape:pageopacity="0.0"
     inkscape:pageshadow="2"
     inkscape:zoom="1.4"
     inkscape:cx="374.27152"
     inkscape:cy="419.68812"
     inkscape:document-units="px"
     inkscape:current-layer="layer1"
     showgrid="false"
     inkscape:window-width="1920"
     inkscape:window-height="1020"
     inkscape:window-x="-4"
     inkscape:window-y="-4"
     inkscape:window-maximized="1"
     fit-margin-top="0"
     fit-margin-left="0"
     fit-margin-right="0"
     fit-margin-bottom="0" />
  <metadata
     id="metadata3797">
    <rdf:RDF>
      <cc:Work
         rdf:about="">
        <dc:format>image/svg+xml</dc:format>
        <dc:type
           rdf:resource="http://purl.org/dc/dcmitype/StillImage" />
        <dc:title></dc:title>
      </cc:Work>
    </rdf:RDF>
  </metadata>
  <g
     inkscape:label="Layer 1"
     inkscape:groupmode="layer"
     id="layer1"
     transform="translate(1556.2266,1256.3873)">
    <path
       sodipodi:type="arc"
       style="fill:none;stroke:#ff0000;stroke-width:4.60500002;stroke-miterlimit:4;stroke-opacity:1;stroke-dasharray:none"
       id="path4025-17"
       sodipodi:cx="844.28571"
       sodipodi:cy="363.07648"
       sodipodi:rx="190"
       sodipodi:ry="160.71428"
       d="m 1034.2857,363.07648 c 0,88.76004 -85.06589,160.71428 -189.99999,160.71428 -104.93411,0 -190,-71.95424 -190,-160.71428 0,-88.76005 85.06589,-160.71428 190,-160.71428 104.9341,0 189.99999,71.95423 189.99999,160.71428 z"
       transform="matrix(0.16187777,0,0,0.17357998,-1128.9733,-973.15781)" />
    <path
       style="fill:#000000;fill-opacity:1;stroke:#000000;stroke-width:5.72000026999999990;stroke-linecap:butt;stroke-linejoin:miter;stroke-miterlimit:4;stroke-opacity:1;stroke-dasharray:none"
       d="m -936.22648,-840.88219 c -105.04142,0.6693 -131.95262,-65.5367 -117.17862,-125.48092 -9.8337,-2.8869 -24.951,-46.59889 -15.082,-67.34959 22.9267,-10.8058 56.7548,11.2698 69.59529,18.5467 34.30903,-22.2351 93.30343,-22.3563 124.96673,-2.7391 11.79354,-5.503 38.78604,-26.3579 68.20554,-17.5767 16.8751,23.4144 0.597,61.02779 -17.0241,68.67709 24.1872,68.69952 -15.1412,125.68982 -113.48284,125.92252 z"
       id="path4027-4"
       inkscape:connector-curvature="0"
       sodipodi:nodetypes="cccccccc" />
    <path
       style="fill:#cc0000;fill-opacity:1;stroke:#cc0000;stroke-width:0.18948144px;stroke-linecap:butt;stroke-linejoin:miter;stroke-opacity:1"
       d="m -1045.1992,-972.04661 c -14.3839,-17.6857 -22.1005,-46.28239 -13.5308,-48.76379 8.5698,-2.4815 23.6202,0.7238 44.9648,13.1394 l -18.9856,15.36079 z"
       id="path4123-0"
       inkscape:connector-curvature="0"
       sodipodi:nodetypes="csccc" />
    <path
       style="fill:#cc0000;fill-opacity:1;stroke:#cc0000;stroke-width:0.18948144px;stroke-linecap:butt;stroke-linejoin:miter;stroke-opacity:1"
       d="m -831.10984,-973.61521 c 14.3839,-17.6856 22.1005,-46.28229 13.5308,-48.76379 -8.5698,-2.4814 -23.6202,0.7239 -44.9648,13.1395 l 18.9856,15.36069 z"
       id="path4123-2-9"
       inkscape:connector-curvature="0"
       sodipodi:nodetypes="csccc" />
    <path
       style="fill:#000000;fill-opacity:1;stroke:#000000;stroke-width:1.05912066;stroke-miterlimit:4;stroke-opacity:1;stroke-dasharray:none"
       d="m -1090.3146,-900.62899 c -0.119,-0.1263 -0.2166,-0.5125 -0.2166,-0.8585 0,-0.6102 0.1315,-0.6347 4.4057,-0.8199 2.4232,-0.1049 10.8086,-0.2766 18.6343,-0.3812 l 14.2285,-0.1903 0,0.8679 0,0.8678 -11.9173,0.1936 c -6.5545,0.1064 -14.8424,0.2738 -18.4176,0.3718 -3.5751,0.098 -6.5978,0.075 -6.717,-0.051 z"
       id="path4488-48"
       inkscape:connector-curvature="0" />
    <path
       style="fill:#000000;fill-opacity:1;stroke:#000000;stroke-width:1.05912066;stroke-miterlimit:4;stroke-opacity:1;stroke-dasharray:none"
       d="m -1080.3097,-873.67839 c -0.2669,-0.5857 -0.259,-0.794 0.037,-0.9837 0.775,-0.4959 10.7549,-4.6425 16.2949,-6.7704 5.1608,-1.9822 16.5544,-5.8975 17.1619,-5.8975 0.1315,0 0.3582,0.3566 0.5035,0.7925 l 0.2642,0.7927 -6.2349,2.0516 c -8.0784,2.6582 -17.0596,6.1262 -26.351,10.1751 l -1.3374,0.5828 -0.3386,-0.7431 z"
       id="path4490-1-2"
       inkscape:connector-curvature="0" />
    <path
       style="fill:#000000;fill-opacity:1;stroke:#000000;stroke-width:1.05912066;stroke-miterlimit:4;stroke-opacity:1;stroke-dasharray:none"
       d="m -780.13874,-899.94809 c 0.1191,-0.1261 0.2167,-0.5125 0.2167,-0.8585 0,-0.6102 -0.1316,-0.6347 -4.4058,-0.8199 -2.4232,-0.1049 -10.8086,-0.2765 -18.6343,-0.3812 l -14.2285,-0.1903 0,0.8679 0,0.8679 11.9173,0.1935 c 6.5545,0.1066 14.8424,0.2739 18.4176,0.3718 3.5752,0.098 6.5978,0.075 6.717,-0.052 z"
       id="path4488-4-4"
       inkscape:connector-curvature="0" />
    <path
       style="fill:#000000;fill-opacity:1;stroke:#000000;stroke-width:1.05912066;stroke-miterlimit:4;stroke-opacity:1;stroke-dasharray:none"
       d="m -790.14354,-872.99739 c 0.2669,-0.5858 0.2589,-0.7941 -0.037,-0.9837 -0.775,-0.496 -10.7549,-4.6426 -16.295,-6.7705 -5.1607,-1.9822 -16.5544,-5.8975 -17.1618,-5.8975 -0.1316,0 -0.3582,0.3567 -0.5036,0.7926 l -0.2642,0.7926 6.2349,2.0516 c 8.0784,2.6583 17.0597,6.1263 26.351,10.1752 l 1.3375,0.5828 0.3385,-0.7431 z"
       id="path4490-1-9-5"
       inkscape:connector-curvature="0" />
    <path
       sodipodi:type="arc"
       style="fill:#cc0000;fill-opacity:1;stroke:#cc0000;stroke-width:3.4000001;stroke-miterlimit:4;stroke-opacity:1;stroke-dasharray:none"
       id="path3804-0-1"
       sodipodi:cx="277"
       sodipodi:cy="183.86217"
       sodipodi:rx="11"
       sodipodi:ry="11.5"
       d="m 288,183.86217 c 0,6.35127 -4.92487,11.5 -11,11.5 -6.07513,0 -11,-5.14873 -11,-11.5 0,-6.35128 4.92487,-11.5 11,-11.5 6.07513,0 11,5.14872 11,11.5 z"
       transform="matrix(0.80216725,0,0,0.67016509,-1153.7735,-1001.8858)" />
    <path
       sodipodi:type="arc"
       style="fill:#ffffff;fill-opacity:1;stroke:#000000;stroke-width:3.4000001;stroke-miterlimit:4;stroke-opacity:1;stroke-dasharray:none"
       id="path3784-9-4-6-8-7"
       sodipodi:cx="300.5"
       sodipodi:cy="121.86217"
       sodipodi:rx="41.5"
       sodipodi:ry="42.5"
       d="m 342,121.86217 c 0,23.4721 -18.58018,42.5 -41.5,42.5 -22.91982,0 -41.5,-19.0279 -41.5,-42.5 0,-23.472105 18.58018,-42.500003 41.5,-42.500003 22.91982,0 41.5,19.027898 41.5,42.500003 z"
       transform="matrix(0.69670292,0,0,0.61790775,-1098.7783,-990.87651)" />
    <path
       sodipodi:type="arc"
       style="fill:#ffffff;fill-opacity:1;stroke:#000000;stroke-width:3.4000001;stroke-miterlimit:4;stroke-opacity:1;stroke-dasharray:none"
       id="path3784-9-4-6-8-5-1"
       sodipodi:cx="300.5"
       sodipodi:cy="121.86217"
       sodipodi:rx="41.5"
       sodipodi:ry="42.5"
       d="m 342,121.86217 c 0,23.4721 -18.58018,42.5 -41.5,42.5 -22.91982,0 -41.5,-19.0279 -41.5,-42.5 0,-23.472105 18.58018,-42.500003 41.5,-42.500003 22.91982,0 41.5,19.027898 41.5,42.500003 z"
       transform="matrix(-0.69670292,0,0,0.61790775,-766.06234,-990.38051)" />
    <path
       sodipodi:type="arc"
       style="fill:#000000;fill-opacity:1;stroke:#000000;stroke-width:3.4000001;stroke-miterlimit:4;stroke-opacity:1;stroke-dasharray:none"
       id="path3804-76-15"
       sodipodi:cx="277"
       sodipodi:cy="183.86217"
       sodipodi:rx="11"
       sodipodi:ry="11.5"
       d="m 288,183.86217 c 0,6.35127 -4.92487,11.5 -11,11.5 -6.07513,0 -11,-5.14873 -11,-11.5 0,-6.35128 4.92487,-11.5 11,-11.5 6.07513,0 11,5.14872 11,11.5 z"
       transform="matrix(0.572,0,0,0.572,-1120.4732,-1016.2819)" />
    <path
       sodipodi:type="arc"
       style="fill:#000000;fill-opacity:1;stroke:#000000;stroke-width:3.4000001;stroke-miterlimit:4;stroke-opacity:1;stroke-dasharray:none"
       id="path3804-76-1-2"
       sodipodi:cx="277"
       sodipodi:cy="183.86217"
       sodipodi:rx="11"
       sodipodi:ry="11.5"
       d="m 288,183.86217 c 0,6.35127 -4.92487,11.5 -11,11.5 -6.07513,0 -11,-5.14873 -11,-11.5 0,-6.35128 4.92487,-11.5 11,-11.5 6.07513,0 11,5.14872 11,11.5 z"
       transform="matrix(0.572,0,0,0.572,-1060.7594,-1017.2739)" />
    <path
       sodipodi:type="arc"
       style="fill:none;stroke:#ff0000;stroke-width:4.60500002;stroke-miterlimit:4;stroke-opacity:1;stroke-dasharray:none"
       id="path4025-17-7"
       sodipodi:cx="844.28571"
       sodipodi:cy="363.07648"
       sodipodi:rx="190"
       sodipodi:ry="160.71428"
       d="m 1034.2857,363.07648 c 0,88.76004 -85.06589,160.71428 -189.99999,160.71428 -104.93411,0 -190,-71.95424 -190,-160.71428 0,-88.76005 85.06589,-160.71428 190,-160.71428 104.9341,0 189.99999,71.95423 189.99999,160.71428 z"
       transform="matrix(0.16187777,0,0,0.17357998,-1384.6875,-660.30061)" />
    <path
       style="fill:#000000;fill-opacity:1;stroke:#000000;stroke-width:5.72000026999999990;stroke-linecap:butt;stroke-linejoin:miter;stroke-miterlimit:4;stroke-opacity:1;stroke-dasharray:none"
       d="m -1191.9407,-528.02502 c -105.0414,0.6693 -131.9526,-65.53669 -117.1786,-125.48089 -9.8337,-2.8869 -24.951,-46.5989 -15.082,-67.3496 22.9267,-10.8058 56.7548,11.2698 69.5953,18.5467 34.309,-22.2351 93.3034,-22.3563 124.9667,-2.7391 11.7935,-5.503 38.786,-26.3579 68.2055,-17.5767 16.8751,23.4144 0.597,61.0278 -17.0241,68.6771 24.1872,68.6995 -15.1412,125.68979 -113.4828,125.92249 z"
       id="path4027-4-6"
       inkscape:connector-curvature="0"
       sodipodi:nodetypes="cccccccc" />
    <path
       style="fill:#cc0000;fill-opacity:1;stroke:#cc0000;stroke-width:0.18948144px;stroke-linecap:butt;stroke-linejoin:miter;stroke-opacity:1"
       d="m -1300.9134,-659.18941 c -14.3839,-17.6857 -22.1005,-46.2824 -13.5308,-48.7638 8.5698,-2.4815 23.6202,0.7238 44.9648,13.1394 l -18.9856,15.3608 z"
       id="path4123-0-1"
       inkscape:connector-curvature="0"
       sodipodi:nodetypes="csccc" />
    <path
       style="fill:#cc0000;fill-opacity:1;stroke:#cc0000;stroke-width:0.18948144px;stroke-linecap:butt;stroke-linejoin:miter;stroke-opacity:1"
       d="m -1086.8241,-660.75801 c 14.3839,-17.6856 22.1005,-46.2823 13.5308,-48.7638 -8.5698,-2.4814 -23.6202,0.7239 -44.9648,13.1395 l 18.9856,15.3607 z"
       id="path4123-2-9-4"
       inkscape:connector-curvature="0"
       sodipodi:nodetypes="csccc" />
    <path
       style="fill:#000000;fill-opacity:1;stroke:#000000;stroke-width:1.05912066;stroke-miterlimit:4;stroke-opacity:1;stroke-dasharray:none"
       d="m -1346.0288,-587.77181 c -0.119,-0.1263 -0.2166,-0.5125 -0.2166,-0.8585 0,-0.6102 0.1315,-0.6347 4.4057,-0.8199 2.4232,-0.1049 10.8086,-0.2766 18.6343,-0.3812 l 14.2285,-0.1903 0,0.8679 0,0.8678 -11.9173,0.1936 c -6.5545,0.1064 -14.8424,0.2738 -18.4176,0.3718 -3.5751,0.098 -6.5978,0.075 -6.717,-0.051 z"
       id="path4488-48-2"
       inkscape:connector-curvature="0" />
    <path
       style="fill:#000000;fill-opacity:1;stroke:#000000;stroke-width:1.05912066;stroke-miterlimit:4;stroke-opacity:1;stroke-dasharray:none"
       d="m -1336.0239,-560.82121 c -0.2669,-0.5857 -0.259,-0.794 0.037,-0.9837 0.775,-0.4959 10.7549,-4.6425 16.2949,-6.7704 5.1608,-1.9822 16.5544,-5.8975 17.1619,-5.8975 0.1315,0 0.3582,0.3566 0.5035,0.7925 l 0.2642,0.7927 -6.2349,2.0516 c -8.0784,2.6582 -17.0596,6.1262 -26.351,10.1751 l -1.3374,0.5828 -0.3386,-0.7431 z"
       id="path4490-1-2-2"
       inkscape:connector-curvature="0" />
    <path
       style="fill:#000000;fill-opacity:1;stroke:#000000;stroke-width:1.05912066;stroke-miterlimit:4;stroke-opacity:1;stroke-dasharray:none"
       d="m -1035.853,-587.09091 c 0.1191,-0.1261 0.2167,-0.5125 0.2167,-0.8585 0,-0.6102 -0.1316,-0.6347 -4.4058,-0.8199 -2.4232,-0.1049 -10.8086,-0.2765 -18.6343,-0.3812 l -14.2285,-0.1903 0,0.8679 0,0.8679 11.9173,0.1935 c 6.5545,0.1066 14.8424,0.2739 18.4176,0.3718 3.5752,0.098 6.5978,0.075 6.717,-0.052 z"
       id="path4488-4-4-2"
       inkscape:connector-curvature="0" />
    <path
       style="fill:#000000;fill-opacity:1;stroke:#000000;stroke-width:1.05912066;stroke-miterlimit:4;stroke-opacity:1;stroke-dasharray:none"
       d="m -1045.8578,-560.14021 c 0.2669,-0.5858 0.2589,-0.7941 -0.037,-0.9837 -0.775,-0.496 -10.7549,-4.6426 -16.295,-6.7705 -5.1607,-1.9822 -16.5544,-5.8975 -17.1618,-5.8975 -0.1316,0 -0.3582,0.3567 -0.5036,0.7926 l -0.2642,0.7926 6.2349,2.0516 c 8.0784,2.6583 17.0597,6.1263 26.351,10.1752 l 1.3375,0.5828 0.3385,-0.7431 z"
       id="path4490-1-9-5-6"
       inkscape:connector-curvature="0" />
    <path
       sodipodi:type="arc"
       style="fill:#cc0000;fill-opacity:1;stroke:#cc0000;stroke-width:3.4000001;stroke-miterlimit:4;stroke-opacity:1;stroke-dasharray:none"
       id="path3804-0-1-8"
       sodipodi:cx="277"
       sodipodi:cy="183.86217"
       sodipodi:rx="11"
       sodipodi:ry="11.5"
       d="m 288,183.86217 c 0,6.35127 -4.92487,11.5 -11,11.5 -6.07513,0 -11,-5.14873 -11,-11.5 0,-6.35128 4.92487,-11.5 11,-11.5 6.07513,0 11,5.14872 11,11.5 z"
       transform="matrix(0.80216725,0,0,0.67016509,-1409.4877,-689.02861)" />
    <path
       sodipodi:type="arc"
       style="fill:#ffffff;fill-opacity:1;stroke:#000000;stroke-width:3.4000001;stroke-miterlimit:4;stroke-opacity:1;stroke-dasharray:none"
       id="path3784-9-4-6-8-7-5"
       sodipodi:cx="300.5"
       sodipodi:cy="121.86217"
       sodipodi:rx="41.5"
       sodipodi:ry="42.5"
       d="m 342,121.86217 c 0,23.4721 -18.58018,42.5 -41.5,42.5 -22.91982,0 -41.5,-19.0279 -41.5,-42.5 0,-23.472105 18.58018,-42.500003 41.5,-42.500003 22.91982,0 41.5,19.027898 41.5,42.500003 z"
       transform="matrix(0.69670292,0,0,0.61790775,-1354.4925,-678.01931)" />
    <path
       sodipodi:type="arc"
       style="fill:#ffffff;fill-opacity:1;stroke:#000000;stroke-width:3.4000001;stroke-miterlimit:4;stroke-opacity:1;stroke-dasharray:none"
       id="path3784-9-4-6-8-5-1-7"
       sodipodi:cx="300.5"
       sodipodi:cy="121.86217"
       sodipodi:rx="41.5"
       sodipodi:ry="42.5"
       d="m 342,121.86217 c 0,23.4721 -18.58018,42.5 -41.5,42.5 -22.91982,0 -41.5,-19.0279 -41.5,-42.5 0,-23.472105 18.58018,-42.500003 41.5,-42.500003 22.91982,0 41.5,19.027898 41.5,42.500003 z"
       transform="matrix(-0.69670292,0,0,0.61790775,-1021.7766,-677.52331)" />
    <path
       sodipodi:type="arc"
       style="fill:#000000;fill-opacity:1;stroke:#000000;stroke-width:3.4000001;stroke-miterlimit:4;stroke-opacity:1;stroke-dasharray:none"
       id="path3804-76-15-6"
       sodipodi:cx="277"
       sodipodi:cy="183.86217"
       sodipodi:rx="11"
       sodipodi:ry="11.5"
       d="m 288,183.86217 c 0,6.35127 -4.92487,11.5 -11,11.5 -6.07513,0 -11,-5.14873 -11,-11.5 0,-6.35128 4.92487,-11.5 11,-11.5 6.07513,0 11,5.14872 11,11.5 z"
       transform="matrix(0.572,0,0,0.572,-1376.1874,-703.42471)" />
    <path
       sodipodi:type="arc"
       style="fill:#000000;fill-opacity:1;stroke:#000000;stroke-width:3.4000001;stroke-miterlimit:4;stroke-opacity:1;stroke-dasharray:none"
       id="path3804-76-1-2-1"
       sodipodi:cx="277"
       sodipodi:cy="183.86217"
       sodipodi:rx="11"
       sodipodi:ry="11.5"
       d="m 288,183.86217 c 0,6.35127 -4.92487,11.5 -11,11.5 -6.07513,0 -11,-5.14873 -11,-11.5 0,-6.35128 4.92487,-11.5 11,-11.5 6.07513,0 11,5.14872 11,11.5 z"
       transform="matrix(0.572,0,0,0.572,-1316.4736,-704.41671)" />
    <flowRoot
       xml:space="preserve"
       id="flowRoot3112"
       style="font-size:40px;font-style:normal;font-weight:normal;line-height:125%;letter-spacing:0px;word-spacing:0px;fill:#000000;fill-opacity:1;stroke:none;font-family:Sans"
       transform="translate(-2534.798,-1092.1015)"><flowRegion
         id="flowRegion3114"><rect
           id="rect3116"
           width="821.42859"
           height="328.57144"
           x="995.71429"
           y="18.571428" /></flowRegion><flowPara
         id="flowPara3118"
         style="font-size:270px">hell</flowPara></flowRoot>    <flowRoot
       xml:space="preserve"
       id="flowRoot3112-8"
       style="font-size:40px;font-style:normal;font-weight:normal;line-height:125%;letter-spacing:0px;word-spacing:0px;fill:#000000;fill-opacity:1;stroke:none;font-family:Sans"
       transform="translate(-2527.4107,-774.07238)"><flowRegion
         id="flowRegion3114-9"><rect
           id="rect3116-2"
           width="1301.4286"
           height="415.71429"
           x="995.71429"
           y="18.571428" /></flowRegion><flowPara
         id="flowPara3118-7"
         style="font-size:270px">w    rld</flowPara></flowRoot>  </g>
</svg>
