<?xml version="1.0" encoding="UTF-8" standalone="no"?>
<!-- Created with Inkscape (http://www.inkscape.org/) -->

<svg
   xmlns:dc="http://purl.org/dc/elements/1.1/"
   xmlns:cc="http://creativecommons.org/ns#"
   xmlns:rdf="http://www.w3.org/1999/02/22-rdf-syntax-ns#"
   xmlns:svg="http://www.w3.org/2000/svg"
   xmlns="http://www.w3.org/2000/svg"
   xmlns:sodipodi="http://sodipodi.sourceforge.net/DTD/sodipodi-0.dtd"
   xmlns:inkscape="http://www.inkscape.org/namespaces/inkscape"
   width="1000"
   height="1000"
   id="svg5163"
   version="1.1"
   inkscape:version="0.48.4 r9939"
   sodipodi:docname="linearAlgebra2.png">
  <defs
     id="defs5165" />
  <sodipodi:namedview
     id="base"
     pagecolor="#ffffff"
     bordercolor="#666666"
     borderopacity="1.0"
     inkscape:pageopacity="0.0"
     inkscape:pageshadow="2"
     inkscape:zoom="0.49497475"
     inkscape:cx="311.36202"
     inkscape:cy="735.66404"
     inkscape:document-units="px"
     inkscape:current-layer="layer1"
     showgrid="false"
     inkscape:window-width="1920"
     inkscape:window-height="1020"
     inkscape:window-x="-4"
     inkscape:window-y="-4"
     inkscape:window-maximized="1"
     fit-margin-top="0"
     fit-margin-left="0"
     fit-margin-right="0"
     fit-margin-bottom="0" />
  <metadata
     id="metadata5168">
    <rdf:RDF>
      <cc:Work
         rdf:about="">
        <dc:format>image/svg+xml</dc:format>
        <dc:type
           rdf:resource="http://purl.org/dc/dcmitype/StillImage" />
        <dc:title></dc:title>
      </cc:Work>
    </rdf:RDF>
  </metadata>
  <g
     inkscape:label="Layer 1"
     inkscape:groupmode="layer"
     id="layer1"
     transform="translate(605.61413,-0.76158374)">
    <path
       sodipodi:type="arc"
       style="fill:none;stroke:#ff0000;stroke-width:4.60500002;stroke-miterlimit:4;stroke-opacity:1;stroke-dasharray:none"
       id="path4025"
       sodipodi:cx="844.28571"
       sodipodi:cy="363.07648"
       sodipodi:rx="190"
       sodipodi:ry="160.71428"
       d="m 1034.2857,363.07648 a 190,160.71428 0 1 1 -379.99999,0 190,160.71428 0 1 1 379.99999,0 z"
       transform="matrix(0.16187777,0,0,0.17357998,-516.06332,253.52517)" />
    <path
       style="fill:#000000;fill-opacity:1;stroke:#000100;stroke-width:5.71999999999999980;stroke-linecap:butt;stroke-linejoin:miter;stroke-miterlimit:4;stroke-opacity:1;stroke-dasharray:none"
       d="m -323.31652,385.80082 c -105.04139,0.66931 -131.9526,-65.53673 -117.17853,-125.48087 -9.83374,-2.88691 -24.95105,-46.59892 -15.08205,-67.34961 22.92674,-10.80586 56.7548,11.2698 69.59527,18.54667 34.30904,-22.2351 93.30345,-22.35626 124.96676,-2.73908 11.79351,-5.50301 38.78602,-26.35791 68.20545,-17.57674 16.8751,23.41439 0.597,61.02779 -17.02406,68.67711 24.18716,68.69953 -15.14124,125.68978 -113.48284,125.92252 z"
       id="path4027"
       inkscape:connector-curvature="0"
       sodipodi:nodetypes="cccccccc" />
    <path
       style="fill:#cc0000;fill-opacity:1;stroke:#cc0000;stroke-width:0.18948144px;stroke-linecap:butt;stroke-linejoin:miter;stroke-opacity:1"
       d="m -432.28917,254.63637 c -14.38393,-17.68561 -22.10055,-46.28237 -13.53081,-48.76379 8.56976,-2.48144 23.6202,0.72385 44.96476,13.13944 l -18.98554,15.36075 z"
       id="path4123"
       inkscape:connector-curvature="0"
       sodipodi:nodetypes="csccc" />
    <path
       style="fill:#cc0000;fill-opacity:1;stroke:#cc0000;stroke-width:0.18948144px;stroke-linecap:butt;stroke-linejoin:miter;stroke-opacity:1"
       d="m -218.19993,253.06785 c 14.3839,-17.68563 22.10051,-46.28237 13.5308,-48.76381 -8.56977,-2.48144 -23.62021,0.72385 -44.96475,13.13943 l 18.98554,15.36076 z"
       id="path4123-2"
       inkscape:connector-curvature="0"
       sodipodi:nodetypes="csccc" />
    <path
       style="fill:#000000;fill-opacity:1;stroke:#000000;stroke-width:1.05912066;stroke-miterlimit:4;stroke-opacity:1;stroke-dasharray:none"
       d="m -471.40457,326.05399 c -0.11908,-0.12623 -0.21667,-0.51251 -0.21667,-0.85845 0,-0.61027 0.13156,-0.63475 4.40577,-0.81996 2.4232,-0.10491 10.8086,-0.27657 18.63429,-0.38119 l 14.2285,-0.19029 0,0.86789 0,0.86784 -11.91727,0.19362 c -6.5545,0.10634 -14.84242,0.27376 -18.41761,0.3718 -3.57518,0.098 -6.59783,0.0749 -6.71701,-0.0515 z"
       id="path4488"
       inkscape:connector-curvature="0" />
    <path
       style="fill:#000000;fill-opacity:1;stroke:#000000;stroke-width:1.05912066;stroke-miterlimit:4;stroke-opacity:1;stroke-dasharray:none"
       d="m -461.39971,353.00463 c -0.2669,-0.58573 -0.25897,-0.79399 0.0373,-0.98367 0.77497,-0.49592 10.75487,-4.64252 16.29491,-6.77041 5.1608,-1.98222 16.55442,-5.89756 17.16189,-5.89756 0.13156,0 0.3582,0.35664 0.50353,0.79257 l 0.26418,0.79261 -6.23486,2.0516 c -8.0784,2.65825 -17.05962,6.12629 -26.35101,10.17514 l -1.33743,0.58281 -0.33856,-0.74309 z"
       id="path4490-1"
       inkscape:connector-curvature="0" />
    <path
       style="fill:#000000;fill-opacity:1;stroke:#000000;stroke-width:1.05912066;stroke-miterlimit:4;stroke-opacity:1;stroke-dasharray:none"
       d="m -173.22882,326.73491 c 0.1191,-0.1261 0.2167,-0.51252 0.2167,-0.85846 0,-0.61022 -0.1316,-0.6347 -4.4058,-0.81991 -2.4231,-0.10491 -10.8086,-0.27656 -18.6342,-0.38124 l -14.22854,-0.19024 0,0.86783 0,0.86791 11.91724,0.19355 c 6.5545,0.1066 14.8425,0.27382 18.4176,0.3718 3.5752,0.0982 6.5979,0.0749 6.717,-0.0515 z"
       id="path4488-4"
       inkscape:connector-curvature="0" />
    <path
       style="fill:#000000;fill-opacity:1;stroke:#000000;stroke-width:1.05912066;stroke-miterlimit:4;stroke-opacity:1;stroke-dasharray:none"
       d="m -185.23362,353.6856 c 0.2669,-0.58578 0.259,-0.79406 -0.037,-0.98367 -0.775,-0.49598 -10.7549,-4.64258 -16.2949,-6.77048 -5.1608,-1.9822 -16.55445,-5.89754 -17.16191,-5.89754 -0.13156,0 -0.35821,0.35669 -0.50353,0.79262 l -0.26419,0.79256 6.23489,2.05164 c 8.07834,2.65826 17.05964,6.12624 26.35104,10.17514 l 1.3374,0.58282 0.3385,-0.74309 z"
       id="path4490-1-9"
       inkscape:connector-curvature="0" />
    <path
       sodipodi:type="arc"
       style="fill:#cc0000;fill-opacity:1;stroke:#cc0000;stroke-width:3.4000001;stroke-miterlimit:4;stroke-opacity:1;stroke-dasharray:none"
       id="path3804-0"
       sodipodi:cx="277"
       sodipodi:cy="183.86217"
       sodipodi:rx="11"
       sodipodi:ry="11.5"
       d="m 288,183.86217 a 11,11.5 0 1 1 -22,0 11,11.5 0 1 1 22,0 z"
       transform="matrix(0.80216725,0,0,0.67016509,-540.86348,224.79721)" />
    <path
       sodipodi:type="arc"
       style="fill:#ffffff;fill-opacity:1;stroke:#000000;stroke-width:3.4000001;stroke-miterlimit:4;stroke-opacity:1;stroke-dasharray:none"
       id="path3784-9-4-6-8"
       sodipodi:cx="300.5"
       sodipodi:cy="121.86217"
       sodipodi:rx="41.5"
       sodipodi:ry="42.5"
       d="m 342,121.86217 a 41.5,42.5 0 1 1 -83,0 41.5,42.5 0 1 1 83,0 z"
       transform="matrix(0.69670292,0,0,0.61790775,-485.86826,235.80655)" />
    <path
       sodipodi:type="arc"
       style="fill:#ffffff;fill-opacity:1;stroke:#000000;stroke-width:3.4000001;stroke-miterlimit:4;stroke-opacity:1;stroke-dasharray:none"
       id="path3784-9-4-6-8-5"
       sodipodi:cx="300.5"
       sodipodi:cy="121.86217"
       sodipodi:rx="41.5"
       sodipodi:ry="42.5"
       d="m 342,121.86217 a 41.5,42.5 0 1 1 -83,0 41.5,42.5 0 1 1 83,0 z"
       transform="matrix(-0.69670292,0,0,0.61790775,-153.15242,236.30255)" />
    <path
       sodipodi:type="arc"
       style="fill:#000000;fill-opacity:1;stroke:#000000;stroke-width:3.4000001;stroke-miterlimit:4;stroke-opacity:1;stroke-dasharray:none"
       id="path3804-76"
       sodipodi:cx="277"
       sodipodi:cy="183.86217"
       sodipodi:rx="11"
       sodipodi:ry="11.5"
       d="m 288,183.86217 a 11,11.5 0 1 1 -22,0 11,11.5 0 1 1 22,0 z"
       transform="matrix(0.572,0,0,0.572,-507.56324,210.40111)" />
    <path
       sodipodi:type="arc"
       style="fill:#000000;fill-opacity:1;stroke:#000000;stroke-width:3.4000001;stroke-miterlimit:4;stroke-opacity:1;stroke-dasharray:none"
       id="path3804-76-1"
       sodipodi:cx="277"
       sodipodi:cy="183.86217"
       sodipodi:rx="11"
       sodipodi:ry="11.5"
       d="m 288,183.86217 a 11,11.5 0 1 1 -22,0 11,11.5 0 1 1 22,0 z"
       transform="matrix(0.572,0,0,0.572,-447.84942,209.40907)" />
    <path
       sodipodi:type="arc"
       style="fill:none;stroke:#ff0000;stroke-width:4.60500002;stroke-miterlimit:4;stroke-opacity:1;stroke-dasharray:none"
       id="path4025-7"
       sodipodi:cx="844.28571"
       sodipodi:cy="363.07648"
       sodipodi:rx="190"
       sodipodi:ry="160.71428"
       d="m 1034.2857,363.07648 a 190,160.71428 0 1 1 -379.99999,0 190,160.71428 0 1 1 379.99999,0 z"
       transform="matrix(0.16187777,0,0,0.17357998,-86.990524,257.9931)" />
    <path
       style="fill:#ffffff;fill-opacity:1;stroke:#000000;stroke-width:5.72000027;stroke-linecap:butt;stroke-linejoin:miter;stroke-miterlimit:4;stroke-opacity:1;stroke-dasharray:none"
       d="M 105.75634,390.26877 C 0.71493553,390.93806 -26.196264,324.73202 -11.422264,264.78788 c -9.8337,-2.88691 -24.951,-46.59893 -15.082,-67.34962 22.9266995,-10.80586 56.7548,11.2698 69.5952,18.54667 34.3091,-22.23511 93.303504,-22.35627 124.966804,-2.73907 11.7935,-5.50303 38.786,-26.35793 68.2054,-17.57677 16.8752,23.41442 0.5971,61.02782 -17.024,68.67713 24.1872,68.69954 -15.1413,125.68979 -113.4828,125.92255 z"
       id="path4027-6"
       inkscape:connector-curvature="0"
       sodipodi:nodetypes="cccccccc" />
    <path
       style="fill:#cc0000;fill-opacity:1;stroke:#000000;stroke-width:5.72;stroke-linecap:butt;stroke-linejoin:miter;stroke-miterlimit:4;stroke-opacity:1;stroke-dasharray:none"
       d="M -3.2163645,259.1043 C -17.600264,241.41869 -25.316964,212.82193 -16.747164,210.3405 c 8.5696995,-2.48145 23.6201992,0.72385 44.9647,13.13944 L 9.2320352,238.84068 z"
       id="path4123-1"
       inkscape:connector-curvature="0"
       sodipodi:nodetypes="csccc" />
    <path
       style="fill:#cc0000;fill-opacity:1;stroke:#000000;stroke-width:5.72000027;stroke-linecap:butt;stroke-linejoin:miter;stroke-miterlimit:4;stroke-opacity:1;stroke-dasharray:none"
       d="m 210.87284,257.53578 c 14.3839,-17.68563 22.1006,-46.28238 13.5308,-48.76382 -8.5697,-2.48146 -23.6202,0.72385 -44.9647,13.13944 l 18.9855,15.36074 z"
       id="path4123-2-4"
       inkscape:connector-curvature="0"
       sodipodi:nodetypes="csccc" />
    <path
       style="fill:#000000;fill-opacity:1;stroke:#000000;stroke-width:1.05912066;stroke-miterlimit:4;stroke-opacity:1;stroke-dasharray:none"
       d="m -48.331764,330.5219 c -0.1191,-0.12623 -0.2167,-0.51251 -0.2167,-0.85846 0,-0.61024 0.1316,-0.63471 4.4058,-0.81993 2.4232,-0.10491 10.8086,-0.27657 18.6343,-0.38122 l 14.2285,-0.19026 0,0.86788 0,0.86786 -11.9173,0.1936 c -6.5545,0.1066 -14.8424,0.27378 -18.4176,0.3718 -3.5752,0.0982 -6.5978,0.0749 -6.717,-0.0512 z"
       id="path4488-2"
       inkscape:connector-curvature="0" />
    <path
       style="fill:#000000;fill-opacity:1;stroke:#000000;stroke-width:1.05912066;stroke-miterlimit:4;stroke-opacity:1;stroke-dasharray:none"
       d="m -38.326964,357.47256 c -0.2668,-0.58574 -0.2589,-0.794 0.037,-0.98364 0.775,-0.49598 10.7549,-4.64256 16.295,-6.77046 5.160799,-1.98221 16.5543995,-5.89755 17.1617995,-5.89755 0.1317,0 0.3583,0.35666 0.5036,0.79258 l 0.2642,0.79259 -6.2348995,2.05162 c -8.0784,2.65825 -17.0596,6.12626 -26.351,10.17514 l -1.3374,0.58281 -0.3386,-0.74309 z"
       id="path4490-1-2"
       inkscape:connector-curvature="0" />
    <path
       style="fill:#000000;fill-opacity:1;stroke:#000000;stroke-width:1.05912066;stroke-miterlimit:4;stroke-opacity:1;stroke-dasharray:none"
       d="m 261.84404,331.20284 c 0.1192,-0.12623 0.2167,-0.51251 0.2167,-0.85846 0,-0.61023 -0.1316,-0.63471 -4.4058,-0.81993 -2.4232,-0.10491 -10.8086,-0.27655 -18.6343,-0.38122 l -14.2285,-0.19028 0,0.86787 0,0.86789 11.9173,0.19359 c 6.5545,0.1066 14.8424,0.27379 18.4176,0.37178 3.5752,0.0981 6.5978,0.0749 6.717,-0.0512 z"
       id="path4488-4-2"
       inkscape:connector-curvature="0" />
    <path
       style="fill:#000000;fill-opacity:1;stroke:#000000;stroke-width:1.05912066;stroke-miterlimit:4;stroke-opacity:1;stroke-dasharray:none"
       d="m 249.83914,358.1535 c 0.2669,-0.58575 0.259,-0.794 -0.037,-0.98364 -0.7749,-0.49598 -10.7548,-4.64258 -16.2949,-6.77046 -5.1608,-1.98222 -16.5544,-5.89756 -17.1619,-5.89756 -0.1316,0 -0.3582,0.35667 -0.5035,0.79258 l -0.2642,0.7926 6.2349,2.05163 c 8.0784,2.65826 17.0596,6.12625 26.351,10.17514 l 1.3374,0.58279 0.3386,-0.74308 z"
       id="path4490-1-9-6"
       inkscape:connector-curvature="0" />
    <path
       sodipodi:type="arc"
       style="fill:#cc0000;fill-opacity:1;stroke:#000000;stroke-width:3.39985108;stroke-miterlimit:4;stroke-opacity:1;stroke-dasharray:none"
       id="path3804-0-8"
       sodipodi:cx="277"
       sodipodi:cy="183.86217"
       sodipodi:rx="11"
       sodipodi:ry="11.5"
       d="m 288,183.86217 a 11,11.5 0 1 1 -22,0 11,11.5 0 1 1 22,0 z"
       transform="matrix(0.80216725,0,0,0.67016509,-111.79066,229.26512)" />
    <path
       sodipodi:type="arc"
       style="fill:#ffffff;fill-opacity:1;stroke:#000000;stroke-width:3.4000001;stroke-miterlimit:4;stroke-opacity:1;stroke-dasharray:none"
       id="path3784-9-4-6-8-57"
       sodipodi:cx="300.5"
       sodipodi:cy="121.86217"
       sodipodi:rx="41.5"
       sodipodi:ry="42.5"
       d="m 342,121.86217 a 41.5,42.5 0 1 1 -83,0 41.5,42.5 0 1 1 83,0 z"
       transform="matrix(0.69670292,0,0,0.61790775,-56.795464,240.27447)" />
    <path
       sodipodi:type="arc"
       style="fill:#ffffff;fill-opacity:1;stroke:#000000;stroke-width:3.4000001;stroke-miterlimit:4;stroke-opacity:1;stroke-dasharray:none"
       id="path3784-9-4-6-8-5-6"
       sodipodi:cx="300.5"
       sodipodi:cy="121.86217"
       sodipodi:rx="41.5"
       sodipodi:ry="42.5"
       d="m 342,121.86217 a 41.5,42.5 0 1 1 -83,0 41.5,42.5 0 1 1 83,0 z"
       transform="matrix(-0.69670292,0,0,0.61790775,275.92034,240.77048)" />
    <path
       sodipodi:type="arc"
       style="fill:#000000;fill-opacity:1;stroke:#000000;stroke-width:3.4000001;stroke-miterlimit:4;stroke-opacity:1;stroke-dasharray:none"
       id="path3804-76-18"
       sodipodi:cx="277"
       sodipodi:cy="183.86217"
       sodipodi:rx="11"
       sodipodi:ry="11.5"
       d="m 288,183.86217 a 11,11.5 0 1 1 -22,0 11,11.5 0 1 1 22,0 z"
       transform="matrix(0.572,0,0,0.572,-78.490454,214.86902)" />
    <path
       sodipodi:type="arc"
       style="fill:#000000;fill-opacity:1;stroke:#000000;stroke-width:3.4000001;stroke-miterlimit:4;stroke-opacity:1;stroke-dasharray:none"
       id="path3804-76-1-9"
       sodipodi:cx="277"
       sodipodi:cy="183.86217"
       sodipodi:rx="11"
       sodipodi:ry="11.5"
       d="m 288,183.86217 a 11,11.5 0 1 1 -22,0 11,11.5 0 1 1 22,0 z"
       transform="matrix(0.572,0,0,0.572,-18.776664,213.87699)" />
    <path
       sodipodi:type="arc"
       style="fill:none;stroke:#ff0000;stroke-width:4.60500002;stroke-miterlimit:4;stroke-opacity:1;stroke-dasharray:none"
       id="path4025-79"
       sodipodi:cx="844.28571"
       sodipodi:cy="363.07648"
       sodipodi:rx="190"
       sodipodi:ry="160.71428"
       d="m 1034.2857,363.07648 a 190,160.71428 0 1 1 -379.99999,0 190,160.71428 0 1 1 379.99999,0 z"
       transform="matrix(0.16187777,0,0,0.17357998,-520.03188,669.75953)" />
    <path
       style="fill:#cc0000;fill-opacity:1;stroke:#000000;stroke-width:5.72000026999999990;stroke-linecap:butt;stroke-linejoin:miter;stroke-miterlimit:4;stroke-opacity:1;stroke-dasharray:none"
       d="m -327.28509,802.03517 c -105.04139,0.66931 -131.95258,-65.53672 -117.17854,-125.48086 -9.83371,-2.8869 -24.95103,-46.59893 -15.08202,-67.34961 22.92671,-10.80587 56.75481,11.26978 69.5953,18.54665 34.309,-22.2351 93.30344,-22.35626 124.96675,-2.73908 11.7935,-5.50301 38.7859,-26.35791 68.2054,-17.57674 16.8751,23.41441 0.597,61.02781 -17.024,68.67712 24.1871,68.69954 -15.1413,125.68978 -113.48289,125.92252 z"
       id="path4027-5"
       inkscape:connector-curvature="0"
       sodipodi:nodetypes="cccccccc" />
    <path
       style="fill:#000000;fill-opacity:1;stroke:#000000;stroke-width:0.18948144px;stroke-linecap:butt;stroke-linejoin:miter;stroke-opacity:1"
       d="m -436.25772,670.87075 c -14.38391,-17.68564 -22.10057,-46.28238 -13.53083,-48.76383 8.56976,-2.48144 23.62022,0.72386 44.96477,13.13945 l -18.98557,15.36074 z"
       id="path4123-4"
       inkscape:connector-curvature="0"
       sodipodi:nodetypes="csccc" />
    <path
       style="fill:#000000;fill-opacity:1;stroke:#000000;stroke-width:0.18948144px;stroke-linecap:butt;stroke-linejoin:miter;stroke-opacity:1"
       d="m -222.1685,669.30221 c 14.384,-17.68565 22.1006,-46.28238 13.5308,-48.76384 -8.5697,-2.48144 -23.6202,0.72387 -44.9647,13.13946 l 18.9855,15.36074 z"
       id="path4123-2-3"
       inkscape:connector-curvature="0"
       sodipodi:nodetypes="csccc" />
    <path
       style="fill:#000000;fill-opacity:1;stroke:#000000;stroke-width:1.05912066;stroke-miterlimit:4;stroke-opacity:1;stroke-dasharray:none"
       d="m -475.37313,742.28834 c -0.11917,-0.12623 -0.21667,-0.51251 -0.21667,-0.85845 0,-0.61026 0.13153,-0.63476 4.40577,-0.81997 2.42319,-0.10491 10.80861,-0.27656 18.63429,-0.38117 l 14.22849,-0.19031 0,0.8679 0,0.86784 -11.91726,0.19362 c -6.5545,0.10634 -14.84243,0.27375 -18.41761,0.3718 -3.57518,0.0979 -6.59783,0.0749 -6.71701,-0.0515 z"
       id="path4488-1"
       inkscape:connector-curvature="0" />
    <path
       style="fill:#000000;fill-opacity:1;stroke:#000000;stroke-width:1.05912066;stroke-miterlimit:4;stroke-opacity:1;stroke-dasharray:none"
       d="m -465.36827,769.23898 c -0.2669,-0.58573 -0.25898,-0.79399 0.0374,-0.98366 0.77496,-0.49592 10.75487,-4.64253 16.29492,-6.77043 5.1608,-1.98221 16.55441,-5.89755 17.16187,-5.89755 0.13161,0 0.35818,0.35664 0.50352,0.79257 l 0.26422,0.79262 -6.23491,2.05159 c -8.07836,2.65826 -17.0596,6.1263 -26.35099,10.17514 l -1.33742,0.58281 -0.33856,-0.74309 z"
       id="path4490-1-3"
       inkscape:connector-curvature="0" />
    <path
       style="fill:#000000;fill-opacity:1;stroke:#000000;stroke-width:1.05912066;stroke-miterlimit:4;stroke-opacity:1;stroke-dasharray:none"
       d="m -177.1973,742.96925 c 0.1192,-0.1261 0.2166,-0.51251 0.2166,-0.85845 0,-0.61021 -0.1315,-0.6347 -4.4058,-0.81991 -2.4232,-0.10491 -10.8086,-0.27656 -18.6342,-0.38124 l -14.2285,-0.19024 0,0.86784 0,0.86789 11.9173,0.19356 c 6.5545,0.1066 14.8423,0.27382 18.4176,0.3718 3.5751,0.0981 6.5977,0.0749 6.717,-0.0515 z"
       id="path4488-4-3"
       inkscape:connector-curvature="0" />
    <path
       style="fill:#000000;fill-opacity:1;stroke:#000000;stroke-width:1.05912066;stroke-miterlimit:4;stroke-opacity:1;stroke-dasharray:none"
       d="m -189.2021,769.91994 c 0.2667,-0.58578 0.2588,-0.79404 -0.037,-0.98365 -0.7751,-0.49599 -10.7549,-4.64259 -16.295,-6.77048 -5.1608,-1.98222 -16.5544,-5.89756 -17.1619,-5.89756 -0.1317,0 -0.3582,0.3567 -0.5035,0.79263 l -0.2642,0.79256 6.2349,2.05164 c 8.0783,2.65827 17.0595,6.12624 26.351,10.17514 l 1.3373,0.58282 0.3386,-0.7431 z"
       id="path4490-1-9-1"
       inkscape:connector-curvature="0" />
    <path
       sodipodi:type="arc"
       style="fill:#000000;fill-opacity:1;stroke:#000000;stroke-width:3.4000001;stroke-miterlimit:4;stroke-opacity:1;stroke-dasharray:none"
       id="path3804-0-1"
       sodipodi:cx="277"
       sodipodi:cy="183.86217"
       sodipodi:rx="11"
       sodipodi:ry="11.5"
       d="m 288,183.86217 a 11,11.5 0 1 1 -22,0 11,11.5 0 1 1 22,0 z"
       transform="matrix(0.80216725,0,0,0.67016509,-544.83203,641.03155)" />
    <path
       sodipodi:type="arc"
       style="fill:#ffffff;fill-opacity:1;stroke:#000000;stroke-width:3.4000001;stroke-miterlimit:4;stroke-opacity:1;stroke-dasharray:none"
       id="path3784-9-4-6-8-3"
       sodipodi:cx="300.5"
       sodipodi:cy="121.86217"
       sodipodi:rx="41.5"
       sodipodi:ry="42.5"
       d="m 342,121.86217 a 41.5,42.5 0 1 1 -83,0 41.5,42.5 0 1 1 83,0 z"
       transform="matrix(0.69670292,0,0,0.61790775,-489.83682,652.0409)" />
    <path
       sodipodi:type="arc"
       style="fill:#ffffff;fill-opacity:1;stroke:#000000;stroke-width:3.4000001;stroke-miterlimit:4;stroke-opacity:1;stroke-dasharray:none"
       id="path3784-9-4-6-8-5-8"
       sodipodi:cx="300.5"
       sodipodi:cy="121.86217"
       sodipodi:rx="41.5"
       sodipodi:ry="42.5"
       d="m 342,121.86217 a 41.5,42.5 0 1 1 -83,0 41.5,42.5 0 1 1 83,0 z"
       transform="matrix(-0.69670292,0,0,0.61790775,-157.121,652.53691)" />
    <path
       sodipodi:type="arc"
       style="fill:#000000;fill-opacity:1;stroke:#000000;stroke-width:3.4000001;stroke-miterlimit:4;stroke-opacity:1;stroke-dasharray:none"
       id="path3804-76-7"
       sodipodi:cx="277"
       sodipodi:cy="183.86217"
       sodipodi:rx="11"
       sodipodi:ry="11.5"
       d="m 288,183.86217 a 11,11.5 0 1 1 -22,0 11,11.5 0 1 1 22,0 z"
       transform="matrix(0.572,0,0,0.572,-511.53181,626.63545)" />
    <path
       sodipodi:type="arc"
       style="fill:#000000;fill-opacity:1;stroke:#000000;stroke-width:3.4000001;stroke-miterlimit:4;stroke-opacity:1;stroke-dasharray:none"
       id="path3804-76-1-4"
       sodipodi:cx="277"
       sodipodi:cy="183.86217"
       sodipodi:rx="11"
       sodipodi:ry="11.5"
       d="m 288,183.86217 a 11,11.5 0 1 1 -22,0 11,11.5 0 1 1 22,0 z"
       transform="matrix(0.572,0,0,0.572,-451.818,625.64342)" />
    <path
       sodipodi:type="arc"
       style="fill:none;stroke:#ff0000;stroke-width:4.60500002;stroke-miterlimit:4;stroke-opacity:1;stroke-dasharray:none"
       id="path4025-74"
       sodipodi:cx="844.28571"
       sodipodi:cy="363.07648"
       sodipodi:rx="190"
       sodipodi:ry="160.71428"
       d="m 1034.2857,363.07648 a 190,160.71428 0 1 1 -379.99999,0 190,160.71428 0 1 1 379.99999,0 z"
       transform="matrix(0.16187777,0,0,0.17357998,-77.731507,671.95026)" />
    <path
       style="fill:#cc6600;fill-opacity:1;stroke:#000000;stroke-width:5.71999999999999980;stroke-linecap:butt;stroke-linejoin:miter;stroke-miterlimit:4;stroke-opacity:1;stroke-dasharray:none"
       d="M 115.0152,804.22592 C 9.9738928,804.89522 -16.937307,738.68919 -2.1633072,678.74504 c -9.8336998,-2.8869 -24.9509998,-46.59892 -15.0819998,-67.34961 22.9266998,-10.80587 56.7548,11.2698 69.5953,18.54667 34.309,-22.2351 93.303407,-22.35627 124.966707,-2.73909 11.7934,-5.503 38.786,-26.35791 68.2055,-17.57674 16.8751,23.41439 0.597,61.02781 -17.0241,68.67713 24.1872,68.69953 -15.1412,125.68977 -113.4829,125.92252 z"
       id="path4027-0"
       inkscape:connector-curvature="0"
       sodipodi:nodetypes="cccccccc" />
    <path
       style="fill:#cc0000;fill-opacity:1;stroke:#000000;stroke-width:5.72;stroke-linecap:butt;stroke-linejoin:miter;stroke-opacity:1;stroke-miterlimit:4;stroke-dasharray:none"
       d="m 6.0425928,673.06148 c -14.3839,-17.68563 -22.1005998,-46.28238 -13.5308,-48.76382 8.5697,-2.48143 23.6201992,0.72385 44.9647002,13.13943 l -18.985501,15.36077 z"
       id="path4123-9"
       inkscape:connector-curvature="0"
       sodipodi:nodetypes="csccc" />
    <path
       style="fill:#cc0000;fill-opacity:1;stroke:#000000;stroke-width:5.71999999999999980;stroke-linecap:butt;stroke-linejoin:miter;stroke-opacity:1;stroke-miterlimit:4;stroke-dasharray:none"
       d="m 220.1319,671.49293 c 14.3838,-17.68562 22.1005,-46.28237 13.5308,-48.76381 -8.5699,-2.48143 -23.6203,0.72385 -44.9648,13.13945 l 18.9855,15.36076 z"
       id="path4123-2-48"
       inkscape:connector-curvature="0"
       sodipodi:nodetypes="csccc" />
    <path
       style="fill:#000000;fill-opacity:1;stroke:#000000;stroke-width:1.05912066;stroke-miterlimit:4;stroke-opacity:1;stroke-dasharray:none"
       d="m -33.072807,744.47909 c -0.1191,-0.12623 -0.2167,-0.51251 -0.2167,-0.85845 0,-0.61027 0.1316,-0.63475 4.4058,-0.81996 2.4232,-0.10491 10.8086,-0.27656 18.6343,-0.38119 l 14.2284998,-0.19031 0,0.8679 0,0.86784 -11.9172998,0.19362 c -6.5545,0.1066 -14.8424,0.27377 -18.4176,0.3718 -3.5752,0.098 -6.5978,0.0749 -6.717,-0.0515 z"
       id="path4488-8"
       inkscape:connector-curvature="0" />
    <path
       style="fill:#000000;fill-opacity:1;stroke:#000000;stroke-width:1.05912066;stroke-miterlimit:4;stroke-opacity:1;stroke-dasharray:none"
       d="m -23.067907,771.42973 c -0.2669,-0.58573 -0.259,-0.794 0.037,-0.98367 0.7749,-0.49592 10.7548,-4.64252 16.2949,-6.77042 5.1608,-1.98221 16.5543998,-5.89755 17.1619,-5.89755 0.1316,0 0.3582,0.35665 0.5035,0.79256 l 0.2642,0.79263 -6.2349002,2.05159 c -8.0783998,2.65825 -17.0595998,6.12629 -26.3509998,10.17514 l -1.3374,0.5828 -0.3386,-0.74308 z"
       id="path4490-1-5"
       inkscape:connector-curvature="0" />
    <path
       style="fill:#000000;fill-opacity:1;stroke:#000000;stroke-width:1.05912066;stroke-miterlimit:4;stroke-opacity:1;stroke-dasharray:none"
       d="m 253.0981,772.1107 c 0.2669,-0.58579 0.259,-0.79405 -0.038,-0.98367 -0.7749,-0.49598 -10.7548,-4.64259 -16.2949,-6.77048 -5.1608,-1.98221 -16.5544,-5.89755 -17.1618,-5.89755 -0.1317,0 -0.3583,0.3567 -0.5036,0.79262 l -0.2642,0.79257 6.2348,2.05165 c 8.0785,2.65825 17.0597,6.12623 26.3512,10.17514 l 1.3373,0.5828 0.3386,-0.74308 z"
       id="path4490-1-9-17"
       inkscape:connector-curvature="0" />
    <path
       sodipodi:type="arc"
       style="fill:#cc0000;fill-opacity:1;stroke:#cc0000;stroke-width:3.4000001;stroke-miterlimit:4;stroke-opacity:1;stroke-dasharray:none"
       id="path3804-0-11"
       sodipodi:cx="277"
       sodipodi:cy="183.86217"
       sodipodi:rx="11"
       sodipodi:ry="11.5"
       d="m 288,183.86217 a 11,11.5 0 1 1 -22,0 11,11.5 0 1 1 22,0 z"
       transform="matrix(0.80216725,0,0,0.67016509,-102.5317,643.22229)" />
    <path
       sodipodi:type="arc"
       style="fill:#ffffff;fill-opacity:1;stroke:#000000;stroke-width:3.4000001;stroke-miterlimit:4;stroke-opacity:1;stroke-dasharray:none"
       id="path3784-9-4-6-8-52"
       sodipodi:cx="300.5"
       sodipodi:cy="121.86217"
       sodipodi:rx="41.5"
       sodipodi:ry="42.5"
       d="m 342,121.86217 a 41.5,42.5 0 1 1 -83,0 41.5,42.5 0 1 1 83,0 z"
       transform="matrix(0.69670292,0,0,0.61790775,-47.536407,654.23165)" />
    <path
       sodipodi:type="arc"
       style="fill:#ffffff;fill-opacity:1;stroke:#000000;stroke-width:3.4000001;stroke-miterlimit:4;stroke-opacity:1;stroke-dasharray:none"
       id="path3784-9-4-6-8-5-7"
       sodipodi:cx="300.5"
       sodipodi:cy="121.86217"
       sodipodi:rx="41.5"
       sodipodi:ry="42.5"
       d="m 342,121.86217 a 41.5,42.5 0 1 1 -83,0 41.5,42.5 0 1 1 83,0 z"
       transform="matrix(-0.69670292,0,0,0.61790775,285.1794,654.72764)" />
    <path
       sodipodi:type="arc"
       style="fill:#000000;fill-opacity:1;stroke:#000000;stroke-width:3.4000001;stroke-miterlimit:4;stroke-opacity:1;stroke-dasharray:none"
       id="path3804-76-6"
       sodipodi:cx="277"
       sodipodi:cy="183.86217"
       sodipodi:rx="11"
       sodipodi:ry="11.5"
       d="m 288,183.86217 a 11,11.5 0 1 1 -22,0 11,11.5 0 1 1 22,0 z"
       transform="matrix(0.572,0,0,0.572,-69.231507,628.82619)" />
    <path
       sodipodi:type="arc"
       style="fill:#000000;fill-opacity:1;stroke:#000000;stroke-width:3.4000001;stroke-miterlimit:4;stroke-opacity:1;stroke-dasharray:none"
       id="path3804-76-1-1"
       sodipodi:cx="277"
       sodipodi:cy="183.86217"
       sodipodi:rx="11"
       sodipodi:ry="11.5"
       d="m 288,183.86217 a 11,11.5 0 1 1 -22,0 11,11.5 0 1 1 22,0 z"
       transform="matrix(0.572,0,0,0.572,-9.5176072,627.83416)" />
    <path
       style="fill:#000000;fill-opacity:1;stroke:#000000;stroke-width:1.05912066;stroke-miterlimit:4;stroke-opacity:1;stroke-dasharray:none"
       d="m 265.0168,745.21119 c 0.1192,-0.12623 0.2167,-0.51251 0.2167,-0.85845 0,-0.61027 -0.1316,-0.63475 -4.4058,-0.81996 -2.4231,-0.10491 -10.8086,-0.27656 -18.6342,-0.38119 l -14.2285,-0.19031 0,0.8679 0,0.86784 11.9172,0.19362 c 6.5545,0.1066 14.8425,0.27377 18.4176,0.3718 3.5752,0.098 6.5978,0.0749 6.717,-0.0515 z"
       id="path4488-8-2"
       inkscape:connector-curvature="0" />
    <flowRoot
       xml:space="preserve"
       id="flowRoot3053"
       style="font-size:40px;font-style:normal;font-weight:normal;line-height:125%;letter-spacing:0px;word-spacing:0px;fill:#000000;fill-opacity:1;stroke:none;font-family:Sans"
       transform="translate(-551.06589,245.2185)"><flowRegion
         id="flowRegion3055"><rect
           id="rect3057"
           width="315.1676"
           height="163.64471"
           x="-24.24366"
           y="-50.55864" /></flowRegion><flowPara
         id="flowPara3059"
         style="font-size:400px">[</flowPara></flowRoot>    <flowRoot
       xml:space="preserve"
       id="flowRoot3061"
       style="font-size:40px;font-style:normal;font-weight:normal;line-height:125%;letter-spacing:0px;word-spacing:0px;fill:#000000;fill-opacity:1;stroke:none;font-family:Sans"
       transform="translate(-605.61413,0.76158374)"><flowRegion
         id="flowRegion3063"><rect
           id="rect3065"
           width="531.34021"
           height="725.28955"
           x="26.263966"
           y="121.16729" /></flowRegion><flowPara
         id="flowPara3067"
         style="font-size:800px">[</flowPara></flowRoot>    <text
       xml:space="preserve"
       style="font-size:39.21754837px;font-style:normal;font-weight:normal;line-height:125%;letter-spacing:0px;word-spacing:0px;fill:#000000;fill-opacity:1;stroke:none;font-family:Sans"
       x="-746.62616"
       y="554.28094"
       id="text3069"
       sodipodi:linespacing="125%"
       transform="scale(0.80414915,1.2435504)"><tspan
         sodipodi:role="line"
         id="tspan3071"
         x="-746.62616"
         y="554.28094"
         style="font-size:784.35101318px;font-style:normal;font-variant:normal;font-weight:normal;font-stretch:normal;font-family:Centaur;-inkscape-font-specification:Centaur">[</tspan></text>
    <text
       xml:space="preserve"
       style="font-size:39.21754837px;font-style:normal;font-weight:normal;line-height:125%;letter-spacing:0px;word-spacing:0px;fill:#000000;fill-opacity:1;stroke:none;font-family:Sans"
       x="-497.12299"
       y="557.59711"
       id="text3069-9"
       sodipodi:linespacing="125%"
       transform="scale(-0.80414915,1.2435504)"><tspan
         sodipodi:role="line"
         id="tspan3071-4"
         x="-497.12299"
         y="557.59711"
         style="font-size:784.35101318px;font-style:normal;font-variant:normal;font-weight:normal;font-stretch:normal;font-family:Centaur;-inkscape-font-specification:Centaur">[</tspan></text>
  </g>
</svg>
