<?xml version="1.0" encoding="UTF-8" standalone="no"?>
<!-- Created with Inkscape (http://www.inkscape.org/) -->

<svg
   xmlns:dc="http://purl.org/dc/elements/1.1/"
   xmlns:cc="http://creativecommons.org/ns#"
   xmlns:rdf="http://www.w3.org/1999/02/22-rdf-syntax-ns#"
   xmlns:svg="http://www.w3.org/2000/svg"
   xmlns="http://www.w3.org/2000/svg"
   xmlns:sodipodi="http://sodipodi.sourceforge.net/DTD/sodipodi-0.dtd"
   xmlns:inkscape="http://www.inkscape.org/namespaces/inkscape"
   width="1000"
   height="1000"
   id="svg3800"
   version="1.1"
   inkscape:version="0.48.4 r9939"
   sodipodi:docname="OOP2.png">
  <defs
     id="defs3802" />
  <sodipodi:namedview
     id="base"
     pagecolor="#ffffff"
     bordercolor="#666666"
     borderopacity="1.0"
     inkscape:pageopacity="0.0"
     inkscape:pageshadow="2"
     inkscape:zoom="0.98994949"
     inkscape:cx="347.85351"
     inkscape:cy="491.63323"
     inkscape:document-units="px"
     inkscape:current-layer="layer1"
     showgrid="false"
     inkscape:window-width="1920"
     inkscape:window-height="1020"
     inkscape:window-x="-4"
     inkscape:window-y="-4"
     inkscape:window-maximized="1" />
  <metadata
     id="metadata3805">
    <rdf:RDF>
      <cc:Work
         rdf:about="">
        <dc:format>image/svg+xml</dc:format>
        <dc:type
           rdf:resource="http://purl.org/dc/dcmitype/StillImage" />
        <dc:title></dc:title>
      </cc:Work>
    </rdf:RDF>
  </metadata>
  <g
     inkscape:label="Layer 1"
     inkscape:groupmode="layer"
     id="layer1"
     transform="translate(0,-52.362183)">
    <flowRoot
       xml:space="preserve"
       id="flowRoot5151"
       style="font-size:40px;font-style:normal;font-weight:normal;line-height:125%;letter-spacing:0px;word-spacing:0px;fill:#000000;fill-opacity:1;stroke:none;font-family:Sans"
       transform="matrix(1,0,0,0.8161316,-472.85714,201.84226)"><flowRegion
         id="flowRegion5153"><rect
           id="rect5155"
           width="470"
           height="238.57143"
           x="928.57141"
           y="266.64789" /></flowRegion><flowPara
         id="flowPara5157"
         style="font-size:144px">↑</flowPara></flowRoot>    <path
       sodipodi:type="arc"
       style="fill:none;stroke:#ff0000;stroke-width:4.60500002;stroke-miterlimit:4;stroke-opacity:1;stroke-dasharray:none"
       id="path4025-1"
       sodipodi:cx="844.28571"
       sodipodi:cy="363.07648"
       sodipodi:rx="190"
       sodipodi:ry="160.71428"
       d="m 1034.2857,363.07648 c 0,88.76004 -85.06589,160.71428 -189.99999,160.71428 -104.93411,0 -190,-71.95424 -190,-160.71428 0,-88.76005 85.06589,-160.71428 190,-160.71428 104.9341,0 189.99999,71.95423 189.99999,160.71428 z"
       transform="matrix(0.16187777,0,0,0.17357998,18.435557,760.7601)" />
    <path
       style="fill:#000000;fill-opacity:1;stroke:#000000;stroke-width:5.72000026999999990;stroke-linecap:butt;stroke-linejoin:miter;stroke-miterlimit:4;stroke-opacity:1;stroke-dasharray:none"
       d="M 211.18236,893.03575 C 106.14096,893.70506 79.229757,827.49902 94.003757,767.55488 c -9.8337,-2.88691 -24.951,-46.59892 -15.082,-67.34961 22.926703,-10.80586 56.754803,11.2698 69.595303,18.54667 34.309,-22.2351 93.3034,-22.35626 124.9667,-2.73908 11.7935,-5.50301 38.786,-26.35791 68.2055,-17.57674 16.8751,23.41439 0.597,61.02779 -17.0241,68.67711 24.1872,68.69953 -15.1412,125.68978 -113.4828,125.92252 z"
       id="path4027-7"
       inkscape:connector-curvature="0"
       sodipodi:nodetypes="cccccccc" />
    <path
       style="fill:#cc0000;fill-opacity:1;stroke:#cc0000;stroke-width:0.18948144px;stroke-linecap:butt;stroke-linejoin:miter;stroke-opacity:1"
       d="M 102.20966,761.8713 C 87.825757,744.18569 80.109157,715.58893 88.678857,713.10751 c 8.5698,-2.48144 23.620203,0.72385 44.964803,13.13944 l -18.9856,15.36075 z"
       id="path4123-40"
       inkscape:connector-curvature="0"
       sodipodi:nodetypes="csccc" />
    <path
       style="fill:#cc0000;fill-opacity:1;stroke:#cc0000;stroke-width:0.18948144px;stroke-linecap:butt;stroke-linejoin:miter;stroke-opacity:1"
       d="m 316.29896,760.30278 c 14.3839,-17.68563 22.1005,-46.28237 13.5308,-48.76381 -8.5698,-2.48144 -23.6202,0.72385 -44.9648,13.13943 l 18.9856,15.36076 z"
       id="path4123-2-9"
       inkscape:connector-curvature="0"
       sodipodi:nodetypes="csccc" />
    <path
       style="fill:#000000;fill-opacity:1;stroke:#000000;stroke-width:1.05912066;stroke-miterlimit:4;stroke-opacity:1;stroke-dasharray:none"
       d="m 55.094257,833.28892 c -0.1191,-0.12623 -0.2166,-0.51251 -0.2166,-0.85845 0,-0.61027 0.1315,-0.63475 4.4057,-0.81996 2.4232,-0.10491 10.8086,-0.27657 18.6343,-0.38119 l 14.2285,-0.19029 0,0.86789 0,0.86784 -11.9173,0.19362 c -6.5545,0.10634 -14.8424,0.27376 -18.4176,0.3718 -3.5751,0.098 -6.5978,0.0749 -6.717,-0.0515 z"
       id="path4488-48"
       inkscape:connector-curvature="0" />
    <path
       style="fill:#000000;fill-opacity:1;stroke:#000000;stroke-width:1.05912066;stroke-miterlimit:4;stroke-opacity:1;stroke-dasharray:none"
       d="m 67.099157,860.23956 c -0.2669,-0.58573 -0.259,-0.79399 0.037,-0.98367 0.775,-0.49592 10.7549,-4.64252 16.2949,-6.77041 5.1608,-1.98222 16.5544,-5.89756 17.161903,-5.89756 0.1315,0 0.3582,0.35664 0.5035,0.79257 l 0.2642,0.79261 -6.234903,2.0516 c -8.0784,2.65825 -17.0596,6.12629 -26.351,10.17514 l -1.3374,0.58281 -0.3386,-0.74309 z"
       id="path4490-1-24"
       inkscape:connector-curvature="0" />
    <path
       style="fill:#000000;fill-opacity:1;stroke:#000000;stroke-width:1.05912066;stroke-miterlimit:4;stroke-opacity:1;stroke-dasharray:none"
       d="m 367.27006,833.96984 c 0.1191,-0.1261 0.2167,-0.51252 0.2167,-0.85846 0,-0.61022 -0.1316,-0.6347 -4.4058,-0.81991 -2.4232,-0.10491 -10.8086,-0.27656 -18.6343,-0.38124 l -14.2285,-0.19024 0,0.86783 0,0.86791 11.9173,0.19355 c 6.5545,0.1066 14.8424,0.27382 18.4176,0.3718 3.5752,0.0982 6.5978,0.0749 6.717,-0.0515 z"
       id="path4488-4-5"
       inkscape:connector-curvature="0" />
    <path
       style="fill:#000000;fill-opacity:1;stroke:#000000;stroke-width:1.05912066;stroke-miterlimit:4;stroke-opacity:1;stroke-dasharray:none"
       d="m 355.26526,860.92053 c 0.2669,-0.58578 0.2589,-0.79406 -0.037,-0.98367 -0.775,-0.49598 -10.7549,-4.64258 -16.295,-6.77048 -5.1607,-1.9822 -16.5544,-5.89754 -17.1618,-5.89754 -0.1316,0 -0.3582,0.35669 -0.5036,0.79262 l -0.2642,0.79256 6.2349,2.05164 c 8.0784,2.65826 17.0597,6.12624 26.351,10.17514 l 1.3375,0.58282 0.3385,-0.74309 z"
       id="path4490-1-9-7"
       inkscape:connector-curvature="0" />
    <path
       sodipodi:type="arc"
       style="fill:#cc0000;fill-opacity:1;stroke:#cc0000;stroke-width:3.4000001;stroke-miterlimit:4;stroke-opacity:1;stroke-dasharray:none"
       id="path3804-0-115"
       sodipodi:cx="277"
       sodipodi:cy="183.86217"
       sodipodi:rx="11"
       sodipodi:ry="11.5"
       d="m 288,183.86217 c 0,6.35127 -4.92487,11.5 -11,11.5 -6.07513,0 -11,-5.14873 -11,-11.5 0,-6.35128 4.92487,-11.5 11,-11.5 6.07513,0 11,5.14872 11,11.5 z"
       transform="matrix(0.80216725,0,0,0.67016509,-6.364643,732.03214)" />
    <path
       sodipodi:type="arc"
       style="fill:#ffffff;fill-opacity:1;stroke:#000000;stroke-width:3.4000001;stroke-miterlimit:4;stroke-opacity:1;stroke-dasharray:none"
       id="path3784-9-4-6-8-2"
       sodipodi:cx="300.5"
       sodipodi:cy="121.86217"
       sodipodi:rx="41.5"
       sodipodi:ry="42.5"
       d="m 342,121.86217 c 0,23.4721 -18.58018,42.5 -41.5,42.5 -22.91982,0 -41.5,-19.0279 -41.5,-42.5 0,-23.472105 18.58018,-42.500003 41.5,-42.500003 22.91982,0 41.5,19.027898 41.5,42.500003 z"
       transform="matrix(0.69670292,0,0,0.61790775,48.630557,743.04148)" />
    <path
       sodipodi:type="arc"
       style="fill:#ffffff;fill-opacity:1;stroke:#000000;stroke-width:3.4000001;stroke-miterlimit:4;stroke-opacity:1;stroke-dasharray:none"
       id="path3784-9-4-6-8-5-76"
       sodipodi:cx="300.5"
       sodipodi:cy="121.86217"
       sodipodi:rx="41.5"
       sodipodi:ry="42.5"
       d="m 342,121.86217 c 0,23.4721 -18.58018,42.5 -41.5,42.5 -22.91982,0 -41.5,-19.0279 -41.5,-42.5 0,-23.472105 18.58018,-42.500003 41.5,-42.500003 22.91982,0 41.5,19.027898 41.5,42.500003 z"
       transform="matrix(-0.69670292,0,0,0.61790775,381.34646,743.53748)" />
    <path
       sodipodi:type="arc"
       style="fill:#000000;fill-opacity:1;stroke:#000000;stroke-width:3.4000001;stroke-miterlimit:4;stroke-opacity:1;stroke-dasharray:none"
       id="path3804-76-14"
       sodipodi:cx="277"
       sodipodi:cy="183.86217"
       sodipodi:rx="11"
       sodipodi:ry="11.5"
       d="m 288,183.86217 c 0,6.35127 -4.92487,11.5 -11,11.5 -6.07513,0 -11,-5.14873 -11,-11.5 0,-6.35128 4.92487,-11.5 11,-11.5 6.07513,0 11,5.14872 11,11.5 z"
       transform="matrix(0.572,0,0,0.572,26.935658,717.63604)" />
    <path
       sodipodi:type="arc"
       style="fill:#000000;fill-opacity:1;stroke:#000000;stroke-width:3.4000001;stroke-miterlimit:4;stroke-opacity:1;stroke-dasharray:none"
       id="path3804-76-1-2"
       sodipodi:cx="277"
       sodipodi:cy="183.86217"
       sodipodi:rx="11"
       sodipodi:ry="11.5"
       d="m 288,183.86217 c 0,6.35127 -4.92487,11.5 -11,11.5 -6.07513,0 -11,-5.14873 -11,-11.5 0,-6.35128 4.92487,-11.5 11,-11.5 6.07513,0 11,5.14872 11,11.5 z"
       transform="matrix(0.572,0,0,0.572,86.649457,716.644)" />
    <path
       sodipodi:type="arc"
       style="fill:none;stroke:#ff0000;stroke-width:4.60500002;stroke-miterlimit:4;stroke-opacity:1;stroke-dasharray:none"
       id="path4025-7-3"
       sodipodi:cx="844.28571"
       sodipodi:cy="363.07648"
       sodipodi:rx="190"
       sodipodi:ry="160.71428"
       d="m 1034.2857,363.07648 c 0,88.76004 -85.06589,160.71428 -189.99999,160.71428 -104.93411,0 -190,-71.95424 -190,-160.71428 0,-88.76005 85.06589,-160.71428 190,-160.71428 104.9341,0 189.99999,71.95423 189.99999,160.71428 z"
       transform="matrix(0.16187777,0,0,0.17357998,291.49968,277.85182)" />
    <path
       style="fill:#ffffff;fill-opacity:1;stroke:#000000;stroke-width:5.72000027;stroke-linecap:butt;stroke-linejoin:miter;stroke-miterlimit:4;stroke-opacity:1;stroke-dasharray:none"
       d="m 484.24652,410.12756 c -105.04144,0.6693 -131.95264,-65.5368 -117.17854,-125.48094 -9.8338,-2.8869 -24.9511,-46.599 -15.0821,-67.3496 22.9267,-10.8059 56.7548,11.2698 69.5953,18.5466 34.30904,-22.2351 93.30344,-22.3562 124.96674,-2.739 11.7935,-5.5031 38.7861,-26.358 68.2055,-17.5768 16.8751,23.4144 0.597,61.0278 -17.0241,68.6771 24.1872,68.69964 -15.1412,125.68984 -113.4828,125.92264 z"
       id="path4027-6-2"
       inkscape:connector-curvature="0"
       sodipodi:nodetypes="cccccccc" />
    <path
       style="fill:#ffffff;fill-opacity:1;stroke:#000000;stroke-width:5.72000027;stroke-linecap:butt;stroke-linejoin:miter;stroke-miterlimit:4;stroke-opacity:1;stroke-dasharray:none"
       d="m 375.27378,278.96302 c -14.3839,-17.6856 -22.1005,-46.2824 -13.5308,-48.7638 8.5698,-2.4815 23.6202,0.7238 44.9648,13.1394 l -18.9856,15.3608 z"
       id="path4123-1-2"
       inkscape:connector-curvature="0"
       sodipodi:nodetypes="csccc" />
    <path
       style="fill:#ffffff;fill-opacity:1;stroke:#000000;stroke-width:5.72000027;stroke-linecap:butt;stroke-linejoin:miter;stroke-miterlimit:4;stroke-opacity:1;stroke-dasharray:none"
       d="m 589.36312,277.39452 c 14.3839,-17.6857 22.1005,-46.2824 13.5308,-48.7638 -8.5698,-2.4815 -23.6202,0.7238 -44.9648,13.1394 l 18.9856,15.3607 z"
       id="path4123-2-4-1"
       inkscape:connector-curvature="0"
       sodipodi:nodetypes="csccc" />
    <path
       style="fill:#000000;fill-opacity:1;stroke:#000000;stroke-width:1.05912066;stroke-miterlimit:4;stroke-opacity:1;stroke-dasharray:none"
       d="m 330.15838,350.38066 c -0.119,-0.1262 -0.2166,-0.5125 -0.2166,-0.8585 0,-0.6102 0.1315,-0.6347 4.4057,-0.8199 2.4232,-0.1049 10.8087,-0.2766 18.6343,-0.3812 l 14.2285,-0.1903 0,0.8679 0,0.8679 -11.9172,0.1936 c -6.5545,0.1066 -14.8425,0.2737 -18.4176,0.3718 -3.5752,0.098 -6.5979,0.075 -6.7171,-0.051 z"
       id="path4488-2-6"
       inkscape:connector-curvature="0" />
    <path
       style="fill:#000000;fill-opacity:1;stroke:#000000;stroke-width:1.05912066;stroke-miterlimit:4;stroke-opacity:1;stroke-dasharray:none"
       d="m 340.16328,377.33136 c -0.2669,-0.5858 -0.259,-0.794 0.037,-0.9837 0.775,-0.496 10.7549,-4.6425 16.2949,-6.7704 5.1608,-1.9823 16.5544,-5.8976 17.1619,-5.8976 0.1317,0 0.3582,0.3567 0.5035,0.7926 l 0.2642,0.7926 -6.2349,2.0516 c -8.0783,2.6582 -17.0596,6.1263 -26.351,10.1751 l -1.3374,0.5828 -0.3386,-0.743 z"
       id="path4490-1-2-5"
       inkscape:connector-curvature="0" />
    <path
       style="fill:#000000;fill-opacity:1;stroke:#000000;stroke-width:1.05912066;stroke-miterlimit:4;stroke-opacity:1;stroke-dasharray:none"
       d="m 640.33422,351.06156 c 0.1192,-0.1262 0.2167,-0.5125 0.2167,-0.8584 0,-0.6103 -0.1315,-0.6347 -4.4058,-0.82 -2.4231,-0.1049 -10.8086,-0.2765 -18.6342,-0.3812 l -14.2285,-0.1903 0,0.8679 0,0.8679 11.9172,0.1936 c 6.5545,0.1066 14.8425,0.2738 18.4176,0.3718 3.5752,0.098 6.5979,0.075 6.717,-0.051 z"
       id="path4488-4-2-7"
       inkscape:connector-curvature="0" />
    <path
       style="fill:#000000;fill-opacity:1;stroke:#000000;stroke-width:1.05912066;stroke-miterlimit:4;stroke-opacity:1;stroke-dasharray:none"
       d="m 628.32942,378.01226 c 0.2669,-0.5858 0.259,-0.794 -0.037,-0.9836 -0.775,-0.496 -10.7549,-4.6426 -16.2949,-6.7705 -5.1608,-1.9822 -16.5545,-5.8976 -17.1619,-5.8976 -0.1317,0 -0.3582,0.3567 -0.5035,0.7926 l -0.2642,0.7926 6.2348,2.0516 c 8.0784,2.6583 17.0597,6.1263 26.3511,10.1752 l 1.3374,0.5828 0.3385,-0.7431 z"
       id="path4490-1-9-6-1"
       inkscape:connector-curvature="0" />
    <path
       sodipodi:type="arc"
       style="fill:#ffffff;fill-opacity:1;stroke:#000000;stroke-width:3.39985108;stroke-miterlimit:4;stroke-opacity:1;stroke-dasharray:none"
       id="path3804-0-8-8"
       sodipodi:cx="277"
       sodipodi:cy="183.86217"
       sodipodi:rx="11"
       sodipodi:ry="11.5"
       d="m 288,183.86217 c 0,6.35127 -4.92487,11.5 -11,11.5 -6.07513,0 -11,-5.14873 -11,-11.5 0,-6.35128 4.92487,-11.5 11,-11.5 6.07513,0 11,5.14872 11,11.5 z"
       transform="matrix(0.80216725,0,0,0.67016509,266.69958,249.12382)" />
    <path
       sodipodi:type="arc"
       style="fill:#ffffff;fill-opacity:1;stroke:#000000;stroke-width:3.4000001;stroke-miterlimit:4;stroke-opacity:1;stroke-dasharray:none"
       id="path3784-9-4-6-8-57-9"
       sodipodi:cx="300.5"
       sodipodi:cy="121.86217"
       sodipodi:rx="41.5"
       sodipodi:ry="42.5"
       d="m 342,121.86217 c 0,23.4721 -18.58018,42.5 -41.5,42.5 -22.91982,0 -41.5,-19.0279 -41.5,-42.5 0,-23.472105 18.58018,-42.500003 41.5,-42.500003 22.91982,0 41.5,19.027898 41.5,42.500003 z"
       transform="matrix(0.69670292,0,0,0.61790775,321.69478,260.13322)" />
    <path
       sodipodi:type="arc"
       style="fill:#ffffff;fill-opacity:1;stroke:#000000;stroke-width:3.4000001;stroke-miterlimit:4;stroke-opacity:1;stroke-dasharray:none"
       id="path3784-9-4-6-8-5-6-2"
       sodipodi:cx="300.5"
       sodipodi:cy="121.86217"
       sodipodi:rx="41.5"
       sodipodi:ry="42.5"
       d="m 342,121.86217 c 0,23.4721 -18.58018,42.5 -41.5,42.5 -22.91982,0 -41.5,-19.0279 -41.5,-42.5 0,-23.472105 18.58018,-42.500003 41.5,-42.500003 22.91982,0 41.5,19.027898 41.5,42.500003 z"
       transform="matrix(-0.69670292,0,0,0.61790775,654.41062,260.62922)" />
    <path
       sodipodi:type="arc"
       style="fill:#000000;fill-opacity:1;stroke:#000000;stroke-width:3.4000001;stroke-miterlimit:4;stroke-opacity:1;stroke-dasharray:none"
       id="path3804-76-18-7"
       sodipodi:cx="277"
       sodipodi:cy="183.86217"
       sodipodi:rx="11"
       sodipodi:ry="11.5"
       d="m 288,183.86217 c 0,6.35127 -4.92487,11.5 -11,11.5 -6.07513,0 -11,-5.14873 -11,-11.5 0,-6.35128 4.92487,-11.5 11,-11.5 6.07513,0 11,5.14872 11,11.5 z"
       transform="matrix(0.572,0,0,0.572,299.99978,234.72772)" />
    <path
       sodipodi:type="arc"
       style="fill:#000000;fill-opacity:1;stroke:#000000;stroke-width:3.4000001;stroke-miterlimit:4;stroke-opacity:1;stroke-dasharray:none"
       id="path3804-76-1-9-9"
       sodipodi:cx="277"
       sodipodi:cy="183.86217"
       sodipodi:rx="11"
       sodipodi:ry="11.5"
       d="m 288,183.86217 c 0,6.35127 -4.92487,11.5 -11,11.5 -6.07513,0 -11,-5.14873 -11,-11.5 0,-6.35128 4.92487,-11.5 11,-11.5 6.07513,0 11,5.14872 11,11.5 z"
       transform="matrix(0.572,0,0,0.572,359.71358,233.73572)" />
    <path
       sodipodi:type="arc"
       style="fill:none;stroke:#ff0000;stroke-width:4.60500002;stroke-miterlimit:4;stroke-opacity:1;stroke-dasharray:none"
       id="path4025-74"
       sodipodi:cx="844.28571"
       sodipodi:cy="363.07648"
       sodipodi:rx="190"
       sodipodi:ry="160.71428"
       d="m 1034.2857,363.07648 c 0,88.76004 -85.06589,160.71428 -189.99999,160.71428 -104.93411,0 -190,-71.95424 -190,-160.71428 0,-88.76005 85.06589,-160.71428 190,-160.71428 104.9341,0 189.99999,71.95423 189.99999,160.71428 z"
       transform="matrix(0.16187777,0,0,0.17357998,568.87462,762.58181)" />
    <path
       style="fill:#cc6600;fill-opacity:1;stroke:#000000;stroke-width:5.71999999999999980;stroke-linecap:butt;stroke-linejoin:miter;stroke-miterlimit:4;stroke-opacity:1;stroke-dasharray:none"
       d="m 761.62142,894.85747 c -105.0414,0.6693 -131.9526,-65.53673 -117.1786,-125.48088 -9.8337,-2.8869 -24.951,-46.59892 -15.082,-67.34961 22.9267,-10.80587 56.7548,11.2698 69.5953,18.54667 34.309,-22.2351 93.3034,-22.35627 124.9667,-2.73909 11.7935,-5.503 38.786,-26.35791 68.2055,-17.57674 16.8751,23.41439 0.597,61.02781 -17.0241,68.67713 24.1872,68.69953 -15.1412,125.68977 -113.4828,125.92252 z"
       id="path4027-0"
       inkscape:connector-curvature="0"
       sodipodi:nodetypes="cccccccc" />
    <path
       style="fill:#cc0000;fill-opacity:1;stroke:#000000;stroke-width:5.72;stroke-linecap:butt;stroke-linejoin:miter;stroke-opacity:1;stroke-miterlimit:4;stroke-dasharray:none"
       d="m 652.64872,763.69303 c -14.3839,-17.68563 -22.1006,-46.28238 -13.5308,-48.76382 8.5698,-2.48143 23.6202,0.72385 44.9648,13.13943 l -18.9856,15.36077 z"
       id="path4123-9"
       inkscape:connector-curvature="0"
       sodipodi:nodetypes="csccc" />
    <path
       style="fill:#cc0000;fill-opacity:1;stroke:#000000;stroke-width:5.72;stroke-linecap:butt;stroke-linejoin:miter;stroke-opacity:1;stroke-miterlimit:4;stroke-dasharray:none"
       d="m 866.73802,762.12448 c 14.3839,-17.68562 22.1005,-46.28237 13.5308,-48.76381 -8.5698,-2.48143 -23.6203,0.72385 -44.9648,13.13945 l 18.9856,15.36076 z"
       id="path4123-2-48"
       inkscape:connector-curvature="0"
       sodipodi:nodetypes="csccc" />
    <path
       style="fill:#000000;fill-opacity:1;stroke:#000000;stroke-width:1.05912066;stroke-miterlimit:4;stroke-opacity:1;stroke-dasharray:none"
       d="m 605.53332,835.11064 c -0.1191,-0.12623 -0.2166,-0.51251 -0.2166,-0.85845 0,-0.61027 0.1315,-0.63475 4.4057,-0.81996 2.4232,-0.10491 10.8087,-0.27656 18.6343,-0.38119 l 14.2285,-0.19031 0,0.8679 0,0.86784 -11.9173,0.19362 c -6.5545,0.1066 -14.8424,0.27377 -18.4176,0.3718 -3.5751,0.098 -6.5978,0.0749 -6.717,-0.0515 z"
       id="path4488-8"
       inkscape:connector-curvature="0" />
    <path
       style="fill:#000000;fill-opacity:1;stroke:#000000;stroke-width:1.05912066;stroke-miterlimit:4;stroke-opacity:1;stroke-dasharray:none"
       d="m 617.53822,862.06128 c -0.2669,-0.58573 -0.259,-0.794 0.037,-0.98367 0.7749,-0.49592 10.7548,-4.64252 16.2949,-6.77042 5.1608,-1.98221 16.5544,-5.89755 17.1619,-5.89755 0.1316,0 0.3582,0.35665 0.5035,0.79256 l 0.2642,0.79263 -6.2349,2.05159 c -8.0784,2.65825 -17.0596,6.12629 -26.351,10.17514 l -1.3374,0.5828 -0.3386,-0.74308 z"
       id="path4490-1-5"
       inkscape:connector-curvature="0" />
    <path
       style="fill:#000000;fill-opacity:1;stroke:#000000;stroke-width:1.05912066;stroke-miterlimit:4;stroke-opacity:1;stroke-dasharray:none"
       d="m 905.70422,862.74225 c 0.2669,-0.58579 0.259,-0.79405 -0.038,-0.98367 -0.7749,-0.49598 -10.7548,-4.64259 -16.2949,-6.77048 -5.1608,-1.98221 -16.5543,-5.89755 -17.1618,-5.89755 -0.1317,0 -0.3583,0.3567 -0.5036,0.79262 l -0.2641,0.79257 6.2348,2.05165 c 8.0784,2.65825 17.0596,6.12623 26.3511,10.17514 l 1.3373,0.5828 0.3386,-0.74308 z"
       id="path4490-1-9-17"
       inkscape:connector-curvature="0" />
    <path
       sodipodi:type="arc"
       style="fill:#cc0000;fill-opacity:1;stroke:#cc0000;stroke-width:3.4000001;stroke-miterlimit:4;stroke-opacity:1;stroke-dasharray:none"
       id="path3804-0-11"
       sodipodi:cx="277"
       sodipodi:cy="183.86217"
       sodipodi:rx="11"
       sodipodi:ry="11.5"
       d="m 288,183.86217 c 0,6.35127 -4.92487,11.5 -11,11.5 -6.07513,0 -11,-5.14873 -11,-11.5 0,-6.35128 4.92487,-11.5 11,-11.5 6.07513,0 11,5.14872 11,11.5 z"
       transform="matrix(0.80216725,0,0,0.67016509,544.07442,733.85384)" />
    <path
       sodipodi:type="arc"
       style="fill:#ffffff;fill-opacity:1;stroke:#000000;stroke-width:3.4000001;stroke-miterlimit:4;stroke-opacity:1;stroke-dasharray:none"
       id="path3784-9-4-6-8-52"
       sodipodi:cx="300.5"
       sodipodi:cy="121.86217"
       sodipodi:rx="41.5"
       sodipodi:ry="42.5"
       d="m 342,121.86217 c 0,23.4721 -18.58018,42.5 -41.5,42.5 -22.91982,0 -41.5,-19.0279 -41.5,-42.5 0,-23.472105 18.58018,-42.500003 41.5,-42.500003 22.91982,0 41.5,19.027898 41.5,42.500003 z"
       transform="matrix(0.69670292,0,0,0.61790775,599.06972,744.8632)" />
    <path
       sodipodi:type="arc"
       style="fill:#ffffff;fill-opacity:1;stroke:#000000;stroke-width:3.4000001;stroke-miterlimit:4;stroke-opacity:1;stroke-dasharray:none"
       id="path3784-9-4-6-8-5-7"
       sodipodi:cx="300.5"
       sodipodi:cy="121.86217"
       sodipodi:rx="41.5"
       sodipodi:ry="42.5"
       d="m 342,121.86217 c 0,23.4721 -18.58018,42.5 -41.5,42.5 -22.91982,0 -41.5,-19.0279 -41.5,-42.5 0,-23.472105 18.58018,-42.500003 41.5,-42.500003 22.91982,0 41.5,19.027898 41.5,42.500003 z"
       transform="matrix(-0.69670292,0,0,0.61790775,931.78552,745.35919)" />
    <path
       sodipodi:type="arc"
       style="fill:#000000;fill-opacity:1;stroke:#000000;stroke-width:3.4000001;stroke-miterlimit:4;stroke-opacity:1;stroke-dasharray:none"
       id="path3804-76-6"
       sodipodi:cx="277"
       sodipodi:cy="183.86217"
       sodipodi:rx="11"
       sodipodi:ry="11.5"
       d="m 288,183.86217 c 0,6.35127 -4.92487,11.5 -11,11.5 -6.07513,0 -11,-5.14873 -11,-11.5 0,-6.35128 4.92487,-11.5 11,-11.5 6.07513,0 11,5.14872 11,11.5 z"
       transform="matrix(0.572,0,0,0.572,577.37472,719.45774)" />
    <path
       sodipodi:type="arc"
       style="fill:#000000;fill-opacity:1;stroke:#000000;stroke-width:3.4000001;stroke-miterlimit:4;stroke-opacity:1;stroke-dasharray:none"
       id="path3804-76-1-1"
       sodipodi:cx="277"
       sodipodi:cy="183.86217"
       sodipodi:rx="11"
       sodipodi:ry="11.5"
       d="m 288,183.86217 c 0,6.35127 -4.92487,11.5 -11,11.5 -6.07513,0 -11,-5.14873 -11,-11.5 0,-6.35128 4.92487,-11.5 11,-11.5 6.07513,0 11,5.14872 11,11.5 z"
       transform="matrix(0.572,0,0,0.572,637.08852,718.46571)" />
    <path
       style="fill:#000000;fill-opacity:1;stroke:#000000;stroke-width:1.05912066;stroke-miterlimit:4;stroke-opacity:1;stroke-dasharray:none"
       d="m 917.62302,835.84274 c 0.1191,-0.12623 0.2166,-0.51251 0.2166,-0.85845 0,-0.61027 -0.1315,-0.63475 -4.4057,-0.81996 -2.4232,-0.10491 -10.8087,-0.27656 -18.6343,-0.38119 l -14.2285,-0.19031 0,0.8679 0,0.86784 11.9173,0.19362 c 6.5545,0.1066 14.8424,0.27377 18.4176,0.3718 3.5751,0.098 6.5977,0.0749 6.717,-0.0515 z"
       id="path4488-8-2"
       inkscape:connector-curvature="0" />
    <path
       style="fill:none;stroke:#000000;stroke-width:8;stroke-linecap:butt;stroke-linejoin:miter;stroke-opacity:1;stroke-miterlimit:4;stroke-dasharray:none"
       d="m 202.88579,683.76211 c 2.85714,-108.52148 2.79985,-145.67756 2.79985,-145.67756 l 282.51956,0.0206"
       id="path3931"
       inkscape:connector-curvature="0"
       sodipodi:nodetypes="ccc" />
    <path
       style="fill:none;stroke:#000000;stroke-width:8;stroke-linecap:butt;stroke-linejoin:miter;stroke-miterlimit:4;stroke-opacity:1;stroke-dasharray:none"
       d="m 771.23113,684.05811 c -2.85714,-108.52148 -2.79985,-145.67756 -2.79985,-145.67756 l -282.51956,0.0206"
       id="path3931-5"
       inkscape:connector-curvature="0"
       sodipodi:nodetypes="ccc" />
  </g>
</svg>
